<svg width="16" height="16" viewBox="0 0 16 16" fill="none" xmlns="http://www.w3.org/2000/svg"><path d="M5 7V4C5 2.34315 6.34315 1 8 1V1C9.65685 1 11 2.34315 11 4V7" stroke="#7856FF" stroke-linejoin="round"></path><path d="M1 7.33325C1 6.22868 1.89543 5.33325 3 5.33325H13C14.1046 5.33325 15 6.22868 15 7.33325V13.9999C15 15.1045 14.1046 15.9999 13 15.9999H3C1.89543 15.9999 1 15.1045 1 13.9999V7.33325Z" fill="#B094FF"></path><path d="M6.58273 12.6098L7.9987 9.77783L9.41468 12.6098C9.5809 12.9422 9.33916 13.3334 8.96746 13.3334H7.02994C6.65825 13.3334 6.4165 12.9422 6.58273 12.6098Z" fill="#7856FF"></path><circle cx="7.99886" cy="9.33333" r="1.33333" fill="#7856FF"></circle></svg>