<svg width="16" height="16" viewBox="0 0 16 16" fill="none" xmlns="http://www.w3.org/2000/svg"><path fill-rule="evenodd" clip-rule="evenodd" d="M11 0C11.5523 0 12 0.447715 12 1V8H15C15.5523 8 16 8.44771 16 9V15C16 15.5523 15.5523 16 15 16H9C8.44772 16 8 15.5523 8 15V12H1C0.447716 12 0 11.5523 0 11V1C0 0.447715 0.447715 0 1 0H11Z" fill="#B094FF"></path><path fill-rule="evenodd" clip-rule="evenodd" d="M8 12H11C11.5523 12 12 11.5523 12 11V8H9C8.44772 8 8 8.44772 8 9V12Z" fill="#7856FF"></path><path d="M3 3L6.5 6.5" stroke="#7856FF" stroke-linecap="round" stroke-linejoin="round"></path><path d="M6.5 3.5V6.5H3.5" stroke="#7856FF" stroke-linecap="round" stroke-linejoin="round"></path></svg>