<svg width="16" height="16" viewBox="0 0 16 16" fill="none" xmlns="http://www.w3.org/2000/svg"><path fill-rule="evenodd" clip-rule="evenodd" d="M5 0C4.44772 0 4 0.447715 4 1V8H1C0.447715 8 0 8.44771 0 9V15C0 15.5523 0.447715 16 1 16H7C7.55228 16 8 15.5523 8 15V12H15C15.5523 12 16 11.5523 16 11V1C16 0.447715 15.5523 0 15 0H5Z" fill="#B094FF"></path><path fill-rule="evenodd" clip-rule="evenodd" d="M8 12H5C4.44772 12 4 11.5523 4 11V8H7C7.55228 8 8 8.44772 8 9V12Z" fill="#7856FF"></path><path d="M9.5 6.5L13 3" stroke="#7856FF" stroke-linecap="round" stroke-linejoin="round"></path><path d="M13 6V3H10" stroke="#7856FF" stroke-linecap="round" stroke-linejoin="round"></path></svg>