<svg width="16" height="16" viewBox="0 0 16 16" fill="none" xmlns="http://www.w3.org/2000/svg"><path d="M14.2857 6.85714H13.7143C13.0831 6.85714 12.5714 7.36882 12.5714 8C12.5714 8.63118 13.0831 9.14286 13.7143 9.14286H14.2857C15.2325 9.14286 16 9.91037 16 10.8571V14C16 15.1046 15.1046 16 14 16H10.8571C9.91037 16 9.14286 15.2325 9.14286 14.2857V13.7143C9.14286 13.0831 8.63118 12.5714 8 12.5714C7.36882 12.5714 6.85714 13.0831 6.85714 13.7143V14.2857C6.85714 15.2325 6.08963 16 5.14286 16H2C0.895431 16 0 15.1046 0 14V10.8571C0 9.91037 0.767511 9.14286 1.71429 9.14286H2.28571C2.9169 9.14286 3.42857 8.63118 3.42857 8C3.42857 7.36882 2.9169 6.85714 2.28572 6.85714H1.71429C0.767512 6.85714 0 6.08963 0 5.14286V2C0 0.895431 0.89543 0 2 0H5.14286C6.08963 0 6.85714 0.767511 6.85714 1.71429V2.28571C6.85714 2.9169 7.36882 3.42857 8 3.42857C8.63118 3.42857 9.14286 2.9169 9.14286 2.28572V1.71429C9.14286 0.767512 9.91037 0 10.8571 0H14C15.1046 0 16 0.89543 16 2V5.14286C16 6.08963 15.2325 6.85714 14.2857 6.85714Z" fill="#B094FF"></path><path d="M6.66669 5.33334V6.66668" stroke="#7856FF" stroke-linecap="round" stroke-linejoin="round"></path><path d="M9.33331 5.33334V6.66668" stroke="#7856FF" stroke-linecap="round" stroke-linejoin="round"></path><path d="M5.33331 8C5.55554 8.44444 6.39998 9.33333 7.99998 9.33333C9.59998 9.33333 10.4444 8.44444 10.6666 8" stroke="#7856FF" stroke-linecap="round"></path></svg>