<svg width="18" height="16" viewBox="0 0 18 16" fill="none" xmlns="http://www.w3.org/2000/svg"><path d="M2 0H11.3333C12.4379 0 13.3333 0.895431 13.3333 2V14C13.3333 15.1046 12.4379 16 11.3333 16H2C0.895431 16 0 15.1046 0 14V2C0 0.895431 0.895428 0 2 0Z" fill="#B094FF"></path><path d="M5.33332 12H2.66666" stroke="#7856FF" stroke-linecap="round" stroke-linejoin="round"></path><path d="M5.33332 8H2.66666" stroke="#7856FF" stroke-linecap="round" stroke-linejoin="round"></path><path d="M7.99999 4H2.66666" stroke="#7856FF" stroke-linecap="round" stroke-linejoin="round"></path><path d="M8 7.99999V12H12L15.3333 8.66666C16.4379 7.56209 16.4379 5.77123 15.3333 4.66666C14.2288 3.56209 12.4379 3.56209 11.3333 4.66666L8 7.99999Z" fill="#B094FF" stroke="#7856FF" stroke-linejoin="round"></path></svg>