<svg width="15" height="16" viewBox="0 0 15 16" fill="none" xmlns="http://www.w3.org/2000/svg"><rect x="3.29968" y="14.3158" width="8.13757" height="1.68421" rx="0.842105" fill="#7856FF"></rect><path d="M0.0896984 13.3204C0.562919 10.7428 2.77594 9.27982 3.52632 8.8421H4.42105V14.3158H1C0.447715 14.3158 -0.0100294 13.8636 0.0896984 13.3204Z" fill="#7856FF"></path><path d="M14.6471 13.3204C14.1739 10.7428 11.9609 9.27982 11.2105 8.8421H10.3158V14.3158H13.7368C14.2891 14.3158 14.7468 13.8636 14.6471 13.3204Z" fill="#7856FF"></path><path d="M4.42107 14.3158L3.60288 12.4976C1.83768 8.57492 2.84346 3.95936 6.08071 1.12676C6.81799 0.481635 7.91887 0.481635 8.65616 1.12676C11.8934 3.95936 12.8992 8.57492 11.134 12.4976L10.3158 14.3158H4.42107Z" fill="#B094FF"></path><circle cx="7.36836" cy="8.42106" r="2.52632" fill="#7856FF"></circle><path fill-rule="evenodd" clip-rule="evenodd" d="M11.2042 4.63158H3.53271C4.09604 3.3167 4.95298 2.11354 6.08073 1.12676C6.81802 0.481633 7.9189 0.481632 8.65618 1.12676C9.78393 2.11354 10.6409 3.3167 11.2042 4.63158Z" fill="#7856FF"></path></svg>