<svg width="16" height="16" viewBox="0 0 16 16" fill="none" xmlns="http://www.w3.org/2000/svg"><path d="M6.08579 14.0858L7.29289 15.2929C7.68342 15.6834 8.31658 15.6834 8.70711 15.2929L9.91421 14.0858C10.2893 13.7107 10.798 13.5 11.3284 13.5H14C15.1046 13.5 16 12.6046 16 11.5V2C16 0.895431 15.1046 0 14 0H2C0.895431 0 0 0.89543 0 2V11.5C0 12.6046 0.895431 13.5 2 13.5H4.67157C5.20201 13.5 5.71071 13.7107 6.08579 14.0858Z" fill="#B094FF"></path><circle cx="12.0001" cy="6.66659" r="1.33333" fill="#7856FF"></circle><circle cx="8.00008" cy="6.66659" r="1.33333" fill="#7856FF"></circle><circle cx="4.00008" cy="6.66659" r="1.33333" fill="#7856FF"></circle></svg>