<svg width="16" height="16" viewBox="0 0 16 16" fill="none" xmlns="http://www.w3.org/2000/svg"><path d="M11.9157 0.592901C11.278 0.224711 10.4626 0.44321 10.0944 1.08093L9.44389 2.20759C9.78993 1.57419 9.56859 0.77702 8.94015 0.41419C8.30243 0.0460003 7.48697 0.264501 7.11878 0.902224L3.45173 7.25374L3.45079 7.25319L3.22866 5.4095C3.129 4.58237 2.40946 3.97133 1.57712 4.007C0.68727 4.04514 0.00114492 4.80476 0.0534419 5.69389L0.34757 10.6945C0.412002 11.7899 1.02283 12.7796 1.97315 13.3283L5.49986 15.5C7.41303 16.6046 10.8953 15.4132 11.9999 13.5L15.4838 7.74581C15.852 7.10809 15.6335 6.29263 14.9958 5.92444C14.3589 5.55672 13.5447 5.7742 13.1758 6.41006L14.0463 4.90231C14.4145 4.26458 14.196 3.44913 13.5583 3.08094C12.9261 2.71593 12.1192 2.92751 11.7466 3.55253L12.4038 2.41427C12.772 1.77654 12.5535 0.961091 11.9157 0.592901Z" fill="#B094FF"></path><path d="M9.42773 2.23535L6.76107 6.85415" stroke="#7856FF" stroke-linecap="round"></path><path d="M11.7373 3.5686L9.07064 8.18741" stroke="#7856FF" stroke-linecap="round"></path><path d="M13.2979 6.10181L11.2979 9.56591" stroke="#7856FF" stroke-linecap="round"></path><path d="M3.45117 7.25293L3.5789 8.57034C3.67239 9.53467 4.22585 10.3945 5.0649 10.8789L5.17126 10.9403C6.12784 11.4926 6.45559 12.7158 5.90331 13.6724L5.73664 13.961" stroke="#7856FF" stroke-linecap="round" stroke-linejoin="round"></path></svg>