<svg xmlns="http://www.w3.org/2000/svg" viewBox="0 0 750 540" font-family="-apple-system, BlinkMacSystemFont, 'Segoe UI', Helvetica, Arial, sans-serif">
  <defs>
    <linearGradient id="hGrad6" x1="0%" y1="0%" x2="100%" y2="0%">
      <stop offset="0%" style="stop-color:#7856ff"/>
      <stop offset="100%" style="stop-color:#5f41cf"/>
    </linearGradient>
    <filter id="sh6" x="-2%" y="-2%" width="104%" height="108%">
      <feDropShadow dx="0" dy="2" stdDeviation="4" flood-color="#1f202320"/>
    </filter>
  </defs>

  <!-- Background -->
  <rect width="750" height="540" rx="16" fill="#fafafa"/>

  <!-- Header -->
  <rect width="750" height="56" rx="16" fill="url(#hGrad6)"/>
  <rect y="28" width="750" height="28" fill="url(#hGrad6)"/>
  <text x="375" y="37" text-anchor="middle" fill="white" font-size="22" font-weight="700">Quick Reference: Which Config Do I Use?</text>

  <!-- ===== ROW 1: Maximum Privacy ===== -->
  <rect x="20" y="74" width="710" height="115" rx="12" fill="white" filter="url(#sh6)"/>
  <rect x="20" y="74" width="8" height="115" rx="4" fill="#ef4444"/>

  <rect x="40" y="84" width="180" height="28" rx="6" fill="#fef2f2"/>
  <text x="130" y="103" text-anchor="middle" fill="#dc2626" font-size="14" font-weight="700">Maximum Privacy</text>
  <text x="50" y="130" fill="#1f2023" font-size="13">"Mask everything."</text>
  <text x="50" y="148" fill="#6b7280" font-size="12">Default behavior. No config needed.</text>
  <text x="50" y="174" fill="#6b7280" font-size="12"></text>

  <rect x="240" y="84" width="470" height="90" rx="8" fill="#f9fafb" stroke="#e5e7eb" stroke-width="1"/>
  <text x="258" y="108" fill="#5f41cf" font-size="13" font-weight="600" font-family="monospace">mixpanel.init('TOKEN', {</text>
  <text x="278" y="128" fill="#1f2023" font-size="13" font-family="monospace">record_mask_all_text: true,    <tspan fill="#6b7280">// default</tspan></text>
  <text x="278" y="148" fill="#1f2023" font-size="13" font-family="monospace">record_mask_all_inputs: true   <tspan fill="#6b7280">// default</tspan></text>
  <text x="258" y="168" fill="#5f41cf" font-size="13" font-weight="600" font-family="monospace">});</text>

  <!-- ===== ROW 2: Selective Unmask ===== -->
  <rect x="20" y="204" width="710" height="140" rx="12" fill="white" filter="url(#sh6)"/>
  <rect x="20" y="204" width="8" height="140" rx="4" fill="#22c55e"/>

  <rect x="40" y="214" width="180" height="28" rx="6" fill="#f0fdf4"/>
  <text x="130" y="233" text-anchor="middle" fill="#16a34a" font-size="14" font-weight="700">Selective Unmask</text>
  <text x="50" y="260" fill="#1f2023" font-size="13">"Hide everything EXCEPT</text>
  <text x="50" y="278" fill="#1f2023" font-size="13">these safe areas."</text>
  <text x="50" y="303" fill="#6b7280" font-size="12">Best for privacy-first apps.</text>

  <rect x="240" y="214" width="470" height="115" rx="8" fill="#f9fafb" stroke="#e5e7eb" stroke-width="1"/>
  <text x="258" y="238" fill="#5f41cf" font-size="13" font-weight="600" font-family="monospace">mixpanel.init('TOKEN', {</text>
  <text x="278" y="258" fill="#1f2023" font-size="13" font-family="monospace">record_mask_all_text: true,</text>
  <text x="278" y="278" fill="#16a34a" font-size="13" font-family="monospace" font-weight="600">record_unmask_text_selector:</text>
  <text x="298" y="298" fill="#16a34a" font-size="13" font-family="monospace" font-weight="600">'.safe-content',</text>
  <text x="258" y="318" fill="#5f41cf" font-size="13" font-weight="600" font-family="monospace">});</text>

  <!-- ===== ROW 3: Selective Mask ===== -->
  <rect x="20" y="359" width="710" height="140" rx="12" fill="white" filter="url(#sh6)"/>
  <rect x="20" y="359" width="8" height="140" rx="4" fill="#7856ff"/>

  <rect x="40" y="369" width="180" height="28" rx="6" fill="#f5f3ff"/>
  <text x="130" y="388" text-anchor="middle" fill="#5f41cf" font-size="14" font-weight="700">Selective Mask</text>
  <text x="50" y="415" fill="#1f2023" font-size="13">"Show everything EXCEPT</text>
  <text x="50" y="433" fill="#1f2023" font-size="13">these sensitive areas."</text>
  <text x="50" y="458" fill="#6b7280" font-size="12">Best for mostly-public apps.</text>

  <rect x="240" y="369" width="470" height="115" rx="8" fill="#f9fafb" stroke="#e5e7eb" stroke-width="1"/>
  <text x="258" y="393" fill="#5f41cf" font-size="13" font-weight="600" font-family="monospace">mixpanel.init('TOKEN', {</text>
  <text x="278" y="413" fill="#ef4444" font-size="13" font-family="monospace" font-weight="600">record_mask_all_text: false,</text>
  <text x="278" y="433" fill="#ef4444" font-size="13" font-family="monospace" font-weight="600">record_mask_text_selector:</text>
  <text x="298" y="453" fill="#ef4444" font-size="13" font-family="monospace" font-weight="600">'.pii-data',</text>
  <text x="258" y="473" fill="#5f41cf" font-size="13" font-weight="600" font-family="monospace">});</text>

  <!-- Bottom border -->
  <rect y="533" width="750" height="7" fill="url(#hGrad6)"/>
</svg>
