<svg xmlns="http://www.w3.org/2000/svg" viewBox="0 0 1100 560" font-family="-apple-system, BlinkMacSystemFont, 'Segoe UI', Helvetica, Arial, sans-serif">
  <defs>
    <linearGradient id="hGrad6" x1="0%" y1="0%" x2="100%" y2="0%">
      <stop offset="0%" style="stop-color:#7856ff"/>
      <stop offset="100%" style="stop-color:#5f41cf"/>
    </linearGradient>
    <filter id="sh6" x="-2%" y="-2%" width="104%" height="108%">
      <feDropShadow dx="0" dy="2" stdDeviation="4" flood-color="#1f202320"/>
    </filter>
  </defs>

  <!-- Background -->
  <rect width="1100" height="560" rx="16" fill="#fafafa"/>

  <!-- Header -->
  <rect width="1100" height="60" rx="16" fill="url(#hGrad6)"/>
  <rect y="30" width="1100" height="30" fill="url(#hGrad6)"/>
  <text x="550" y="38" text-anchor="middle" fill="white" font-size="20" font-weight="700">Quick Reference: Which Config Do I Use?</text>

  <!-- ===== ROW 1: Maximum Privacy ===== -->
  <rect x="30" y="80" width="1040" height="120" rx="12" fill="white" filter="url(#sh6)"/>

  <!-- Left: scenario -->
  <rect x="30" y="80" width="8" height="120" rx="4" fill="#ef4444"/>
  <rect x="50" y="90" width="200" height="30" rx="6" fill="#fef2f2"/>
  <text x="150" y="110" text-anchor="middle" fill="#dc2626" font-size="13" font-weight="700">Maximum Privacy</text>
  <text x="60" y="140" fill="#1f2023" font-size="12">"Mask everything."</text>
  <text x="60" y="158" fill="#6b7280" font-size="11">This is the default behavior.</text>
  <text x="60" y="176" fill="#6b7280" font-size="11">No configuration needed.</text>

  <!-- Right: config -->
  <rect x="290" y="95" width="760" height="90" rx="8" fill="#f9fafb" stroke="#e5e7eb" stroke-width="1"/>
  <text x="310" y="118" fill="#5f41cf" font-size="12" font-weight="600" font-family="monospace">mixpanel.init('TOKEN', {</text>
  <text x="330" y="138" fill="#1f2023" font-size="12" font-family="monospace">record_mask_all_text: true,     <tspan fill="#6b7280">// default</tspan></text>
  <text x="330" y="158" fill="#1f2023" font-size="12" font-family="monospace">record_mask_all_inputs: true    <tspan fill="#6b7280">// default</tspan></text>
  <text x="310" y="178" fill="#5f41cf" font-size="12" font-weight="600" font-family="monospace">});</text>

  <!-- ===== ROW 2: Selective Unmask ===== -->
  <rect x="30" y="215" width="1040" height="140" rx="12" fill="white" filter="url(#sh6)"/>

  <rect x="30" y="215" width="8" height="140" rx="4" fill="#22c55e"/>
  <rect x="50" y="225" width="200" height="30" rx="6" fill="#f0fdf4"/>
  <text x="150" y="245" text-anchor="middle" fill="#16a34a" font-size="13" font-weight="700">Selective Unmask</text>
  <text x="60" y="275" fill="#1f2023" font-size="12">"Hide everything EXCEPT</text>
  <text x="60" y="293" fill="#1f2023" font-size="12">these safe areas."</text>
  <text x="60" y="318" fill="#6b7280" font-size="11">Best for privacy-first apps</text>
  <text x="60" y="335" fill="#6b7280" font-size="11">where most content is sensitive.</text>

  <rect x="290" y="225" width="760" height="115" rx="8" fill="#f9fafb" stroke="#e5e7eb" stroke-width="1"/>
  <text x="310" y="248" fill="#5f41cf" font-size="12" font-weight="600" font-family="monospace">mixpanel.init('TOKEN', {</text>
  <text x="330" y="268" fill="#1f2023" font-size="12" font-family="monospace">record_mask_all_text: true,</text>
  <text x="330" y="288" fill="#16a34a" font-size="12" font-family="monospace" font-weight="600">record_unmask_text_selector: '.safe-content',</text>
  <text x="330" y="308" fill="#16a34a" font-size="12" font-family="monospace" font-weight="600">record_unmask_input_selector: '#search-box'</text>
  <text x="310" y="328" fill="#5f41cf" font-size="12" font-weight="600" font-family="monospace">});</text>

  <!-- ===== ROW 3: Selective Mask ===== -->
  <rect x="30" y="370" width="1040" height="140" rx="12" fill="white" filter="url(#sh6)"/>

  <rect x="30" y="370" width="8" height="140" rx="4" fill="#7856ff"/>
  <rect x="50" y="380" width="200" height="30" rx="6" fill="#f5f3ff"/>
  <text x="150" y="400" text-anchor="middle" fill="#5f41cf" font-size="13" font-weight="700">Selective Mask</text>
  <text x="60" y="430" fill="#1f2023" font-size="12">"Show everything EXCEPT</text>
  <text x="60" y="448" fill="#1f2023" font-size="12">these sensitive areas."</text>
  <text x="60" y="473" fill="#6b7280" font-size="11">Best for mostly-public apps</text>
  <text x="60" y="490" fill="#6b7280" font-size="11">with a few sensitive sections.</text>

  <rect x="290" y="380" width="760" height="115" rx="8" fill="#f9fafb" stroke="#e5e7eb" stroke-width="1"/>
  <text x="310" y="403" fill="#5f41cf" font-size="12" font-weight="600" font-family="monospace">mixpanel.init('TOKEN', {</text>
  <text x="330" y="423" fill="#ef4444" font-size="12" font-family="monospace" font-weight="600">record_mask_all_text: false,</text>
  <text x="330" y="443" fill="#ef4444" font-size="12" font-family="monospace" font-weight="600">record_mask_text_selector: '.pii-data',</text>
  <text x="330" y="463" fill="#ef4444" font-size="12" font-family="monospace" font-weight="600">record_mask_all_inputs: false,</text>
  <text x="330" y="483" fill="#ef4444" font-size="12" font-family="monospace" font-weight="600">record_mask_input_selector: '.pii-data input'</text>
  <text x="310" y="485" fill="#5f41cf" font-size="12" font-weight="600" font-family="monospace">});</text>

  <!-- Bottom border -->
  <rect y="553" width="1100" height="7" fill="url(#hGrad6)"/>
</svg>
