<svg width="278" height="106" viewBox="0 0 278 106" fill="none" xmlns="http://www.w3.org/2000/svg">
<g filter="url(#filter0_dd)">
<rect x="8" y="5" width="262" height="90.4185" rx="14.2391" fill="white"/>
<rect x="8" y="5" width="262" height="90.4185" rx="14.2391" stroke="white" stroke-width="0.711957"/>
</g>
<circle opacity="0.4" cx="48.9375" cy="53.0576" r="23.8505" fill="#F8BC3B"/>
<path d="M92.1411 32.0874H96.343V30.9768H93.3443V29.1905H95.7877V28.0798H93.3443V26.7193H96.2505V25.6086H92.1411V32.0874ZM100.176 32.0874H101.49L103.6 25.6086H102.323L100.833 30.3937L99.3429 25.6086H98.0656L100.176 32.0874ZM105.471 32.0874H109.673V30.9768H106.674V29.1905H109.118V28.0798H106.674V26.7193H109.58V25.6086H105.471V32.0874ZM111.951 32.0874H113.062V27.941L115.255 32.0874H116.366V25.6086H115.255V29.7735L113.062 25.6086H111.951V32.0874ZM120.226 32.0874H121.43V26.7193H123.253V25.6086H118.403V26.7193H120.226V32.0874Z" fill="#8F8F91"/>
<path d="M121.03 59.8696H123.067V55.578H125.165C127.484 55.578 128.596 54.1526 128.596 52.2417C128.596 50.3308 127.484 48.9055 125.165 48.9055H121.03V59.8696ZM123.067 53.6984V50.7851H125.087C125.98 50.7851 126.528 51.2393 126.528 52.2417C126.528 53.2442 125.98 53.6984 125.087 53.6984H123.067ZM132.525 59.9949C133.543 59.9949 134.389 59.4311 134.968 58.6009V59.8696H136.911V51.9755H134.968V55.1237C134.968 57.2069 134.107 58.3347 133.167 58.3347C132.509 58.3347 132.039 57.9744 132.039 57.0346V51.9755H130.097V57.6142C130.097 59.1961 131.115 59.9949 132.525 59.9949ZM139.107 59.8696H141.049V57.0659C141.049 54.5129 142.036 53.5887 143.163 53.5887C143.492 53.5887 143.743 53.6671 143.978 53.808L144.338 52.0068C144.025 51.9128 143.727 51.8502 143.383 51.8502C142.49 51.8502 141.613 52.3357 141.049 53.2598V51.9755H139.107V59.8696ZM148.685 59.9949C150.44 59.9949 151.677 59.2274 152.272 57.7395L150.534 57.0346C150.126 57.8648 149.562 58.3347 148.685 58.3347C147.464 58.3347 146.868 57.3166 146.868 55.9225C146.868 54.5285 147.464 53.5104 148.685 53.5104C149.562 53.5104 150.126 53.9803 150.534 54.8105L152.272 54.1056C151.677 52.6176 150.44 51.8502 148.685 51.8502C146.117 51.8502 144.832 53.6984 144.832 55.9225C144.832 58.1467 146.117 59.9949 148.685 59.9949ZM153.837 59.8696H155.779V56.5334C155.779 54.4032 156.734 53.5104 157.627 53.5104C158.426 53.5104 158.802 53.9647 158.802 54.9201V59.8696H160.744V54.2309C160.744 52.6176 159.773 51.8502 158.285 51.8502C157.141 51.8502 156.28 52.4453 155.779 53.2442V48.7802H153.837V59.8696ZM164.682 59.9949C165.81 59.9949 166.562 59.5407 167.11 58.8672L167.313 59.8696H168.911V55.1551C168.911 52.9466 167.674 51.8502 165.591 51.8502C164.009 51.8502 162.834 52.7429 162.583 54.043L164.228 54.4189C164.478 53.761 164.964 53.5104 165.591 53.5104C166.311 53.5104 166.969 53.8394 166.969 54.6695V55.0141H165.591C163.57 55.0141 162.286 56.0322 162.286 57.5985C162.286 59.1648 163.335 59.9949 164.682 59.9949ZM165.199 58.3347C164.682 58.3347 164.322 58.0214 164.322 57.5672C164.322 56.8623 164.839 56.5491 165.669 56.5491H166.969V56.7057C166.969 57.7238 166.076 58.3347 165.199 58.3347ZM173.368 59.9949C174.935 59.9949 176.062 58.9925 176.062 57.4419C176.062 56.2671 175.264 55.6249 174.136 55.2177C172.805 54.7322 172.523 54.4502 172.523 54.1056C172.523 53.7297 172.899 53.5104 173.29 53.5104C173.776 53.5104 174.214 53.6984 174.559 54.1996L175.718 53.1345C175.232 52.32 174.308 51.8502 173.243 51.8502C171.786 51.8502 170.753 52.8369 170.753 54.0586C170.753 55.2804 171.536 55.9382 172.632 56.3768C173.462 56.7057 174.261 57.0346 174.261 57.5672C174.261 58.0997 173.807 58.3347 173.353 58.3347C172.585 58.3347 172.068 57.8021 171.786 57.0346L170.236 57.8648C170.549 58.9142 171.614 59.9949 173.368 59.9949ZM184.532 55.7502C184.532 54.0273 183.483 51.8502 180.851 51.8502C178.142 51.8502 177.061 54.0586 177.061 55.9225C177.061 57.7864 178.142 59.9949 180.851 59.9949C182.762 59.9949 183.827 59.0865 184.438 57.6925L182.872 57.1129C182.402 57.9274 181.854 58.3347 180.961 58.3347C179.974 58.3347 179.254 57.7551 179.081 56.5491H184.532V55.7502ZM179.128 55.0141C179.379 54.0273 180.021 53.5104 180.851 53.5104C181.885 53.5104 182.371 54.2309 182.543 55.0141H179.128ZM189.287 59.9949C190.414 59.9949 191.135 59.4624 191.354 59.0552V59.525V59.8696H193.296V48.7802H191.354V52.2261V52.696C191.009 52.2574 190.242 51.8502 189.287 51.8502C187.062 51.8502 185.841 53.4948 185.841 55.9225C185.841 58.3503 187.062 59.9949 189.287 59.9949ZM189.709 58.3347C188.691 58.3347 187.877 57.4888 187.877 55.9225C187.877 54.3562 188.691 53.5104 189.709 53.5104C190.728 53.5104 191.526 54.3562 191.526 55.9225C191.526 57.4888 190.728 58.3347 189.709 58.3347ZM200.344 50.9574C201.064 50.9574 201.597 50.4092 201.597 49.7043C201.597 48.9995 201.064 48.4513 200.344 48.4513C199.623 48.4513 199.091 48.9995 199.091 49.7043C199.091 50.4092 199.623 50.9574 200.344 50.9574ZM199.373 59.8696H201.315V51.9755H199.373V59.8696ZM206.666 59.9949C207.089 59.9949 207.512 59.9166 207.951 59.713L207.496 58.1467C207.23 58.2877 207.011 58.3347 206.745 58.3347C206.087 58.3347 205.711 58.0214 205.711 57.0503V53.6357H207.794V51.9755H205.711V48.7802L203.769 50.0019V51.9755H202.547V53.6357H203.769V57.0816C203.769 59.0395 204.881 59.9949 206.666 59.9949ZM215.95 55.7502C215.95 54.0273 214.9 51.8502 212.269 51.8502C209.559 51.8502 208.479 54.0586 208.479 55.9225C208.479 57.7864 209.559 59.9949 212.269 59.9949C214.18 59.9949 215.245 59.0865 215.856 57.6925L214.29 57.1129C213.82 57.9274 213.272 58.3347 212.379 58.3347C211.392 58.3347 210.671 57.7551 210.499 56.5491H215.95V55.7502ZM210.546 55.0141C210.797 54.0273 211.439 53.5104 212.269 53.5104C213.303 53.5104 213.788 54.2309 213.961 55.0141H210.546ZM217.697 59.8696H219.639V56.972C219.639 54.6225 220.391 53.5104 221.347 53.5104C221.926 53.5104 222.318 53.808 222.318 54.6068V59.8696H224.26V56.7997C224.26 54.5755 225.027 53.5104 225.967 53.5104C226.547 53.5104 226.938 53.808 226.938 54.6068V59.8696H228.88V54.2779C228.88 52.7586 228.003 51.8502 226.531 51.8502C225.56 51.8502 224.683 52.461 224.119 53.4791C223.774 52.3357 222.882 51.8502 221.91 51.8502C220.892 51.8502 220.219 52.367 219.639 53.2442V51.9755H217.697V59.8696Z" fill="#626266"/>
<path fill-rule="evenodd" clip-rule="evenodd" d="M95.8732 46.5969C96.119 46.3511 96.4524 46.213 96.8 46.213H110.004C110.351 46.213 110.685 46.3511 110.93 46.5969C111.176 46.8427 111.314 47.176 111.314 47.5236V52.662C111.314 53.1535 111.713 53.552 112.204 53.552C112.696 53.552 113.094 53.1535 113.094 52.662V47.5236C113.094 46.704 112.768 45.9179 112.189 45.3383C111.609 44.7587 110.823 44.4331 110.004 44.4331H96.8C95.9803 44.4331 95.1943 44.7587 94.6147 45.3383C94.0351 45.9179 93.7095 46.704 93.7095 47.5236V60.7272C93.7095 61.5469 94.0351 62.333 94.6147 62.9125C95.1943 63.4921 95.9803 63.8177 96.8 63.8177H101.938C102.43 63.8177 102.828 63.4193 102.828 62.9278C102.828 62.4363 102.43 62.0378 101.938 62.0378H96.8C96.4524 62.0378 96.119 61.8998 95.8732 61.654C95.6274 61.4082 95.4894 61.0748 95.4894 60.7272V47.5236C95.4894 47.176 95.6274 46.8427 95.8732 46.5969ZM101.975 49.0407C102.817 48.8041 103.704 48.7799 104.557 48.97C105.41 49.1602 106.203 49.5588 106.865 50.1304C107.527 50.7019 108.036 51.4285 108.349 52.2451C108.524 52.7042 108.294 53.2187 107.835 53.3942C107.376 53.5697 106.862 53.3398 106.686 52.8807C106.479 52.3388 106.141 51.8566 105.702 51.4773C105.262 51.0981 104.736 50.8335 104.17 50.7073C103.604 50.5811 103.015 50.5972 102.456 50.7542C101.898 50.9111 101.387 51.2041 100.969 51.6068C100.551 52.0095 100.24 52.5094 100.063 53.0619C99.8856 53.6143 99.848 54.2021 99.9535 54.7726C100.059 55.3431 100.304 55.8787 100.667 56.3313C101.03 56.7839 101.5 57.1395 102.034 57.3663C102.486 57.5584 102.697 58.0809 102.505 58.5333C102.313 58.9857 101.79 59.1967 101.338 59.0046C100.533 58.6628 99.8256 58.1269 99.2786 57.4448C98.7316 56.7628 98.3621 55.9558 98.2032 55.0961C98.0443 54.2364 98.101 53.3506 98.3681 52.5181C98.6351 51.6856 99.1044 50.9323 99.7338 50.3254C100.363 49.7186 101.133 49.2772 101.975 49.0407ZM102.773 53.4959C103.011 53.2575 103.364 53.1743 103.684 53.281L112.486 56.2188C112.849 56.3401 113.094 56.6804 113.094 57.0635C113.094 57.4466 112.849 57.7866 112.485 57.9075L108.507 59.2302L107.184 63.2083C107.063 63.5719 106.723 63.8173 106.34 63.8175C105.957 63.8177 105.617 63.5727 105.495 63.2093L102.558 54.4069C102.451 54.0871 102.534 53.7343 102.773 53.4959ZM104.81 55.5334L106.338 60.1117L106.959 58.2456C107.047 57.9793 107.256 57.7704 107.522 57.6819L109.388 57.0614L104.81 55.5334Z" fill="#2A2A2F"/>
<path d="M35.7661 43.4932H60.5421V53.1283C60.5421 59.97 54.9958 65.5163 48.1541 65.5163V65.5163C41.3124 65.5163 35.7661 59.97 35.7661 53.1283V43.4932Z" stroke="#2A2A2F" stroke-width="2.49185" stroke-linecap="round" stroke-linejoin="round"/>
<line x1="37.012" y1="49.1291" x2="53.7904" y2="49.1291" stroke="#2A2A2F" stroke-width="2.49185" stroke-linecap="round" stroke-linejoin="round"/>
<path d="M35.7661 65.5161H60.5421" stroke="#2A2A2F" stroke-width="2.49185" stroke-linecap="round" stroke-linejoin="round"/>
<path d="M60.5422 43.4932H62.9603C65.4258 43.4932 67.4245 45.4918 67.4245 47.9573C67.4245 50.4228 65.4258 52.4215 62.9603 52.4215H60.5422" stroke="#2A2A2F" stroke-width="2.49185" stroke-linecap="round" stroke-linejoin="round"/>
<path d="M45.4014 32.481C47.0052 33.2824 48.1543 35.4448 48.1543 37.9867" stroke="#2A2A2F" stroke-width="2.49185" stroke-linecap="round" stroke-linejoin="round"/>
<path d="M45.4014 32.481C43.7975 31.6795 42.6485 29.5171 42.6485 26.9752" stroke="#2A2A2F" stroke-width="2.49185" stroke-linecap="round" stroke-linejoin="round"/>
<path d="M50.907 29.7285C49.3032 28.9271 48.1541 26.7646 48.1541 24.2227" stroke="#2A2A2F" stroke-width="2.49185" stroke-linecap="round" stroke-linejoin="round"/>
<defs>
<filter id="filter0_dd" x="0.524478" y="0.372304" width="276.951" height="105.37" filterUnits="userSpaceOnUse" color-interpolation-filters="sRGB">
<feFlood flood-opacity="0" result="BackgroundImageFix"/>
<feColorMatrix in="SourceAlpha" type="matrix" values="0 0 0 0 0 0 0 0 0 0 0 0 0 0 0 0 0 0 127 0"/>
<feOffset dy="2.84783"/>
<feGaussianBlur stdDeviation="3.55978"/>
<feColorMatrix type="matrix" values="0 0 0 0 0.215686 0 0 0 0 0.219608 0 0 0 0 0.235294 0 0 0 0.16 0"/>
<feBlend mode="normal" in2="BackgroundImageFix" result="effect1_dropShadow"/>
<feColorMatrix in="SourceAlpha" type="matrix" values="0 0 0 0 0 0 0 0 0 0 0 0 0 0 0 0 0 0 127 0"/>
<feOffset/>
<feGaussianBlur stdDeviation="0.711957"/>
<feColorMatrix type="matrix" values="0 0 0 0 0.215686 0 0 0 0 0.219608 0 0 0 0 0.235294 0 0 0 0.48 0"/>
<feBlend mode="normal" in2="effect1_dropShadow" result="effect2_dropShadow"/>
<feBlend mode="normal" in="SourceGraphic" in2="effect2_dropShadow" result="shape"/>
</filter>
</defs>
</svg>
