<svg width="370" height="260" viewBox="0 0 370 260" fill="none" xmlns="http://www.w3.org/2000/svg">
<rect x="1" y="1" width="368" height="258" rx="20" fill="white" stroke="white"/>
<circle cx="58.5" cy="68.5" r="33.5" fill="#DDF1FD"/>
<path d="M119.183 39H125.085V37.44H120.873V34.931H124.305V33.371H120.873V31.46H124.955V29.9H119.183V39ZM130.469 39H132.315L135.279 29.9H133.485L131.392 36.621L129.299 29.9H127.505L130.469 39ZM137.906 39H143.808V37.44H139.596V34.931H143.028V33.371H139.596V31.46H143.678V29.9H137.906V39ZM147.008 39H148.568V33.176L151.649 39H153.209V29.9H151.649V35.75L148.568 29.9H147.008V39ZM158.631 39H160.321V31.46H162.882V29.9H156.07V31.46H158.631V39Z" fill="#8F8F91"/>
<path d="M57 124.75C57 123.784 57.7835 123 58.75 123C59.7165 123 60.5 123.784 60.5 124.75V199.25C60.5 200.216 59.7165 201 58.75 201C57.7835 201 57 200.216 57 199.25V124.75Z" fill="#E9E9E9"/>
<path d="M57 207.75C57 206.784 57.7835 206 58.75 206C59.7165 206 60.5 206.784 60.5 207.75V210.25C60.5 211.216 59.7165 212 58.75 212C57.7835 212 57 211.216 57 210.25V207.75Z" fill="#E9E9E9"/>
<path d="M57 219.75C57 218.784 57.7835 218 58.75 218C59.7165 218 60.5 218.784 60.5 219.75V222.25C60.5 223.216 59.7165 224 58.75 224C57.7835 224 57 223.216 57 222.25V219.75Z" fill="#E9E9E9"/>
<rect opacity="0.5" x="242" y="148" width="80" height="30" rx="4.05599" fill="#DDF1FD"/>
<path d="M257.184 171.176C260.418 171.176 262.662 169.46 263.388 166.6L261.166 166.006C260.572 167.744 259.384 168.91 257.184 168.91C254.61 168.91 252.542 167.062 252.542 163.3C252.542 159.538 254.61 157.69 257.184 157.69C259.384 157.69 260.572 158.856 261.166 160.594L263.388 160C262.662 157.14 260.418 155.424 257.184 155.424C253.466 155.424 250.056 158.086 250.056 163.3C250.056 168.514 253.444 171.176 257.184 171.176ZM270.851 171.176C274.305 171.176 276.351 168.58 276.351 165.456C276.351 162.332 274.305 159.736 270.851 159.736C267.375 159.736 265.351 162.332 265.351 165.456C265.351 168.58 267.375 171.176 270.851 171.176ZM270.851 169.152C268.871 169.152 267.771 167.392 267.771 165.456C267.771 163.52 268.871 161.76 270.851 161.76C272.831 161.76 273.909 163.52 273.909 165.456C273.909 167.392 272.831 169.152 270.851 169.152ZM279.054 171H281.364V161.936H285.434V171H287.766V161.936H290.186V159.912H287.766V159.098C287.766 157.932 288.316 157.448 289.218 157.448C289.702 157.448 290.076 157.558 290.494 157.734L291 155.82C290.56 155.578 289.922 155.424 289.152 155.424C286.908 155.424 285.434 156.634 285.434 159.296V159.912H281.364V159.098C281.364 157.932 281.936 157.448 282.838 157.448C283.322 157.448 283.696 157.558 284.092 157.734L284.598 155.82C284.18 155.578 283.52 155.424 282.75 155.424C280.506 155.424 279.054 156.634 279.054 159.296V159.912H277.536V161.936H279.054V171ZM301.642 165.104C301.642 162.486 300.014 159.736 296.56 159.736C293.018 159.736 291.368 162.64 291.368 165.456C291.368 168.25 293.018 171.176 296.56 171.176C299.068 171.176 300.542 170.054 301.488 167.986L299.574 167.238C298.87 168.536 298.056 169.152 296.67 169.152C295.02 169.152 293.942 168.008 293.744 166.072H301.642V165.104ZM293.854 164.18C294.206 162.574 295.284 161.76 296.56 161.76C298.188 161.76 299.024 162.838 299.266 164.18H293.854ZM313.846 165.104C313.846 162.486 312.218 159.736 308.764 159.736C305.222 159.736 303.572 162.64 303.572 165.456C303.572 168.25 305.222 171.176 308.764 171.176C311.272 171.176 312.746 170.054 313.692 167.986L311.778 167.238C311.074 168.536 310.26 169.152 308.874 169.152C307.224 169.152 306.146 168.008 305.948 166.072H313.846V165.104ZM306.058 164.18C306.41 162.574 307.488 161.76 308.764 161.76C310.392 161.76 311.228 162.838 311.47 164.18H306.058Z" fill="#2A2A2F"/>
<path d="M170.507 171.176C171.101 171.176 171.695 171.066 172.311 170.78L171.673 168.58C171.299 168.778 170.991 168.844 170.617 168.844C169.693 168.844 169.165 168.404 169.165 167.04V162.244H172.091V159.912H169.165V155.424L166.437 157.14V159.912H164.721V162.244H166.437V167.084C166.437 169.834 167.999 171.176 170.507 171.176ZM180.845 159.912L178.381 166.732L175.851 159.912H173.101L177.105 170.252L175.213 175.488H177.853L183.573 159.912H180.845ZM185.335 175.488H188.063V170.648V169.988C188.547 170.604 189.625 171.176 190.747 171.176C194.091 171.176 195.807 168.866 195.807 165.456C195.807 162.046 194.091 159.736 190.747 159.736C189.383 159.736 188.371 160.484 188.063 161.056V160.396V159.912H185.335V175.488ZM190.373 168.844C188.943 168.844 187.821 167.656 187.821 165.456C187.821 163.256 188.943 162.068 190.373 162.068C191.803 162.068 192.947 163.256 192.947 165.456C192.947 167.656 191.803 168.844 190.373 168.844ZM208.147 165.214C208.147 162.794 206.673 159.736 202.977 159.736C199.171 159.736 197.653 162.838 197.653 165.456C197.653 168.074 199.171 171.176 202.977 171.176C205.661 171.176 207.157 169.9 208.015 167.942L205.815 167.128C205.155 168.272 204.385 168.844 203.131 168.844C201.745 168.844 200.733 168.03 200.491 166.336H208.147V165.214ZM200.557 164.18C200.909 162.794 201.811 162.068 202.977 162.068C204.429 162.068 205.111 163.08 205.353 164.18H200.557ZM215.948 163.388H225.562V161.012H215.948V163.388ZM215.948 167.348H225.562V164.972H215.948V167.348Z" fill="#8F8F91"/>
<path d="M125.727 157.364L130.364 157.364" stroke="#8F8F91" stroke-width="2.5" stroke-linecap="round" stroke-linejoin="round"/>
<path d="M127.273 162H130.364" stroke="#8F8F91" stroke-width="2.57724" stroke-linecap="round" stroke-linejoin="round"/>
<path d="M124.182 166.636L130.364 166.636" stroke="#8F8F91" stroke-width="2.57724" stroke-linecap="round" stroke-linejoin="round"/>
<path d="M141.182 162L139.126 168.182L135 155.818L147.364 159.945L141.182 162Z" stroke="#8F8F91" stroke-width="2.57724" stroke-linecap="round" stroke-linejoin="round"/>
<path d="M125.727 208.364L130.364 208.364" stroke="#8F8F91" stroke-width="2.5" stroke-linecap="round" stroke-linejoin="round"/>
<path d="M127.273 213H130.364" stroke="#8F8F91" stroke-width="2.57724" stroke-linecap="round" stroke-linejoin="round"/>
<path d="M124.182 217.636L130.364 217.636" stroke="#8F8F91" stroke-width="2.57724" stroke-linecap="round" stroke-linejoin="round"/>
<path d="M141.182 213L139.126 219.182L135 206.818L147.364 210.945L141.182 213Z" stroke="#8F8F91" stroke-width="2.57724" stroke-linecap="round" stroke-linejoin="round"/>
<rect opacity="0.5" x="242" y="195" width="68" height="32" rx="4.05599" fill="#DDF1FD"/>
<path d="M259.67 214.622C259.67 212.092 258.02 210.992 256.15 210.134C254.522 209.408 253.026 208.726 253.026 207.296C253.026 206.416 253.774 205.69 254.786 205.69C255.688 205.69 256.502 206.086 256.986 207.34L258.944 206.086C258.394 204.788 257.492 203.908 256.084 203.556V201.62H253.818V203.512C251.948 203.908 250.672 205.426 250.672 207.384C250.672 209.65 252.124 210.816 253.73 211.608C255.556 212.51 257.206 213.192 257.206 214.732C257.206 216.25 256.238 216.91 254.984 216.91C253.158 216.91 252.212 215.436 251.772 213.676L249.77 214.908C250.166 216.91 251.662 218.626 253.818 219.066V220.98H256.084V219.066C258.218 218.626 259.67 216.976 259.67 214.622ZM261.153 219H270.745V216.844H264.871L268.897 211.586C269.887 210.31 270.393 209.078 270.393 207.78C270.393 205.162 268.677 203.424 265.927 203.424C263.419 203.424 261.593 205.162 261.417 207.516L263.595 207.934C263.793 206.482 264.629 205.58 265.883 205.58C267.269 205.58 268.039 206.438 268.039 207.846C268.039 208.836 267.753 209.584 266.675 210.926L261.153 218.076V219ZM274.526 219.11C275.472 219.11 276.176 218.406 276.176 217.482C276.176 216.536 275.472 215.854 274.526 215.854C273.602 215.854 272.92 216.536 272.92 217.482C272.92 218.406 273.602 219.11 274.526 219.11ZM283.166 219.176C286.18 219.176 288.116 216.998 288.116 213.918C288.116 210.838 286.532 208.792 283.496 208.792C282.506 208.792 281.67 209.1 281.076 209.518L281.472 205.756H287.214V203.6H279.514L278.678 212.158L280.196 212.466C280.878 211.564 281.89 210.86 283.122 210.86C284.772 210.86 285.74 211.938 285.74 213.918C285.74 215.854 284.86 217.02 283.166 217.02C281.802 217.02 280.878 216.272 280.57 214.556L278.348 214.974C278.634 217.614 280.592 219.176 283.166 219.176ZM295.542 219.176C299.172 219.176 301.108 216.162 301.108 211.3C301.108 206.438 299.172 203.424 295.542 203.424C291.912 203.424 289.976 206.438 289.976 211.3C289.976 216.162 291.912 219.176 295.542 219.176ZM295.542 217.02C293.364 217.02 292.308 214.864 292.308 211.3C292.308 207.736 293.364 205.58 295.542 205.58C297.698 205.58 298.776 207.736 298.776 211.3C298.776 214.864 297.698 217.02 295.542 217.02Z" fill="#2A2A2F"/>
<path d="M166.243 223.488H168.971V218.648V217.988C169.455 218.604 170.533 219.176 171.655 219.176C174.999 219.176 176.715 216.866 176.715 213.456C176.715 210.046 174.999 207.736 171.655 207.736C170.291 207.736 169.279 208.484 168.971 209.056V208.396V207.912H166.243V223.488ZM171.281 216.844C169.851 216.844 168.729 215.656 168.729 213.456C168.729 211.256 169.851 210.068 171.281 210.068C172.711 210.068 173.855 211.256 173.855 213.456C173.855 215.656 172.711 216.844 171.281 216.844ZM179.177 219H181.905V215.062C181.905 211.476 183.291 210.178 184.875 210.178C185.337 210.178 185.689 210.288 186.019 210.486L186.525 207.956C186.085 207.824 185.667 207.736 185.183 207.736C183.929 207.736 182.697 208.418 181.905 209.716V207.912H179.177V219ZM189.715 206.482C190.727 206.482 191.475 205.712 191.475 204.722C191.475 203.732 190.727 202.962 189.715 202.962C188.703 202.962 187.955 203.732 187.955 204.722C187.955 205.712 188.703 206.482 189.715 206.482ZM188.351 219H191.079V207.912H188.351V219ZM198.904 219.176C201.368 219.176 203.106 218.098 203.942 216.008L201.5 215.018C200.928 216.184 200.136 216.844 198.904 216.844C197.188 216.844 196.352 215.414 196.352 213.456C196.352 211.498 197.188 210.068 198.904 210.068C200.136 210.068 200.928 210.728 201.5 211.894L203.942 210.904C203.106 208.814 201.368 207.736 198.904 207.736C195.296 207.736 193.492 210.332 193.492 213.456C193.492 216.58 195.296 219.176 198.904 219.176ZM216.147 213.214C216.147 210.794 214.673 207.736 210.977 207.736C207.171 207.736 205.653 210.838 205.653 213.456C205.653 216.074 207.171 219.176 210.977 219.176C213.661 219.176 215.157 217.9 216.015 215.942L213.815 215.128C213.155 216.272 212.385 216.844 211.131 216.844C209.745 216.844 208.733 216.03 208.491 214.336H216.147V213.214ZM208.557 212.18C208.909 210.794 209.811 210.068 210.977 210.068C212.429 210.068 213.111 211.08 213.353 212.18H208.557ZM223.948 211.388H233.562V209.012H223.948V211.388ZM223.948 215.348H233.562V212.972H223.948V215.348Z" fill="#8F8F91"/>
<path d="M119.183 131H125.085V129.44H120.873V126.931H124.305V125.371H120.873V123.46H124.955V121.9H119.183V131ZM130.469 131H132.315L135.279 121.9H133.485L131.392 128.621L129.299 121.9H127.505L130.469 131ZM137.906 131H143.808V129.44H139.596V126.931H143.028V125.371H139.596V123.46H143.678V121.9H137.906V131ZM147.008 131H148.568V125.176L151.649 131H153.209V121.9H151.649V127.75L148.568 121.9H147.008V131ZM158.631 131H160.321V123.46H162.882V121.9H156.07V123.46H158.631V131ZM175.456 131H177.146V127.438H178.758C180.682 127.438 181.605 126.255 181.605 124.669C181.605 123.083 180.682 121.9 178.758 121.9H175.456V131ZM177.146 125.878V123.46H178.693C179.434 123.46 179.889 123.837 179.889 124.669C179.889 125.501 179.434 125.878 178.693 125.878H177.146ZM184.441 131H186.131V127.074H187.015L189.459 131H191.344L188.822 126.931C189.927 126.593 190.525 125.683 190.525 124.487C190.525 122.979 189.576 121.9 187.756 121.9H184.441V131ZM186.131 125.514V123.46H187.769C188.38 123.46 188.835 123.746 188.835 124.487C188.835 125.228 188.38 125.514 187.769 125.514H186.131ZM196.922 131.104C198.898 131.104 200.458 129.57 200.458 126.45C200.458 123.33 198.898 121.796 196.922 121.796C194.946 121.796 193.386 123.33 193.386 126.45C193.386 129.57 194.946 131.104 196.922 131.104ZM196.922 129.544C195.921 129.544 195.076 128.738 195.076 126.45C195.076 124.162 195.921 123.356 196.922 123.356C197.923 123.356 198.768 124.162 198.768 126.45C198.768 128.738 197.923 129.544 196.922 129.544ZM203.541 131H205.231V127.438H206.843C208.767 127.438 209.69 126.255 209.69 124.669C209.69 123.083 208.767 121.9 206.843 121.9H203.541V131ZM205.231 125.878V123.46H206.778C207.519 123.46 207.974 123.837 207.974 124.669C207.974 125.501 207.519 125.878 206.778 125.878H205.231ZM212.798 131H218.7V129.44H214.488V126.931H217.92V125.371H214.488V123.46H218.57V121.9H212.798V131ZM221.887 131H223.577V127.074H224.461L226.905 131H228.79L226.268 126.931C227.373 126.593 227.971 125.683 227.971 124.487C227.971 122.979 227.022 121.9 225.202 121.9H221.887V131ZM223.577 125.514V123.46H225.215C225.826 123.46 226.281 123.746 226.281 124.487C226.281 125.228 225.826 125.514 225.215 125.514H223.577ZM233.523 131H235.213V123.46H237.774V121.9H230.962V123.46H233.523V131ZM240.961 131H246.499V129.44H244.575V123.46H246.499V121.9H240.961V123.46H242.885V129.44H240.961V131ZM250.244 131H256.146V129.44H251.934V126.931H255.366V125.371H251.934V123.46H256.016V121.9H250.244V131ZM262.531 131.104C264.299 131.104 265.599 130.194 265.599 128.296C265.599 126.658 264.481 126.034 263.09 125.67C261.881 125.358 261.361 125.059 261.361 124.344C261.361 123.681 261.92 123.356 262.544 123.356C263.155 123.356 263.74 123.655 264.026 124.435L265.391 123.746C265.027 122.667 264.13 121.796 262.544 121.796C260.802 121.796 259.671 122.81 259.671 124.305C259.671 125.709 260.464 126.45 261.92 126.918C263.324 127.373 263.909 127.594 263.909 128.361C263.909 129.128 263.389 129.544 262.583 129.544C261.283 129.544 260.763 128.699 260.581 127.867L259.086 128.426C259.437 130.207 260.815 131.104 262.531 131.104Z" fill="#8F8F91"/>
<path d="M159.76 78H162.62V71.972H165.568C168.824 71.972 170.386 69.97 170.386 67.286C170.386 64.602 168.824 62.6 165.568 62.6H159.76V78ZM162.62 69.332V65.24H165.458C166.712 65.24 167.482 65.878 167.482 67.286C167.482 68.694 166.712 69.332 165.458 69.332H162.62ZM175.905 78.176C177.335 78.176 178.523 77.384 179.337 76.218V78H182.065V66.912H179.337V71.334C179.337 74.26 178.127 75.844 176.807 75.844C175.883 75.844 175.223 75.338 175.223 74.018V66.912H172.495V74.832C172.495 77.054 173.925 78.176 175.905 78.176ZM185.149 78H187.877V74.062C187.877 70.476 189.263 69.178 190.847 69.178C191.309 69.178 191.661 69.288 191.991 69.486L192.497 66.956C192.057 66.824 191.639 66.736 191.155 66.736C189.901 66.736 188.669 67.418 187.877 68.716V66.912H185.149V78ZM198.604 78.176C201.068 78.176 202.806 77.098 203.642 75.008L201.2 74.018C200.628 75.184 199.836 75.844 198.604 75.844C196.888 75.844 196.052 74.414 196.052 72.456C196.052 70.498 196.888 69.068 198.604 69.068C199.836 69.068 200.628 69.728 201.2 70.894L203.642 69.904C202.806 67.814 201.068 66.736 198.604 66.736C194.996 66.736 193.192 69.332 193.192 72.456C193.192 75.58 194.996 78.176 198.604 78.176ZM205.839 78H208.567V73.314C208.567 70.322 209.909 69.068 211.163 69.068C212.285 69.068 212.813 69.706 212.813 71.048V78H215.541V70.08C215.541 67.814 214.177 66.736 212.087 66.736C210.481 66.736 209.271 67.572 208.567 68.694V62.424H205.839V78ZM221.072 78.176C222.656 78.176 223.712 77.538 224.482 76.592L224.768 78H227.012V71.378C227.012 68.276 225.274 66.736 222.348 66.736C220.126 66.736 218.476 67.99 218.124 69.816L220.434 70.344C220.786 69.42 221.468 69.068 222.348 69.068C223.36 69.068 224.284 69.53 224.284 70.696V71.18H222.348C219.51 71.18 217.706 72.61 217.706 74.81C217.706 77.01 219.18 78.176 221.072 78.176ZM221.798 75.844C221.072 75.844 220.566 75.404 220.566 74.766C220.566 73.776 221.292 73.336 222.458 73.336H224.284V73.556C224.284 74.986 223.03 75.844 221.798 75.844ZM233.273 78.176C235.473 78.176 237.057 76.768 237.057 74.59C237.057 72.94 235.935 72.038 234.351 71.466C232.481 70.784 232.085 70.388 232.085 69.904C232.085 69.376 232.613 69.068 233.163 69.068C233.845 69.068 234.461 69.332 234.945 70.036L236.573 68.54C235.891 67.396 234.593 66.736 233.097 66.736C231.051 66.736 229.599 68.122 229.599 69.838C229.599 71.554 230.699 72.478 232.239 73.094C233.405 73.556 234.527 74.018 234.527 74.766C234.527 75.514 233.889 75.844 233.251 75.844C232.173 75.844 231.447 75.096 231.051 74.018L228.873 75.184C229.313 76.658 230.809 78.176 233.273 78.176ZM248.953 72.214C248.953 69.794 247.479 66.736 243.783 66.736C239.977 66.736 238.459 69.838 238.459 72.456C238.459 75.074 239.977 78.176 243.783 78.176C246.467 78.176 247.963 76.9 248.821 74.942L246.621 74.128C245.961 75.272 245.191 75.844 243.937 75.844C242.551 75.844 241.539 75.03 241.297 73.336H248.953V72.214ZM241.363 71.18C241.715 69.794 242.617 69.068 243.783 69.068C245.235 69.068 245.917 70.08 246.159 71.18H241.363ZM255.631 78.176C257.215 78.176 258.227 77.428 258.535 76.856V77.516V78H261.263V62.424H258.535V67.264V67.924C258.051 67.308 256.973 66.736 255.631 66.736C252.507 66.736 250.791 69.046 250.791 72.456C250.791 75.866 252.507 78.176 255.631 78.176ZM256.225 75.844C254.795 75.844 253.651 74.656 253.651 72.456C253.651 70.256 254.795 69.068 256.225 69.068C257.655 69.068 258.777 70.256 258.777 72.456C258.777 74.656 257.655 75.844 256.225 75.844ZM271.162 65.482C272.174 65.482 272.922 64.712 272.922 63.722C272.922 62.732 272.174 61.962 271.162 61.962C270.15 61.962 269.402 62.732 269.402 63.722C269.402 64.712 270.15 65.482 271.162 65.482ZM269.798 78H272.526V66.912H269.798V78ZM280.043 78.176C280.637 78.176 281.231 78.066 281.847 77.78L281.209 75.58C280.835 75.778 280.527 75.844 280.153 75.844C279.229 75.844 278.701 75.404 278.701 74.04V69.244H281.627V66.912H278.701V62.424L275.973 64.14V66.912H274.257V69.244H275.973V74.084C275.973 76.834 277.535 78.176 280.043 78.176ZM293.082 72.214C293.082 69.794 291.608 66.736 287.912 66.736C284.106 66.736 282.588 69.838 282.588 72.456C282.588 75.074 284.106 78.176 287.912 78.176C290.596 78.176 292.092 76.9 292.95 74.942L290.75 74.128C290.09 75.272 289.32 75.844 288.066 75.844C286.68 75.844 285.668 75.03 285.426 73.336H293.082V72.214ZM285.492 71.18C285.844 69.794 286.746 69.068 287.912 69.068C289.364 69.068 290.046 70.08 290.288 71.18H285.492ZM295.536 78H298.264V73.93C298.264 70.63 299.32 69.068 300.662 69.068C301.476 69.068 302.026 69.486 302.026 70.608V78H304.754V73.688C304.754 70.564 305.832 69.068 307.152 69.068C307.966 69.068 308.516 69.486 308.516 70.608V78H311.244V70.146C311.244 68.012 310.012 66.736 307.944 66.736C306.58 66.736 305.348 67.594 304.556 69.024C304.072 67.418 302.818 66.736 301.454 66.736C300.024 66.736 299.078 67.462 298.264 68.694V66.912H295.536V78Z" fill="#626266"/>
<path fill-rule="evenodd" clip-rule="evenodd" d="M124.426 59.4255C124.771 59.0802 125.239 58.8863 125.727 58.8863H144.273C144.761 58.8863 145.229 59.0802 145.575 59.4255C145.92 59.7707 146.114 60.239 146.114 60.7272V67.9445C146.114 68.6348 146.673 69.1945 147.364 69.1945C148.054 69.1945 148.614 68.6348 148.614 67.9445V60.7272C148.614 59.5759 148.156 58.4718 147.342 57.6577C146.528 56.8436 145.424 56.3863 144.273 56.3863H125.727C124.576 56.3863 123.472 56.8436 122.658 57.6577C121.844 58.4718 121.386 59.5759 121.386 60.7272V79.2727C121.386 80.4239 121.844 81.5281 122.658 82.3421C123.472 83.1562 124.576 83.6136 125.727 83.6136H132.945C133.635 83.6136 134.195 83.0539 134.195 82.3636C134.195 81.6732 133.635 81.1136 132.945 81.1136H125.727C125.239 81.1136 124.771 80.9196 124.426 80.5744C124.08 80.2291 123.886 79.7609 123.886 79.2727V60.7272C123.886 60.239 124.08 59.7707 124.426 59.4255ZM132.995 62.8581C134.178 62.5258 135.424 62.4918 136.622 62.7589C137.821 63.026 138.935 63.5859 139.864 64.3887C140.793 65.1914 141.509 66.2119 141.948 67.359C142.194 68.0039 141.871 68.7264 141.227 68.973C140.582 69.2195 139.859 68.8966 139.613 68.2517C139.322 67.4905 138.847 66.8133 138.23 66.2806C137.613 65.7478 136.874 65.3762 136.079 65.199C135.283 65.0218 134.456 65.0444 133.672 65.2648C132.887 65.4853 132.17 65.8967 131.583 66.4624C130.996 67.028 130.559 67.7302 130.31 68.5062C130.061 69.2821 130.008 70.1077 130.156 70.9091C130.304 71.7104 130.649 72.4626 131.159 73.0983C131.668 73.734 132.328 74.2335 133.078 74.5521C133.713 74.822 134.01 75.5559 133.74 76.1913C133.47 76.8267 132.736 77.123 132.101 76.8532C130.97 76.3731 129.977 75.6204 129.208 74.6624C128.44 73.7044 127.921 72.571 127.698 71.3634C127.475 70.1558 127.554 68.9118 127.929 67.7425C128.305 66.5731 128.964 65.515 129.848 64.6626C130.732 63.8103 131.813 63.1903 132.995 62.8581ZM134.116 69.1161C134.451 68.7812 134.946 68.6643 135.396 68.8143L147.759 72.9407C148.27 73.111 148.614 73.5889 148.614 74.1271C148.613 74.6652 148.269 75.1427 147.758 75.3125L142.17 77.1704L140.312 82.758C140.143 83.2687 139.665 83.6133 139.127 83.6136C138.589 83.6139 138.111 83.2698 137.941 82.7594L133.814 70.3957C133.664 69.9465 133.781 69.451 134.116 69.1161ZM136.978 71.9779L139.124 78.4086L139.996 75.7874C140.12 75.4134 140.413 75.12 140.787 74.9957L143.409 74.1241L136.978 71.9779Z" fill="#2A2A2F"/>
<path d="M40 55.0667H74.7999V68.6C74.7999 78.2097 67.0097 85.9999 57.3999 85.9999V85.9999C47.7902 85.9999 40 78.2097 40 68.6V55.0667Z" stroke="#2A2A2F" stroke-width="3.5" stroke-linecap="round" stroke-linejoin="round"/>
<line x1="41.75" y1="62.983" x2="65.3166" y2="62.983" stroke="#2A2A2F" stroke-width="3.5" stroke-linecap="round" stroke-linejoin="round"/>
<path d="M40 85.9996H74.7999" stroke="#2A2A2F" stroke-width="3.5" stroke-linecap="round" stroke-linejoin="round"/>
<path d="M74.7998 55.0667H78.1962C81.6592 55.0667 84.4664 57.874 84.4664 61.337C84.4664 64.7999 81.6592 67.6072 78.1962 67.6072H74.7998" stroke="#2A2A2F" stroke-width="3.5" stroke-linecap="round" stroke-linejoin="round"/>
<path d="M53.5333 39.5999C55.786 40.7255 57.4 43.7629 57.4 47.3332" stroke="#2A2A2F" stroke-width="3.5" stroke-linecap="round" stroke-linejoin="round"/>
<path d="M53.5333 39.5999C51.2806 38.4742 49.6667 35.4368 49.6667 31.8665" stroke="#2A2A2F" stroke-width="3.5" stroke-linecap="round" stroke-linejoin="round"/>
<path d="M61.2666 35.7333C59.0139 34.6076 57.3999 31.5703 57.3999 28" stroke="#2A2A2F" stroke-width="3.5" stroke-linecap="round" stroke-linejoin="round"/>
</svg>
