<?xml version="1.0" encoding="UTF-8"?> <svg xmlns="http://www.w3.org/2000/svg" width="60" height="61" viewBox="0 0 60 61" fill="none"><path d="M36.4879 26.1658C33.9821 26.1658 32.1712 28.0895 32.1712 30.7946C32.1712 33.4701 34.0129 35.3341 36.4879 35.3341C38.994 35.3341 40.8341 33.4701 40.8341 30.7946C40.8341 28.1194 38.994 26.1658 36.4879 26.1658ZM30 0.872192C13.4318 0.872192 0 14.2491 0 30.7498C0 47.2507 13.4318 60.6273 30 60.6273C46.5686 60.6273 60 47.2507 60 30.7498C60 14.2491 46.5686 0.872192 30 0.872192ZM25.5037 26.7069C22.3946 26.7069 21.2482 28.6307 21.2482 31.757V38.6105H17.0828V26.7215C16.9286 25.5533 16.3211 24.8534 15 24.8534V24.3937L17.0828 23.795L20.2343 22.889H21.1579V25.1735C21.8512 23.6105 23.4217 22.4987 25.5037 22.4987V26.7069ZM36.4879 39.0016C31.5683 39.0016 28.0061 35.5443 28.0061 30.7946C28.0061 26.0157 31.689 22.4987 36.4879 22.4987C41.3175 22.4987 45 26.0452 45 30.7946C45 35.5443 41.4383 39.0016 36.4879 39.0016Z" fill="#1CC78B"></path></svg> 