<?xml version="1.0" encoding="UTF-8"?> <svg xmlns="http://www.w3.org/2000/svg" width="99" height="32" viewBox="0 0 99 32" fill="none"><path d="M31.9321 30.8123C31.9321 31.2334 31.5908 31.5761 31.1674 31.5761H1.36352C0.941546 31.5761 0.599609 31.2334 0.599609 30.8123V1.0686C0.599609 0.646763 0.941546 0.30481 1.36352 0.30481H31.1674C31.5908 0.30481 31.9321 0.646763 31.9321 1.0686V30.8123Z" fill="#E11F27"></path><path d="M25.4438 18.2056L25.3918 18.1488L23.6646 19.7857C24.1238 20.2678 24.1034 21.0302 23.6189 21.487C23.1359 21.9439 22.3719 21.925 21.9128 21.4436C21.8573 21.3938 21.8053 21.3406 21.7583 21.2852C21.7583 21.2852 18.9414 18.3205 17.1109 16.3949L23.4511 10.3897C19.4897 6.66602 13.2745 6.50205 9.39733 10.246C5.52159 13.99 5.04133 20.0527 8.6938 24.3663L15.3591 18.0542L20.2536 23.2031C20.9354 23.8492 21.8819 24.1967 22.8571 24.1673C23.7692 24.1414 24.5696 23.7672 25.1713 23.2003C25.9008 22.5143 26.3376 21.5438 26.3298 20.5656C26.3214 19.5383 25.931 18.7528 25.4438 18.2056ZM19.4729 10.9748L9.4858 20.4325C6.12331 14.5001 13.1614 7.39197 19.4729 10.9748Z" fill="white"></path><path d="M55.2154 25.6395L52.9054 18.6701H45.4179L43.0813 25.6395H41.2754L47.9667 5.95056H50.4361L57.1006 25.6395H55.2154ZM50.1173 10.4555C49.7718 9.44858 49.5064 8.49419 49.2677 7.40807H49.0816C48.8162 8.49419 48.5508 9.44858 48.2321 10.4555L45.9488 17.0535H52.3472L50.1173 10.4555Z" fill="black"></path><path d="M64.5904 25.6396H62.1744L57.209 11.2502H59.0942L62.3331 20.9756C62.7312 22.1942 63.05 23.3069 63.3687 24.4463H63.4214C63.7669 23.3069 64.0589 22.2208 64.457 20.9756L67.6693 11.2502H69.5545L64.5904 25.6396Z" fill="black"></path><path d="M73.0078 8.44164V5.15594H74.7863V8.44164H73.0078ZM73.0078 25.6395V11.2501H74.7596V25.6395H73.0078Z" fill="black"></path><path d="M81.373 13.7678V25.6395H79.6738V11.2501H81.373V12.4161C83.0721 11.1976 85.1174 10.8795 86.7899 10.8795V12.4428C85.1961 12.4428 82.9661 12.8142 81.373 13.7678Z" fill="black"></path><path d="M97.2252 25.6395V24.606C96.2162 25.2156 94.5697 25.9836 92.4191 25.9836C89.605 25.9836 88.1172 24.7118 88.1172 21.85V21.452C88.1172 17.7949 90.4798 17.0535 94.7024 17.0535H97.1444V15.835C97.1444 13.0258 96.5343 12.3636 93.3207 12.3636C91.9136 12.3636 90.7193 12.4694 89.0988 12.6551V11.3833C90.4532 11.1443 91.5941 10.8795 93.4534 10.8795C98.0474 10.8795 98.897 12.4428 98.897 15.835V25.6395H97.2252ZM97.1452 18.4052H94.7032C91.2241 18.4052 89.8437 18.8824 89.8437 21.452V21.9558C89.8437 23.9431 90.9587 24.6319 92.7639 24.6319C94.569 24.6319 96.3489 23.8366 97.1452 23.3334V18.4052Z" fill="black"></path></svg> 