<svg width="140" height="82" viewBox="0 0 140 82" fill="none" xmlns="http://www.w3.org/2000/svg">
<g clip-path="url(#clip0_4_164)">
<path d="M128.818 12.2818H136.796C136.576 10.0831 135.288 8.60672 132.901 8.60672C130.639 8.60672 129.226 10.0516 128.818 12.2818ZM132.87 21.7995C128.001 21.7995 125.519 18.2186 125.519 13.821C125.519 9.42341 128.409 5.84253 132.932 5.84253C137.487 5.84253 140 9.36059 140 13.3812C140 13.8524 139.969 14.5435 139.906 14.8262H128.692C128.849 17.2762 130.231 19.0039 132.681 19.0039C134.691 19.0039 135.917 18.0615 136.419 16.2711H139.686C138.995 19.5378 136.796 21.7995 132.87 21.7995ZM108.149 13.6953C108.149 9.07789 110.976 5.84253 115.122 5.84253C117.981 5.84253 119.834 7.50733 120.525 9.73753C120.556 9.83176 120.651 9.83176 120.651 9.73753V6.09382H123.666V19.6007C123.666 24.4066 120.996 27.6419 115.719 27.6419C111.636 27.6419 109.028 25.5688 108.652 22.4905H111.918C112.17 23.7784 113.143 24.8778 115.782 24.8778C119.143 24.8778 120.588 22.7732 120.651 19.6949L120.682 17.7474C120.682 17.6532 120.588 17.6532 120.556 17.7474C119.834 20.0718 117.729 21.5168 115.122 21.5168C110.976 21.5168 108.149 18.2814 108.149 13.6953ZM120.305 13.6953C120.305 10.7427 118.546 8.60672 115.813 8.60672C112.766 8.60672 111.353 10.7427 111.353 13.6953C111.353 16.648 112.766 18.784 115.813 18.784C118.546 18.784 120.305 16.5852 120.305 13.6953ZM99.2282 6.09382H102.087L102.055 9.73753C102.055 9.83176 102.149 9.83176 102.181 9.73753C102.966 7.44451 104.003 5.84253 107.584 5.84253V8.88942C103.532 8.76378 102.306 11.0254 102.306 14.2293V21.5482H99.2282V6.09382ZM85.47 13.821C85.47 16.7737 86.915 19.0353 89.7734 19.0353C92.6318 19.0353 94.0767 16.7737 94.0767 13.821C94.0767 10.8683 92.6318 8.60672 89.7734 8.60672C86.915 8.60672 85.47 10.8683 85.47 13.821ZM97.3121 13.821C97.3121 18.25 94.4537 21.7995 89.7734 21.7995C85.0617 21.7995 82.2347 18.25 82.2347 13.821C82.2347 9.392 85.0931 5.84253 89.7734 5.84253C94.4537 5.84253 97.3121 9.392 97.3121 13.821ZM74.319 21.5482V8.76378H71.9632V6.09382H74.3819V5.71689C74.3819 2.01036 76.4236 -0.219842 81.6693 0.0628591V2.98411C78.4025 2.66999 77.3659 3.8008 77.3659 6.12523H81.6693V8.79519H77.3659V21.611L74.319 21.5482ZM59.9013 12.2818H67.8797C67.6599 10.0831 66.372 8.60672 63.9847 8.60672C61.7231 8.60672 60.3096 10.0516 59.9013 12.2818ZM63.9533 21.7995C59.0846 21.7995 56.6031 18.2186 56.6031 13.821C56.6031 9.42341 59.4929 5.84253 64.0161 5.84253C68.5708 5.84253 71.0837 9.36059 71.0837 13.3812C71.0837 13.8524 71.0523 14.5435 70.9894 14.8262H59.7756C59.9327 17.2762 61.3148 19.0039 63.7649 19.0039C65.7752 19.0039 67.0002 18.0615 67.5028 16.2711H70.7696C70.0785 19.5378 67.9111 21.7995 63.9533 21.7995ZM42.4366 10.8997H46.8656C50.0067 10.8997 51.7658 9.54906 51.7658 6.97334C51.7658 4.6489 50.4779 3.29822 47.0855 3.29822H42.4366V10.8997ZM39.1384 21.5482V0.471205H46.9912C52.6453 0.471205 55.0639 2.88987 55.0639 6.65922C55.0639 9.45483 53.3049 12.0934 48.9387 12.2818C48.8445 12.2818 48.8445 12.4075 48.9387 12.4075C53.462 12.9101 55.8178 16.8051 55.8178 21.5482H52.3626C52.3626 17.3076 50.5093 13.6953 45.9861 13.6953H42.4366V21.5482H39.1384Z" fill="currentColor"/>
<path d="M4.36607 0.188393C4.27183 0.156982 4.30324 0.0313367 4.39748 0.0313367C6.50203 -0.0943083 8.638 0.062748 9.89445 0.345449C12.1246 0.84803 14.135 1.72754 15.5485 3.86351C16.1453 4.77444 16.585 5.81101 16.7107 6.84758C16.7107 6.9104 16.6793 6.97323 16.6165 6.97323H9.04634C8.98352 6.97323 8.95211 6.94181 8.9207 6.87899C8.76364 4.46032 7.44437 1.50767 4.36607 0.188393ZM24.1552 21.3282C24.2494 21.3596 24.218 21.4852 24.1237 21.4852C22.0192 21.6109 19.8832 21.4538 18.6268 21.1711C16.3966 20.6685 14.3863 19.789 12.9728 17.6531C12.3759 16.7421 11.9362 15.7056 11.8105 14.669C11.8105 14.6062 11.8419 14.5433 11.9048 14.5433H19.4749C19.5377 14.5433 19.5691 14.5747 19.6005 14.6376C19.7576 17.0877 21.0769 20.0089 24.1552 21.3282ZM8.44953 7.7271C8.51235 7.66427 8.41812 7.57004 8.3553 7.60145C6.53344 8.35532 -1.41361 12.1247 0.219779 17.2761C1.63329 21.7679 9.2034 21.5795 10.9624 21.4852C11.0567 21.4852 11.0567 21.3596 10.9938 21.3282C7.85272 20.0089 6.56485 16.9934 6.43921 14.5433C6.34497 12.7529 6.78473 10.0515 8.44953 7.7271ZM20.1031 13.7895C20.0403 13.8523 20.1345 13.9465 20.1973 13.9151C22.0192 13.1612 29.9348 9.36048 28.3329 4.20903C26.9193 -0.251365 19.3492 -0.0628971 17.5902 0.0313367C17.496 0.0313367 17.496 0.156982 17.5588 0.188393C20.6999 1.50767 21.9878 4.52315 22.1134 6.97323C22.2077 8.76367 21.7679 11.465 20.1031 13.7895Z" fill="currentColor"/>
</g>
<defs>
<clipPath id="clip0_4_164">
<rect width="140" height="27.6419" fill="white"/>
</clipPath>
</defs>
</svg>
