<svg width="140" height="82" viewBox="0 0 140 82" fill="none" xmlns="http://www.w3.org/2000/svg">
<g clip-path="url(#clip0_4_221)">
<path d="M65.5095 23.4568H17.2227L21.1321 27.2606L65.5095 23.4568Z" fill="black"/>
<path d="M21.7659 7.81942V8.45338C20.9206 7.92508 20.0753 7.50244 18.9131 7.50244C15.5319 7.50244 12.9961 10.5666 12.9961 14.3704C12.9961 18.1741 15.5319 21.2383 18.9131 21.2383C19.9697 21.2383 20.815 20.9213 21.7659 20.2873V20.9213H24.7244V7.81942H21.7659ZM18.9131 18.1741C17.2225 18.1741 16.0602 16.4836 16.0602 14.476C16.0602 12.3628 17.3282 10.7779 18.9131 10.7779C20.6036 10.7779 21.7659 12.4685 21.7659 14.476C21.7659 16.4836 20.6036 18.1741 18.9131 18.1741Z" fill="black"/>
<path d="M45.5396 7.81909V15.5323C45.5396 17.0115 44.5886 18.1738 43.1094 18.1738C41.6301 18.1738 40.6792 16.9059 40.6792 15.5323V7.81909H37.7207V15.5323C37.7207 18.7021 39.8339 21.238 43.0037 21.238C44.483 21.238 45.5396 20.3927 45.5396 20.3927V20.921H48.4981V7.81909H45.5396Z" fill="black"/>
<path d="M73.2227 20.9213V13.2081C73.2227 11.7289 74.1736 10.5666 75.6528 10.5666C77.1321 10.5666 78.083 11.8345 78.083 13.2081V20.9213H81.0415V13.2081C81.0415 10.0383 78.9283 7.50244 75.7585 7.50244C74.2793 7.50244 73.2227 8.34772 73.2227 8.34772V7.81942H70.2642V20.9213H73.2227Z" fill="black"/>
<path d="M4.43763 20.9213V15.8496H6.6565L10.4603 20.9213H14.264L9.72065 14.793C11.1999 13.7364 12.0452 12.0458 12.0452 10.1439C12.0452 7.07979 9.50933 4.54395 6.44518 4.54395H1.26782V20.9213H4.43763ZM4.43763 7.71376H6.44518C7.81877 7.71376 8.98103 8.87602 8.98103 10.2496C8.98103 11.6232 7.81877 12.7855 6.44518 12.7855H4.43763V7.71376Z" fill="black"/>
<path d="M56.5281 17.857C56.2111 18.0683 55.8941 18.1739 55.5771 18.1739C55.0488 18.1739 54.2036 17.7513 54.2036 16.589V10.989H56.7394V7.81922H54.2036V4.64941H51.2451V7.92488H49.6602V10.989H51.2451V16.6947C51.2451 19.6532 53.4639 21.3437 55.6828 21.3437C56.5281 21.3437 57.6903 21.0268 58.6413 20.4985L56.5281 17.857Z" fill="black"/>
<path d="M32.1207 14.0531L37.1924 7.81914H33.0716L29.4792 12.4682V3.48706H26.415V20.921H29.4792V15.638L33.8113 20.921H38.0377L32.1207 14.0531Z" fill="black"/>
<path d="M63.3962 7.50244C59.9094 7.50244 57.4792 10.5666 57.4792 14.3704C57.4792 18.3855 60.5434 21.2383 63.7132 21.2383C65.2981 21.2383 67.3057 20.71 68.9962 18.2798L66.3547 16.8006C64.3472 19.759 60.966 18.2798 60.5434 15.3213H69.1019C69.8415 10.6723 66.7774 7.50244 63.3962 7.50244ZM66.0377 12.6798H60.6491C61.283 9.61565 65.4038 9.50999 66.0377 12.6798Z" fill="black"/>
<path d="M90.2339 19.7586L85.1622 7.185C85.0565 7.07934 85.0565 6.86802 84.9509 6.6567C84.9509 6.44538 84.8452 6.23406 84.8452 6.1284C84.8452 5.6001 85.0565 5.17745 85.3735 4.75481C85.7962 4.43783 86.2188 4.22651 86.7471 4.22651C87.1697 4.22651 87.4867 4.33217 87.8037 4.54349C88.015 4.75481 88.332 5.17745 88.5433 5.81142L91.9245 15.0039L95.1999 5.91708C95.4112 5.28311 95.6226 4.86047 95.9396 4.54349C96.2565 4.33217 96.5735 4.12085 97.1018 4.12085C97.6301 4.12085 98.1584 4.22651 98.4754 4.54349C98.7924 4.86047 99.0037 5.28311 99.0037 5.81142C99.0037 6.02274 99.0037 6.23406 98.898 6.44538C98.898 6.6567 98.7924 6.86802 98.6867 7.07934L93.8263 19.4416C93.615 19.9699 93.298 20.3926 93.0867 20.6039C92.7697 20.8152 92.4528 20.9209 91.9245 20.9209C91.5018 20.9209 91.1848 20.8152 90.8679 20.6039C90.6565 20.6039 90.4452 20.2869 90.2339 19.7586Z" fill="black"/>
<path d="M103.441 18.7025C103.441 19.5478 103.336 20.1818 103.019 20.6044C102.702 21.0271 102.279 21.2384 101.751 21.2384C101.117 21.2384 100.694 21.0271 100.483 20.6044C100.166 20.1818 100.06 19.5478 100.06 18.7025V11.729C100.06 10.8837 100.166 10.2497 100.483 9.82708C100.8 9.40444 101.223 9.19312 101.751 9.19312C102.279 9.19312 102.807 9.40444 103.019 9.82708C103.336 10.2497 103.441 10.8837 103.441 11.729V18.7025Z" fill="black"/>
<path d="M108.725 9.40403C109.147 9.08705 109.57 8.77006 110.098 8.6644C110.626 8.45308 111.049 8.45308 111.683 8.45308C113.268 8.45308 114.642 9.08705 115.698 10.355C116.755 11.6229 117.283 13.2078 117.283 15.004C117.283 16.8003 116.755 18.2795 115.592 19.5474C114.43 20.8153 113.162 21.4493 111.577 21.4493C110.943 21.4493 110.415 21.3437 109.887 21.1323C109.358 20.921 108.936 20.604 108.619 20.1814C108.408 20.604 108.091 20.921 107.879 21.0267C107.562 21.238 107.245 21.3437 106.928 21.3437C106.294 21.3437 105.872 21.1323 105.555 20.7097C105.238 20.287 105.132 19.6531 105.132 18.7021V7.0795C105.132 6.12855 105.238 5.49459 105.555 5.07195C105.872 4.64931 106.294 4.43799 106.928 4.43799C107.562 4.43799 107.985 4.64931 108.302 5.07195C108.619 5.49459 108.725 6.23421 108.725 7.0795V9.40403ZM108.408 14.7927C108.408 15.8493 108.619 16.5889 109.147 17.2229C109.675 17.8569 110.309 18.1738 111.049 18.1738C111.789 18.1738 112.423 17.8569 112.951 17.2229C113.479 16.5889 113.691 15.8493 113.691 14.7927C113.691 13.7361 113.479 12.9965 112.951 12.3625C112.423 11.7286 111.789 11.4116 111.049 11.4116C110.309 11.4116 109.675 11.7286 109.147 12.3625C108.619 12.9965 108.408 13.8418 108.408 14.7927Z" fill="black"/>
<path d="M121.298 15.849C121.404 16.483 121.826 17.1169 122.355 17.4339C122.883 17.8565 123.517 17.9622 124.257 17.9622C124.996 17.9622 125.736 17.7509 126.581 17.3282C127.426 16.9056 127.955 16.6943 128.166 16.6943C128.589 16.6943 128.906 16.7999 129.223 17.1169C129.54 17.4339 129.645 17.7509 129.645 18.1735C129.645 18.9132 129.117 19.6528 127.955 20.2867C126.898 20.9207 125.524 21.2377 124.045 21.2377C122.249 21.2377 120.77 20.6037 119.502 19.4415C118.34 18.1735 117.706 16.6943 117.706 14.7924C117.706 12.8905 118.34 11.4113 119.502 10.1433C120.664 8.87542 122.143 8.24146 123.94 8.24146C125.63 8.24146 127.004 8.87542 128.166 10.0377C129.328 11.1999 129.857 12.6792 129.857 14.3698C129.857 14.8981 129.751 15.3207 129.434 15.532C129.223 15.7433 128.694 15.849 127.955 15.849H121.298ZM121.192 13.6301H126.581C126.581 12.9962 126.264 12.2565 125.736 11.8339C125.207 11.4113 124.679 11.1999 123.94 11.1999C123.306 11.1999 122.566 11.4113 122.143 11.8339C121.615 12.2565 121.298 12.9962 121.192 13.6301Z" fill="black"/>
<path d="M130.913 18.4908V11.0946C130.913 10.1436 131.019 9.50968 131.336 9.08704C131.653 8.66439 132.075 8.45307 132.709 8.45307C133.132 8.45307 133.449 8.55873 133.66 8.77005C133.977 8.98137 134.189 9.29836 134.4 9.61534C134.823 9.1927 135.14 8.87571 135.562 8.66439C135.985 8.45307 136.407 8.34741 136.83 8.34741C137.358 8.34741 137.781 8.55873 138.098 8.87571C138.415 9.19269 138.626 9.61534 138.626 10.1436C138.626 10.8833 137.992 11.5172 136.619 11.9399C136.09 12.1512 135.773 12.2568 135.562 12.3625C135.14 12.5738 134.823 12.7851 134.611 13.1021C134.506 13.4191 134.4 13.8418 134.4 14.5814V18.3851C134.4 19.3361 134.294 19.9701 133.977 20.3927C133.66 20.8153 133.238 21.0267 132.604 21.0267C131.97 21.0267 131.547 20.8153 131.23 20.3927C131.124 20.0757 130.913 19.4418 130.913 18.4908Z" fill="black"/>
<path d="M99.9546 6.23465C99.9546 5.70635 100.166 5.28371 100.483 4.86107C100.906 4.43842 101.328 4.33276 101.856 4.33276C102.385 4.33276 102.807 4.54408 103.23 4.86107C103.653 5.28371 103.758 5.70635 103.758 6.23465C103.758 6.76295 103.547 7.18559 103.23 7.60824C102.913 7.92522 102.385 8.13654 101.856 8.13654C101.328 8.13654 100.906 7.92522 100.483 7.60824C100.166 7.18559 99.9546 6.76295 99.9546 6.23465Z" fill="black"/>
</g>
<defs>
<clipPath id="clip0_4_221">
<rect width="140" height="82" fill="white"/>
</clipPath>
</defs>
</svg>
