<svg width="140" height="82" viewBox="0 0 140 82" fill="none" xmlns="http://www.w3.org/2000/svg">
<g clip-path="url(#clip0_4_132)">
<g clip-path="url(#clip1_4_132)">
<mask id="mask0_4_132" style="mask-type:luminance" maskUnits="userSpaceOnUse" x="0" y="0" width="141" height="34">
<path d="M140.387 0H0V33.6H140.387V0Z" fill="white"/>
</mask>
<g mask="url(#mask0_4_132)">
<path d="M18.2355 8.84387C16.0859 8.84387 13.4169 9.42094 11.9887 11.3397C10.546 9.42094 7.89148 8.84387 5.74189 8.84387C2.06305 8.84387 -0.0144043 11.3109 -0.0144043 15.1195V25.0307H4.70315V15.6966C4.70315 13.8932 5.71303 12.8834 7.12686 12.8834C8.65609 12.8834 9.72368 14.0231 9.72368 15.8697V25.0307H14.2537V15.8697C14.2537 14.0376 15.3357 12.8834 16.8506 12.8834C18.2788 12.8834 19.2742 13.8932 19.2742 15.6966V25.0307H23.9918V15.1195C23.9918 11.3109 21.9144 8.84387 18.2355 8.84387Z" fill="black"/>
<path d="M109.702 25.0451C111.851 25.0451 114.52 24.4681 115.948 22.5493C117.391 24.4681 120.045 25.0451 122.195 25.0451C125.874 25.0451 127.951 22.5781 127.951 18.7695V8.84387H123.234V18.178C123.234 19.9813 122.223 20.9912 120.81 20.9912C119.281 20.9912 118.214 19.8516 118.214 18.0049V8.84387H113.683V18.0049C113.683 19.8371 112.601 20.9912 111.087 20.9912C109.658 20.9912 108.663 19.9813 108.663 18.178V8.84387H103.945V18.7551C103.945 22.5781 106.037 25.0451 109.702 25.0451Z" fill="black"/>
<path d="M62.6555 0.0433574V25.045H58.3274V23.0974C57.1156 24.5833 55.3412 25.4489 53.2348 25.4489C48.9645 25.4489 45.4299 21.8134 45.4299 17.1247C45.4299 12.4792 48.9645 8.82927 53.2348 8.82927C55.1391 8.82927 56.7694 9.52176 57.9524 10.7769V0.0289307H62.6555V0.0433574ZM58.3131 17.1391C58.3131 14.7443 56.4808 12.8688 54.1148 12.8688C51.72 12.8688 49.9166 14.7443 49.9166 17.1391C49.9166 19.5628 51.72 21.4383 54.1148 21.4383C56.4808 21.4383 58.3131 19.5628 58.3131 17.1391Z" fill="black"/>
<path d="M65.5842 33.6578V9.08901H69.9123V11.0367C71.1241 9.55067 72.8986 8.68506 75.005 8.68506C79.2753 8.68506 82.8098 12.3206 82.8098 17.0094C82.8098 21.6547 79.2753 25.3047 75.005 25.3047C73.1006 25.3047 71.4704 24.6122 70.2874 23.3572V33.6578H65.5842ZM69.9123 16.9949C69.9123 19.3898 71.7445 21.2652 74.1104 21.2652C76.5054 21.2652 78.3087 19.3898 78.3087 16.9949C78.3087 14.5712 76.5054 12.6957 74.1104 12.6957C71.7588 12.6957 69.9123 14.5712 69.9123 16.9949Z" fill="black"/>
<path d="M129.308 24.0785L129.856 20.5728C131.342 21.4095 132.741 21.9288 134.083 21.9288C135.265 21.9288 135.958 21.3807 135.958 20.4718C135.958 19.7793 135.583 19.2599 134.053 18.8127L133.434 18.5674C131.038 17.7307 129.625 16.0716 129.625 13.6768C129.625 10.9068 131.803 8.81494 135.208 8.81494C136.737 8.81494 138.397 9.23332 139.897 9.89695L139.305 13.4315C137.921 12.7101 136.42 12.2918 135.424 12.2918C134.386 12.2918 133.866 12.84 133.866 13.547C133.866 14.1673 134.212 14.6578 135.497 15.105L136.189 15.3503C139.002 16.3169 140.416 17.9183 140.416 20.3852C140.416 23.4437 138.094 25.5212 134.559 25.5212C132.712 25.4923 130.865 24.9441 129.308 24.0785Z" fill="black"/>
<path d="M101.695 8.84378V25.0451H97.3665V23.0974C96.1547 24.5834 94.3802 25.449 92.2739 25.449C88.0036 25.449 84.469 21.8134 84.469 17.1247C84.469 12.4793 88.0036 8.82935 92.2739 8.82935C94.1782 8.82935 95.8084 9.52184 96.9914 10.777V8.82935H101.695V8.84378ZM97.3521 17.1392C97.3521 14.7444 95.5199 12.8689 93.1539 12.8689C90.7591 12.8689 88.9557 14.7444 88.9557 17.1392C88.9557 19.5628 90.7591 21.4383 93.1539 21.4383C95.5199 21.4383 97.3521 19.5628 97.3521 17.1392Z" fill="black"/>
<path d="M43.2661 8.84378V25.0451H38.938V23.0974C37.7262 24.5834 35.9517 25.449 33.8454 25.449C29.5751 25.449 26.0405 21.8134 26.0405 17.1247C26.0405 12.4793 29.5751 8.82935 33.8454 8.82935C35.7497 8.82935 37.38 9.52184 38.5629 10.777V8.82935H43.2661V8.84378ZM38.938 17.1392C38.938 14.7444 37.1059 12.8689 34.7398 12.8689C32.345 12.8689 30.5417 14.7444 30.5417 17.1392C30.5417 19.5628 32.345 21.4383 34.7398 21.4383C37.0914 21.4383 38.938 19.5628 38.938 17.1392Z" fill="black"/>
</g>
</g>
</g>
<defs>
<clipPath id="clip0_4_132">
<rect width="140" height="82" fill="white"/>
</clipPath>
<clipPath id="clip1_4_132">
<rect width="140.387" height="34" fill="white"/>
</clipPath>
</defs>
</svg>
