<svg width="140" height="82" viewBox="0 0 140 82" fill="none" xmlns="http://www.w3.org/2000/svg">
<path d="M37.2658 0.939515C35.6802 0.933953 34.8199 0.966606 35.1047 1.0272C36.4098 1.30481 36.3764 1.07833 36.322 8.46971C36.2699 15.5262 36.2747 15.4783 35.3936 15.6131C35.1506 15.6503 35.4328 15.701 36.0228 15.7266C36.6129 15.7521 37.9497 15.8285 38.9936 15.8916C42.0534 16.0767 42.4854 16.0686 43.6613 15.8194C47.8425 14.9334 50.4518 10.7748 49.5359 6.45822C49.1441 4.61141 47.7009 2.64895 46.168 1.88337C44.6524 1.12648 43.9465 1.03413 39.0762 0.960146C38.4011 0.949896 37.7944 0.941368 37.2658 0.939515ZM39.9117 1.39339C42.1069 1.33802 44.6122 2.22422 45.972 3.60603C48.0808 5.74908 48.655 9.36882 47.3284 12.1729C46.7892 13.3128 45.5512 14.4433 44.3112 14.9271C42.5654 15.6082 39.0278 15.5024 38.2716 14.7466C38.1404 14.6155 38.0859 12.6638 38.0859 8.0932V1.62549L38.9936 1.47591C39.2903 1.42829 39.5981 1.4013 39.9117 1.39339Z" fill="currentColor"/>
<path d="M91.7995 15.9054C90.6936 15.5698 90.6538 15.5038 90.6538 14.0027C90.6538 13.2397 90.7281 12.5695 90.8189 12.5134C90.9178 12.4522 90.9841 12.6631 90.9845 13.04C90.9858 14.4493 92.1844 15.4017 93.9563 15.4017C95.124 15.4017 95.7488 15.1289 96.3317 14.3648C96.8491 13.6864 97.0137 12.711 96.766 11.7911C96.5609 11.0294 95.9878 10.3958 93.4299 8.10251C91.7378 6.5855 91.1489 5.584 91.1489 4.22341C91.1489 2.01082 92.5537 0.657728 94.8625 0.646443C96.6821 0.637548 97.9601 0.854211 97.8458 1.15219C97.7935 1.28839 97.7433 1.89507 97.7342 2.50038C97.7184 3.54952 97.7105 3.57048 97.5649 2.94903C97.2898 1.77511 96.4362 1.20778 94.945 1.20778C93.2567 1.20778 92.3061 2.04566 92.3049 3.53484C92.3041 4.53914 92.8523 5.33724 94.4499 6.65763C97.1282 8.87129 97.7878 9.67223 98.089 11.0768C98.4996 12.9914 97.6394 14.7479 95.8847 15.578C95.0062 15.9936 94.6768 16.0596 93.5421 16.0475C92.8159 16.0398 92.0317 15.9758 91.7995 15.9054Z" fill="currentColor"/>
<path d="M102.663 15.8077C101.729 15.5093 101.662 15.3245 101.858 13.5862C101.935 12.9054 102.008 12.5663 102.02 12.8326C102.063 13.759 102.662 14.6924 103.462 15.0799C104.5 15.5822 106.21 15.4952 106.946 14.9029C107.622 14.3582 107.984 13.5745 107.984 12.6565C107.984 11.5399 107.587 10.8886 106.106 9.57276C103.071 6.87587 102.505 6.13449 102.304 4.5912C102.178 3.61707 102.368 2.87266 102.965 2.0119C103.81 0.79133 105.365 0.410485 108.025 0.772329L108.974 0.901427L108.963 2.16866C108.954 3.19446 108.92 3.35728 108.784 3.02327C108.166 1.50271 107.616 1.16426 105.887 1.24226C104.835 1.28977 104.641 1.35128 104.193 1.78038C103.22 2.71233 103.195 4.22243 104.134 5.33824C104.372 5.6212 105.289 6.43763 106.172 7.15254C108.58 9.10229 109.304 10.1994 109.304 11.8961C109.304 13.4873 108.601 14.6961 107.196 15.5194C106.542 15.9025 106.217 15.9735 104.939 16.0122C103.945 16.0423 103.183 15.9738 102.663 15.8077Z" fill="currentColor"/>
<path d="M27.4026 12.8897C25.7927 11.2303 23.2304 8.48587 21.7086 6.79094C20.1867 5.09601 18.8807 3.70344 18.8062 3.69634C18.6366 3.68017 18.8358 12.8241 19.034 14.151C19.1143 14.6886 19.2549 15.2033 19.3464 15.2948C19.4379 15.3863 19.8298 15.5127 20.2174 15.5758C20.6524 15.6465 20.0376 15.69 18.6115 15.6894C17.3407 15.6887 16.5608 15.6424 16.8786 15.5862C17.8227 15.4194 17.849 15.2009 17.8595 7.44339C17.8669 2.00472 17.9122 0.574986 18.0751 0.639126C18.1886 0.683789 20.875 3.54056 24.045 6.98751C27.2149 10.4345 29.833 13.2302 29.8629 13.2003C29.8928 13.1703 29.8559 10.5681 29.7808 7.41756C29.6283 1.02279 29.6887 1.30592 28.4227 1.05769C27.8616 0.947652 28.2324 0.913543 29.9997 0.912634C31.4842 0.911809 32.1131 0.958076 31.7586 1.04188C31.4552 1.11362 31.121 1.25821 31.0159 1.36319C30.8786 1.50043 30.8119 3.56962 30.7786 8.72544C30.7431 14.228 30.6855 15.8979 30.531 15.9017C30.4203 15.9045 29.0126 14.549 27.4026 12.8897Z" fill="currentColor"/>
<path d="M69.1981 15.7317C68.1542 15.6772 67.5018 15.6177 67.7482 15.5996C68.6015 15.5369 68.6205 15.3771 68.6205 8.249V1.67401L68.2308 1.35835C68.0165 1.18474 67.6081 1.02667 67.3231 1.0071C66.9717 0.982963 74.2546 0.784416 75.0851 0.79549C75.1005 0.795655 75.06 1.35272 74.9952 2.03333C74.8956 3.0791 74.8578 3.19036 74.7516 2.75152C74.5179 1.78597 74.1626 1.62836 72.0698 1.56192L70.1884 1.5022V4.49083V7.47946H72.2185C73.5615 7.47946 74.3146 7.41336 74.4438 7.28416C74.7656 6.96241 74.8059 7.18532 74.6749 8.56107C74.5623 9.74381 74.5378 9.81203 74.4252 9.25571C74.3565 8.9164 74.1655 8.56664 74.0008 8.47846C73.836 8.39028 72.9049 8.26665 71.9316 8.20373L70.162 8.08932L70.2165 11.2254C70.2572 13.5695 70.3279 14.43 70.4965 14.6328C70.8611 15.0715 71.8939 15.2603 73.2543 15.1371C74.681 15.0078 75.0409 14.7893 75.4009 13.8337L75.6496 13.1735L75.5615 14.2127C75.416 15.9284 75.4549 15.9021 73.1122 15.8639C72.0034 15.8457 70.2421 15.7863 69.1981 15.7317Z" fill="currentColor"/>
<path d="M80.7511 15.7317C79.7072 15.6772 79.0547 15.6177 79.3012 15.5996C80.1545 15.5369 80.1735 15.3771 80.1735 8.249V1.67401L79.7838 1.35835C79.5695 1.18474 79.161 1.02667 78.8761 1.0071C78.5247 0.982963 85.8076 0.784416 86.6381 0.79549C86.6534 0.795655 86.613 1.35272 86.5481 2.03333C86.4485 3.0791 86.4108 3.19036 86.3046 2.75152C86.0669 1.7694 85.7189 1.62035 83.6636 1.62035H81.8239L81.7788 4.54991L81.7338 7.47946H83.6465C84.7015 7.47946 85.7086 7.39946 85.8925 7.30104C86.0759 7.20292 86.2568 7.15349 86.2945 7.19122C86.3322 7.22894 86.3118 7.84769 86.249 8.56622C86.1414 9.79935 86.1266 9.83771 85.9841 9.2503C85.9011 8.90803 85.7029 8.55827 85.5437 8.47306C85.3844 8.38785 84.4638 8.26703 83.4978 8.20458L81.7414 8.09102L81.7507 10.8798C81.762 14.2626 81.8821 14.7338 82.8105 15.0378C83.6615 15.3164 85.9103 15.1417 86.3779 14.7606C86.5579 14.6139 86.8171 14.1968 86.9539 13.8337L87.2025 13.1735L87.1144 14.2127C86.969 15.9284 87.0079 15.9021 84.6651 15.8639C83.5563 15.8457 81.795 15.7863 80.7511 15.7317Z" fill="currentColor"/>
<path d="M114.586 15.7317C113.542 15.6772 112.883 15.6177 113.121 15.5996C114.006 15.5324 114.004 15.5481 114.056 8.44421L114.105 1.86715L113.693 1.45493C113.448 1.21027 113.059 1.0277 112.736 1.0058C112.437 0.985495 114.049 0.929792 116.319 0.882012C118.588 0.834229 120.465 0.802852 120.489 0.812282C120.514 0.821706 120.484 1.36618 120.423 2.02221L120.312 3.21499L120.101 2.59922C119.984 2.26055 119.791 1.92249 119.672 1.84799C119.314 1.62503 118.211 1.51407 116.896 1.56882L115.658 1.62036L115.613 4.54992L115.568 7.47948H117.481C118.536 7.47948 119.543 7.39948 119.727 7.30106C119.91 7.20293 120.098 7.16027 120.144 7.20626C120.19 7.25225 120.167 7.871 120.092 8.58126C120.008 9.37579 119.935 9.66503 119.901 9.33304C119.819 8.53146 119.379 8.3369 117.35 8.20573L115.576 8.09104L115.585 10.8799C115.591 12.5833 115.671 13.8933 115.792 14.2457C116.064 15.0425 116.849 15.2922 118.602 15.1393C120.094 15.0092 120.625 14.683 120.867 13.7486C120.984 13.2997 121 13.4221 120.941 14.3066C120.9 14.9298 120.781 15.5425 120.677 15.6682C120.474 15.9126 118.449 15.9337 114.586 15.7317Z" fill="currentColor"/>
<path d="M135.219 13.1063C133.658 11.5261 131.043 8.75956 129.408 6.95835C127.773 5.15714 126.396 3.68341 126.347 3.68341C126.209 3.68341 126.477 13.7538 126.634 14.4726C126.808 15.2724 126.957 15.4209 127.739 15.5723C128.131 15.6481 127.529 15.691 126.139 15.6863C124.913 15.6822 124.152 15.649 124.447 15.6124C124.778 15.5713 125.062 15.4076 125.189 15.1849C125.344 14.9152 125.409 13.0148 125.447 7.66608L125.498 0.508179L125.921 0.899215C126.154 1.11429 128.795 3.94542 131.789 7.19063C134.783 10.4358 137.281 13.091 137.339 13.091C137.609 13.091 137.256 1.84602 136.973 1.46166C136.869 1.31986 136.45 1.13858 136.041 1.05882C135.461 0.945461 135.785 0.91296 137.527 0.909913C139.09 0.907173 139.607 0.950053 139.26 1.05358C138.34 1.32789 138.353 1.22024 138.336 8.46002C138.327 12.1417 138.26 15.3397 138.188 15.5667C138.064 15.9576 137.907 15.8279 135.219 13.1063Z" fill="currentColor"/>
<path d="M7.5576 0.609461C7.35288 0.627404 6.96725 1.65042 4.89109 7.36601C3.66463 10.7424 2.52535 13.8007 2.36383 14.1638C1.98579 15.0136 1.5155 15.4222 0.744321 15.5719C0.362984 15.6459 1.01114 15.6943 2.43604 15.6956C3.93774 15.697 4.55212 15.6523 4.18965 15.5667C3.52793 15.4105 3.32441 15.1392 3.44694 14.5764C3.66258 13.586 4.89616 10.0241 5.06129 9.9139C5.30477 9.75136 9.15194 9.76078 9.40921 9.92421C9.52079 9.99509 10.0487 11.1982 10.5852 12.601C11.2997 14.4695 11.5221 15.2313 11.4104 15.4429C11.2688 15.711 11.4007 15.7317 13.2826 15.7163C14.9163 15.7029 15.1821 15.6696 14.6546 15.5461C13.3237 15.2344 13.2033 15.0054 10.0849 6.85024C8.81126 3.5196 7.70917 0.733708 7.63497 0.65588C7.60867 0.62829 7.58685 0.606898 7.5576 0.609461ZM7.20688 3.56996C7.33798 3.61366 9.26842 8.8288 9.28027 9.17119C9.28263 9.23928 8.37021 9.29498 7.24814 9.29498H5.20571L6.12893 6.40668C6.63746 4.81785 7.12306 3.54202 7.20688 3.56996Z" fill="currentColor"/>
<path d="M53.7704 0.929215C52.5661 0.93651 51.9801 0.973286 52.2695 1.03237C52.6252 1.105 53.004 1.28761 53.1153 1.43982C53.5876 2.08564 53.6466 14.0871 53.1824 15.1025C53.0385 15.4171 52.8287 15.5672 52.4655 15.6131C52.1828 15.6488 53.0637 15.6793 54.4254 15.6802C55.787 15.681 56.5698 15.6366 56.1635 15.5822C55.0952 15.439 55.0111 15.1794 55.0082 12.0595L55.003 9.46H56.4059H57.814L58.5928 10.5637C60.0411 12.6043 61.8974 14.8538 62.4559 15.2521C62.9525 15.6062 63.1964 15.6507 64.8232 15.675C66.0489 15.6933 66.3974 15.6672 65.896 15.5873C64.415 15.3515 63.6595 14.6909 60.9601 11.2807L59.1807 9.03192L59.7532 8.37689C62.2167 5.56065 62.0888 2.51787 59.4593 1.30573C58.7889 0.996698 58.3711 0.962531 55.1681 0.934373C54.6389 0.929719 54.1718 0.926773 53.7704 0.929215ZM56.5142 1.37278C58.7214 1.38393 60.0891 3.09156 59.9235 5.80837C59.8448 7.09816 59.447 8.00773 58.7475 8.50583C58.2481 8.86142 56.8518 9.05096 56.0758 8.86687C55.8943 8.8238 55.5786 8.75057 55.3744 8.70698C55.0034 8.62781 55.003 8.62351 55.003 5.10177V1.57908L55.5188 1.47593C55.8664 1.40641 56.1989 1.37118 56.5142 1.37278Z" fill="currentColor"/>
<path d="M32.2642 22.2143C30.5801 22.2295 28.9196 22.681 27.6997 23.5759C26.6657 24.3344 25.505 25.8298 25.0796 26.9542C23.3956 31.405 25.5937 36.2241 29.8659 37.45C31.056 37.7915 34.0331 37.6623 35.1628 37.2179C37.1921 36.4196 39.0072 34.453 39.65 32.3542C40.1462 30.7344 40.1429 28.2809 39.6449 26.8974C39.2348 25.7583 38.3632 24.524 37.4787 23.8235C36.1102 22.7396 34.173 22.197 32.2642 22.2143ZM31.5215 22.8435C31.7577 22.8416 32.0273 22.8458 32.3571 22.859C33.7115 22.9132 34.0486 22.988 34.8121 23.4057C37.5067 24.8797 38.8491 28.5403 38.0615 32.2562C37.604 34.4147 36.6513 35.7148 34.9153 36.5474C34.0818 36.9472 33.7291 37.0183 32.6872 37.0065C32.0064 36.9987 31.2636 36.9365 31.0367 36.8672C28.7903 36.1814 27.0591 34.1135 26.4928 31.4413C25.6869 27.6388 27.0646 24.1987 29.8143 23.1633C30.4296 22.9316 30.8131 22.8493 31.5215 22.8435Z" fill="currentColor"/>
<path d="M64.4481 22.2143C62.7639 22.2295 61.1034 22.681 59.8835 23.5759C58.8496 24.3344 57.6889 25.8298 57.2634 26.9542C55.5794 31.405 57.7776 36.2241 62.0498 37.45C63.2399 37.7915 66.217 37.6623 67.3467 37.2179C69.376 36.4196 71.1911 34.453 71.8339 32.3542C72.3301 30.7344 72.3268 28.2809 71.8287 26.8974C71.4186 25.7583 70.5471 24.524 69.6625 23.8235C68.294 22.7396 66.3568 22.197 64.4481 22.2143ZM63.7054 22.8435C63.9415 22.8416 64.2111 22.8458 64.5409 22.859C65.8953 22.9132 66.2324 22.988 66.996 23.4057C69.6905 24.8797 71.0329 28.5403 70.2453 32.2562C69.7878 34.4147 68.8351 35.7148 67.0991 36.5474C66.2656 36.9472 65.9129 37.0183 64.871 37.0065C64.1902 36.9987 63.4475 36.9365 63.2205 36.8672C60.9741 36.1814 59.243 34.1135 58.6766 31.4413C57.8707 27.6388 59.2485 24.1987 61.9982 23.1633C62.6134 22.9316 62.9969 22.8493 63.7054 22.8435Z" fill="currentColor"/>
<path d="M78.8148 37.4758C78.7731 37.3623 78.0284 34.8928 77.1597 31.988C74.9238 24.5113 74.6353 23.61 74.3653 23.2577C74.2333 23.0856 73.7701 22.8492 73.336 22.7325C72.6045 22.5358 72.7342 22.5212 75.1048 22.5338C76.5118 22.5413 77.4642 22.5778 77.2212 22.615C76.4829 22.7279 76.3562 23.0257 76.5744 24.1351C76.7805 25.1827 79.3768 34.582 79.4918 34.6971C79.5299 34.7351 79.5874 34.7353 79.6196 34.6976C79.6518 34.6597 80.6535 31.9969 81.8456 28.7801C83.8989 23.2392 84.2206 22.4813 84.4304 22.691C84.4791 22.7397 85.4515 25.4451 86.5914 28.7031C87.7312 31.961 88.6953 34.658 88.7337 34.6965C88.7721 34.7349 88.8361 34.7338 88.8759 34.694C89.0983 34.4716 92.1045 24.0409 92.1045 23.4918C92.1045 22.9435 92.0428 22.8212 91.7331 22.7551C91.5289 22.7115 91.2132 22.6444 91.0317 22.6061C90.8501 22.5677 91.7043 22.5352 92.9297 22.534C94.2332 22.5327 94.9464 22.5823 94.6483 22.6536C94.368 22.7206 94.051 22.8296 93.9437 22.8959C93.5176 23.1593 92.8816 24.8242 90.8805 30.9153C89.7324 34.4101 88.7197 37.3809 88.6301 37.5171C88.488 37.7331 88.4386 37.7274 88.2432 37.4722C88.12 37.3113 87.4934 35.6774 86.8509 33.8412C86.2084 32.005 85.2981 29.4022 84.828 28.0571C84.358 26.7121 83.9135 25.6723 83.8402 25.7465C83.7669 25.8207 82.7694 28.4017 81.6235 31.4822C80.4776 34.5626 79.4678 37.2177 79.3797 37.3825C79.1941 37.7293 78.9241 37.7738 78.8148 37.4758Z" fill="currentColor"/>
<path d="M120.902 37.3464C120.844 37.2526 121.484 36.12 122.324 34.8295C126.699 28.1101 129.603 23.5953 129.682 23.3891C129.755 23.1992 129.437 23.1594 127.896 23.1653C126.865 23.1693 125.25 23.2364 124.308 23.3144C122.724 23.4456 122.557 23.4929 122.111 23.939C121.846 24.2045 121.525 24.713 121.398 25.069C121.113 25.8681 121.099 25.6015 121.337 23.9008L121.521 22.5804L126.66 22.6361C129.486 22.6667 131.819 22.7127 131.845 22.7383C131.871 22.7639 129.884 25.881 127.43 29.6652C124.976 33.4495 122.968 36.5786 122.968 36.6188C122.968 36.7331 129.631 36.7043 130.215 36.5875C130.901 36.4503 131.692 35.696 131.82 35.0567C131.876 34.7759 131.995 34.5462 132.085 34.5462C132.247 34.5462 132.212 34.8783 131.863 36.6506L131.692 37.5171H126.35C122.849 37.5171 120.971 37.4582 120.902 37.3464Z" fill="currentColor"/>
<path d="M8.17444 37.2078C9.06251 37.0176 9.08155 36.8632 9.08421 29.8327C9.08606 24.9293 9.03726 23.3202 8.88034 23.1107C8.76687 22.9591 8.37695 22.7667 8.01385 22.6831C7.51343 22.5678 7.95276 22.5311 9.82935 22.5313C11.4569 22.5315 12.1099 22.5776 11.7354 22.6658C10.7968 22.8867 10.7371 23.0908 10.7371 26.0779V28.7696H15.1108H19.4845V26.0779C19.4845 24.1845 19.4233 23.3028 19.2782 23.1051C19.1647 22.9505 18.7377 22.7588 18.3292 22.6791C17.7639 22.5687 18.1777 22.5331 20.0622 22.5301C21.7707 22.5275 22.3845 22.572 22.0429 22.6738C21.7707 22.755 21.455 22.9485 21.3415 23.1038C21.043 23.5119 21.0487 36.0982 21.3476 36.6918C21.5073 37.009 21.7261 37.1273 22.2942 37.2034C22.7005 37.2578 21.9189 37.3024 20.5573 37.3024C19.1956 37.3025 18.2804 37.2721 18.5234 37.2349C19.3557 37.1076 19.3979 36.9174 19.4548 33.0358L19.5076 29.4298H15.1223H10.7371V32.7061C10.7371 36.9199 10.7675 37.0128 12.2225 37.242C12.4494 37.2778 11.5211 37.3083 10.1594 37.31C8.79781 37.3116 7.90457 37.2656 8.17444 37.2078Z" fill="currentColor"/>
<path d="M44.658 22.5186C42.7903 22.5298 41.7717 22.5854 42.1462 22.6578C43.3871 22.8979 43.3325 22.5581 43.3325 29.8889C43.3325 36.9673 43.3163 37.1046 42.466 37.2334C42.2163 37.2712 43.089 37.3044 44.4053 37.3056C45.7215 37.3067 46.6128 37.2794 46.3858 37.2437C45.395 37.0876 45.2571 37.0063 45.0809 36.501C44.9804 36.2125 44.9004 34.8865 44.9004 33.525V31.07L46.3446 31.1164L47.7887 31.1628L48.6139 32.3027C50.6001 35.0463 52.0052 36.6892 52.6472 37.0168C53.1845 37.2909 53.5984 37.3473 54.9218 37.3314C56.3345 37.3144 56.436 37.294 55.7367 37.1767C55.2968 37.1028 54.6606 36.8634 54.3235 36.6403C53.6291 36.1807 52.1438 34.5434 50.316 32.2304L49.073 30.6574L49.795 29.8373C51.788 27.5724 52.0133 25.1957 50.3882 23.612C49.4371 22.6851 48.4399 22.4957 44.658 22.5186ZM46.587 23.0034C47.864 23.0414 48.7898 23.6338 49.3927 24.7879C49.7888 25.546 49.8518 25.8645 49.8518 27.0212C49.8518 28.5432 49.4662 29.5636 48.6655 30.1467C48.253 30.4472 46.7365 30.6832 46.3033 30.5129C46.2125 30.4773 45.8597 30.3997 45.5193 30.3427L44.9004 30.2396V26.7117V23.1787L45.6431 23.0653C45.9755 23.0154 46.2923 22.9946 46.587 23.0034Z" fill="currentColor"/>
<path d="M98.0711 37.2353C98.9088 37.1067 98.9539 36.723 98.952 29.734C98.9504 23.7665 98.9306 23.3322 98.6459 23.0176C98.4785 22.8326 98.1079 22.6519 97.8224 22.616C97.5369 22.5801 98.3802 22.5464 99.6965 22.5412C101.204 22.5352 101.885 22.58 101.538 22.6621C101.234 22.7338 100.9 22.8785 100.795 22.9837C100.657 23.1221 100.604 25.0109 100.604 29.8335C100.604 36.0886 100.623 36.5128 100.911 36.8307C101.079 37.0168 101.487 37.1977 101.818 37.2328C102.149 37.2678 101.343 37.2978 100.027 37.2995C98.7103 37.3012 97.8304 37.2723 98.0711 37.2353Z" fill="currentColor"/>
<path d="M109.479 37.2334C109.739 37.1941 110.06 36.9765 110.222 36.7291C110.48 36.3352 110.507 35.6736 110.507 29.7672V23.2406L108.424 23.2646C106.141 23.2909 105.79 23.3958 105.3 24.2001C104.991 24.7064 104.98 24.7106 104.995 24.3134C105.003 24.0865 105.097 23.5294 105.203 23.0756C105.38 22.3205 105.432 22.2573 105.806 22.3328C106.032 22.3782 108.723 22.4154 111.786 22.4154H117.357L117.347 23.6532C117.338 24.8291 117.328 24.8622 117.141 24.3153C116.866 23.5117 116.383 23.339 114.065 23.2143L112.058 23.1064L112.108 29.7995C112.154 36.048 112.178 36.515 112.464 36.8308C112.632 37.0169 113.041 37.1978 113.372 37.2328C113.702 37.2678 112.859 37.2979 111.497 37.2995C110.136 37.3012 109.228 37.2714 109.479 37.2334Z" fill="currentColor"/>
</svg>
