<?xml version="1.0" encoding="UTF-8"?> <svg xmlns="http://www.w3.org/2000/svg" width="82" height="85" viewBox="0 0 82 85" fill="none"><g clip-path="url(#clip0)"><path d="M50.9376 0L48.3483 28.0014L43.9308 4.3967L30.0658 7.74489L34.4834 31.3496L14.4951 36.1693L18.0291 55.0249L53.1682 63.5011L61.2073 43.0154L65.03 1.69172L50.9376 0ZM39.8369 40.6188C39.1109 41.3766 38.1486 41.3061 37.1339 40.9184C36.1192 40.5395 35.6643 39.1386 36.0492 37.4557C36.3379 36.2045 37.685 36.0195 38.3586 36.0019C38.6122 35.9931 38.8659 36.0547 39.1021 36.1781C39.5832 36.4248 40.388 36.9446 40.5542 37.7464C40.7904 38.8919 40.563 39.8611 39.8369 40.6188ZM50.0104 41.9141C49.4768 42.9538 48.0946 43.0859 46.7388 42.337C45.8203 41.826 45.829 40.5307 45.934 39.7377C45.9865 39.306 46.1439 38.9007 46.3801 38.5571C46.7038 38.0901 47.2549 37.4733 47.8847 37.4557C48.9082 37.4204 49.7917 37.9491 50.2903 38.8919C50.7889 39.8347 50.544 40.8744 50.0104 41.9141Z" fill="#2FB0A9"></path><path d="M58.8098 73.5632C57.5589 73.5632 56.5092 74.1359 55.8444 75.1933L55.547 73.8099H52.6865L53.1501 75.951V84.762H55.9319V77.7837C56.308 77.0612 57.0166 76.6207 57.9351 76.6207C58.5037 76.6207 59.0198 76.7704 59.5009 77.1053L60.8218 74.1095C60.2095 73.7306 59.5009 73.5632 58.8098 73.5632Z" fill="#2FB0A9"></path><path d="M65.135 73.5809C61.9772 73.5809 59.6328 75.8982 59.6328 79.2905C59.6328 82.6827 61.9772 85 65.1263 85C68.2842 85 70.6198 82.6915 70.6198 79.2905C70.6373 75.8982 68.2929 73.5809 65.135 73.5809ZM65.135 82.0483C63.5255 82.0483 62.3358 80.9646 62.3358 79.2905C62.3358 77.59 63.5255 76.5326 65.135 76.5326C66.7621 76.5326 67.9343 77.59 67.9343 79.2905C67.943 80.9734 66.7708 82.0483 65.135 82.0483Z" fill="#2FB0A9"></path><path d="M76.5061 73.5809C73.3483 73.5809 71.0039 75.8982 71.0039 79.2905C71.0039 82.6827 73.3483 85 76.4974 85C79.6553 85 81.9996 82.6915 81.9996 79.2905C82.0084 75.8982 79.664 73.5809 76.5061 73.5809ZM76.5061 82.0483C74.8966 82.0483 73.7069 80.9646 73.7069 79.2905C73.7069 77.59 74.8966 76.5326 76.5061 76.5326C78.1332 76.5326 79.3054 77.59 79.3054 79.2905C79.3054 80.9734 78.1419 82.0483 76.5061 82.0483Z" fill="#2FB0A9"></path><path d="M11.057 68.9551H8.27523V75.1316C7.43546 74.1536 6.28952 73.5809 4.93365 73.5809C2.15191 73.5809 0 75.8894 0 79.2904C0 82.6827 2.15191 85 4.93365 85C6.31577 85 7.50544 84.4096 8.34521 83.3876L8.63388 84.7709H11.5381L11.057 82.4976V68.9551ZM5.49349 82.0483C3.88393 82.0483 2.69426 80.9645 2.69426 79.2904C2.69426 77.5899 3.88393 76.5326 5.49349 76.5326C7.12055 76.5326 8.29272 77.5899 8.29272 79.2904C8.30147 80.9733 7.12929 82.0483 5.49349 82.0483Z" fill="#2FB0A9"></path><path d="M36.425 82.6916L34.2905 73.8188H31.3076L34.2118 84.771H38.6818L41.586 73.8188H38.5594L36.425 82.6916Z" fill="#2FB0A9"></path><path d="M46.8346 73.5809C43.703 73.5809 41.4023 75.8718 41.4023 79.2905C41.4023 82.7708 43.6855 85 47.2108 85C48.7591 85 50.2812 84.5771 51.5583 83.7489L50.4911 81.3258C49.4851 81.8545 48.3829 82.1717 47.2545 82.1717C45.7936 82.1717 44.7702 81.599 44.324 80.5416H52.1444C52.2319 80.1363 52.2669 79.7398 52.2669 79.2464C52.2669 75.8542 49.9488 73.5809 46.8346 73.5809ZM44.1578 78.2948C44.4728 77.0437 45.4087 76.3652 46.8346 76.3652C48.278 76.3652 49.2227 77.0437 49.5114 78.2948H44.1578Z" fill="#2FB0A9"></path><path d="M17.3991 73.5544C14.2674 73.5544 11.9668 75.8453 11.9668 79.264C11.9668 82.7443 14.2412 84.9735 17.7752 84.9735C19.3235 84.9735 20.8456 84.5506 22.1228 83.7224L21.0556 81.2993C20.0496 81.828 18.9474 82.1452 17.8189 82.1452C16.3581 82.1452 15.3346 81.5725 14.8885 80.5152H22.7089C22.7963 80.1098 22.8313 79.7134 22.8313 79.2199C22.8313 75.8277 20.5132 73.5544 17.3991 73.5544ZM14.6698 78.2948C14.9847 77.0436 15.9207 76.3652 17.3466 76.3652C18.7899 76.3652 19.7259 77.0436 20.0233 78.2948H14.6698Z" fill="#2FB0A9"></path><path d="M29.3833 68.7437C28.3773 68.7437 27.625 69.5102 27.625 70.5235C27.625 71.5368 28.3773 72.3033 29.3833 72.3033C30.363 72.3033 31.1153 71.5368 31.1153 70.5235C31.1153 69.5102 30.363 68.7437 29.3833 68.7437Z" fill="#2FB0A9"></path><path d="M30.7651 73.8188H27.9834V84.771H30.7651V73.8188Z" fill="#2FB0A9"></path><path d="M23.6533 84.7709H23.6621H26.4351V68.9551H23.6533V84.7709Z" fill="#2FB0A9"></path></g><defs><clipPath id="clip0"><rect width="82" height="85" fill="white"></rect></clipPath></defs></svg> 