<svg width="140" height="82" viewBox="0 0 140 82" fill="none" xmlns="http://www.w3.org/2000/svg">
<g clip-path="url(#clip0_4_324)">
<path d="M104.813 16.4104C104.813 16.3677 105.935 13.3429 109.101 4.84923L110.885 0.0629883H117.795L118.599 2.14186C120.074 5.95575 124.055 16.366 124.055 16.4095C124.055 16.433 122.647 16.4523 120.927 16.4523H117.799L116.37 12.4154C114.342 6.68481 114.37 6.76011 114.286 6.8481C114.243 6.89221 113.512 8.92963 112.66 11.3759C111.808 13.8222 111.06 15.9652 110.998 16.138L110.886 16.4523H107.85C106.18 16.4523 104.813 16.4334 104.813 16.4104Z" fill="black"/>
<path d="M4.7379 10.6024V4.75255H0V0.0146484H15.8575V4.75255H11.2163V16.4523H4.7379V10.6024ZM14.6343 15.835C14.7576 15.4956 16.1384 11.7978 17.7027 7.61765L20.547 0.0176701L23.99 0.0160988L27.4329 0.0146484L29.3454 5.01845C30.3973 7.77054 31.7958 11.4304 32.4533 13.1516C33.1108 14.8727 33.6488 16.32 33.6488 16.3679C33.6488 16.4183 32.3367 16.4443 30.5388 16.4295L27.4287 16.4039L25.7544 11.7144C24.8335 9.13511 24.0456 6.94528 24.0033 6.84798C23.9484 6.72168 23.4433 8.06908 22.2367 11.5607L20.547 16.4503L17.4786 16.4513L14.4102 16.4523L14.6343 15.835ZM37.033 10.6024V4.75255H32.3918V0.0146484H48.1525V4.75255H43.608V16.4523H37.033V10.6024ZM46.7022 16.4104C46.7022 16.3677 47.8238 13.3429 50.9892 4.84924L52.7732 0.0629944H59.6838L60.4878 2.14187C61.9628 5.95576 65.9438 16.366 65.9438 16.4095C65.9438 16.433 64.5361 16.4523 62.8156 16.4523H59.6875L58.2588 12.4154C56.2307 6.68481 56.2588 6.76011 56.1742 6.8481C56.1319 6.89222 55.4004 8.92964 54.5486 11.3759C53.6965 13.8222 52.9491 15.9652 52.8872 16.138L52.7748 16.4523H49.7385C48.0685 16.4523 46.7022 16.4334 46.7022 16.4104Z" fill="black"/>
<path d="M74.2593 0V16.4522H79.674V12.6044L81.632 12.5593C83.8505 12.5082 84.3586 12.4116 85.6567 11.793C87.1397 11.0864 88.2251 9.71113 88.6723 7.97236C88.9167 7.02285 88.9384 5.45995 88.7203 4.5195C88.2368 2.43434 86.6867 0.93078 84.3581 0.287779C83.6271 0.085814 83.3651 0.0737275 78.9245 0.0378307L74.2593 0ZM79.674 4.65583L80.7618 4.65632C82.0913 4.65692 82.5143 4.76594 82.9745 5.22619C83.7715 6.02318 83.5292 7.4541 82.5012 8.0218C82.1617 8.20914 81.9018 8.25434 80.8853 8.30245L79.6741 8.35949V6.50785L79.674 4.65583ZM90.987 8.23343V0.0146246H96.6918V11.7143H102.977V16.4522H90.987V8.23343ZM127.536 14.1558V11.8594L124.593 5.937L121.649 0.0146246L124.714 0.0192175L127.778 0.0239312L129.27 3.11336C130.09 4.81272 130.793 6.2029 130.831 6.2029C130.87 6.2029 131.627 4.81054 132.515 3.10876L134.128 0.0146246H140L139.634 0.667295C139.396 1.09243 139.161 1.5195 138.931 1.94846C138.745 2.29414 137.455 4.66768 136.063 7.223L133.531 11.869V16.4522H127.536L127.536 14.1558Z" fill="black"/>
</g>
<defs>
<clipPath id="clip0_4_324">
<rect width="140" height="16.4524" fill="white"/>
</clipPath>
</defs>
</svg>
