<svg width="140" height="82" viewBox="0 0 140 82" fill="none" xmlns="http://www.w3.org/2000/svg">
<g clip-path="url(#clip0_4_135)">
<path fill-rule="evenodd" clip-rule="evenodd" d="M18.3045 1.6894H1.30755V14.8851C1.30755 19.5064 5.11241 23.2528 9.80579 23.2528C14.4997 23.2528 18.3045 19.5064 18.3045 14.8851V1.6894ZM9.80579 24.5403C4.39931 24.5403 0 20.209 0 14.8851V0.402344H19.6121V14.8851C19.6121 20.209 15.2132 24.5403 9.80579 24.5403ZM8.7813 6.02063C6.97162 6.55272 5.64789 8.20493 5.64789 10.1575V14.785C5.64789 16.7375 6.97162 18.3894 8.7813 18.9223V6.02063ZM14.421 10.1575C14.421 7.77585 12.4531 5.83858 10.0342 5.83858V14.4764C12.4531 14.4764 14.421 12.5392 14.421 10.1575ZM10.0342 19.1039V20.338C6.92471 20.338 4.39454 17.8471 4.39454 14.7846V10.1575C4.39454 7.09068 6.91953 4.60409 10.0342 4.60409C13.1493 4.60409 15.6743 7.09068 15.6743 10.1575C15.6743 13.2243 13.1493 15.7109 10.0342 15.7109V19.1039Z" fill="black"/>
<path d="M28.7269 6.66931L28.6638 6.7468V17.4415L28.7427 17.5189H30.4145L30.4933 17.4415V13.4581H32.1336C34.4677 13.4581 35.9818 11.9236 35.9818 10.0637C35.9818 8.20379 34.4677 6.66931 32.1336 6.66931H28.7269ZM30.4933 8.48275H32.0547C33.1745 8.48275 33.9 9.08724 33.9 10.0637C33.9 11.0402 33.1745 11.6602 32.0547 11.6602H30.4933V8.48275Z" fill="black"/>
<path d="M37.3677 10.2342L37.2888 10.3116V17.4414L37.3677 17.5189H39.0395L39.1183 17.4414V12.5126C39.5441 12.0321 40.2696 11.7376 40.9951 11.7376C41.3894 11.7376 42.036 11.8151 42.5091 12.2026L42.588 12.1251L42.5091 10.3116C42.036 10.0792 41.5628 10.0017 41.0897 10.0017C40.38 10.0017 39.6703 10.2342 39.1183 10.5442V10.3116L39.0395 10.2342H37.3677Z" fill="black"/>
<path d="M47.198 10.0017C44.99 10.0017 43.2551 11.7067 43.2551 13.8766C43.2551 16.0465 44.99 17.7514 47.198 17.7514C49.406 17.7514 51.1409 16.0465 51.1409 13.8766C51.1409 11.7067 49.406 10.0017 47.198 10.0017ZM47.198 11.7376C48.3967 11.7376 49.2483 12.6366 49.2483 13.8766C49.2483 15.1165 48.3967 16.0155 47.198 16.0155C45.9836 16.0155 45.1319 15.1165 45.1319 13.8766C45.1319 12.6366 45.9836 11.7376 47.198 11.7376Z" fill="black"/>
<path d="M58.4399 6.66931L58.361 6.7468V10.5442C57.8721 10.2342 57.1781 10.0017 56.4684 10.0017C54.2604 10.0017 52.5886 11.7221 52.5886 13.8766C52.5886 16.031 54.2604 17.7515 56.4684 17.7515C57.1781 17.7515 57.8721 17.5189 58.361 17.209V17.4415L58.4399 17.5189H60.1116L60.1905 17.4415V6.7468L60.1116 6.66931H58.4399ZM58.361 15.1785C57.8406 15.783 57.2097 16.0156 56.5315 16.0156C55.3486 16.0156 54.4654 15.101 54.4654 13.8766C54.4654 12.6521 55.3486 11.7377 56.5315 11.7377C57.2097 11.7377 57.8406 12.0477 58.361 12.5746V15.1785Z" fill="black"/>
<path d="M62.3765 10.2341L62.2976 10.3116V14.3415C62.2976 16.434 63.4804 17.7514 65.8462 17.7514C66.5559 17.7514 67.2656 17.5189 67.8176 17.2089V17.4414L67.8965 17.5189H69.5683L69.6471 17.4414V10.3116L69.5683 10.2341H67.8965L67.8176 10.3116V15.2405C67.3918 15.721 66.6663 16.0155 65.9408 16.0155C64.758 16.0155 64.1271 15.38 64.1271 14.1401V10.3116L64.0482 10.2341H62.3765Z" fill="black"/>
<path d="M78.126 12.6056V10.7766C77.4952 10.3116 76.6277 10.0017 75.6026 10.0017C73.158 10.0017 71.502 11.7376 71.502 13.8766C71.502 16.0155 73.158 17.7514 75.6026 17.7514C76.6277 17.7514 77.4952 17.4414 78.126 16.9764V15.1475L78.0471 15.07C77.2585 15.7365 76.4069 16.0155 75.6026 16.0155C74.2304 16.0155 73.3788 15.07 73.3788 13.8766C73.3788 12.6831 74.2304 11.7376 75.6026 11.7376C76.4069 11.7376 77.2585 12.0166 78.0471 12.6831L78.126 12.6056Z" fill="black"/>
<path d="M80.4895 8.37415L80.4106 8.45163V10.2341H79.1489L79.0701 10.3115V11.97L79.1489 12.0475H80.4106V14.5275C80.4106 16.5423 81.4357 17.7513 83.4391 17.7513C83.9436 17.7513 84.7474 17.5343 85.1738 17.2864V15.5504L85.095 15.4729C84.4795 15.9069 83.88 16.0154 83.4391 16.0154C82.8075 16.0154 82.2556 15.6124 82.2556 14.3724V12.0475H85.095L85.1738 11.97V10.3115L85.095 10.2341H82.2556V8.46708L82.1767 8.37415H80.4895Z" fill="black"/>
<path d="M95.1903 9.11817L96.5935 8.0952C95.9 7.07225 94.9852 6.43677 93.6922 6.43677C92.0041 6.43677 90.6798 7.67673 90.6798 9.31964C90.6798 12.3421 95.4269 12.2181 95.4269 14.2641C95.4269 15.225 94.78 15.8605 93.8499 15.8605C93.0453 15.8605 92.4298 15.4265 91.9888 14.4035H91.8311L90.3796 15.442C90.9316 16.899 92.2407 17.7514 93.8499 17.7514C95.9 17.7514 97.477 16.1705 97.477 14.2641C97.477 10.6991 92.7299 10.7456 92.7299 9.31964C92.7299 8.73068 93.0927 8.32773 93.6922 8.32773C94.228 8.32773 94.607 8.60669 95.0326 9.11817H95.1903Z" fill="black"/>
<path d="M105.464 12.6056V10.7766C104.833 10.3116 103.966 10.0017 102.941 10.0017C100.497 10.0017 98.8398 11.7376 98.8398 13.8766C98.8398 16.0155 100.497 17.7514 102.941 17.7514C103.966 17.7514 104.833 17.4414 105.464 16.9764V15.1475L105.385 15.07C104.597 15.7365 103.745 16.0155 102.941 16.0155C101.568 16.0155 100.717 15.07 100.717 13.8766C100.717 12.6831 101.568 11.7376 102.941 11.7376C103.745 11.7376 104.597 12.0166 105.385 12.6831L105.464 12.6056Z" fill="black"/>
<path d="M107.308 6.66931L107.229 6.7468V17.4415L107.308 17.5189H108.979L109.058 17.4415V12.5127C109.484 12.0321 110.209 11.7377 110.935 11.7377C112.117 11.7377 112.748 12.3731 112.748 13.6131V17.4415L112.827 17.5189H114.499L114.578 17.4415V13.4116C114.578 11.3192 113.395 10.0017 111.03 10.0017C110.32 10.0017 109.61 10.2342 109.058 10.5442V6.7468L108.979 6.66931H107.308Z" fill="black"/>
<path d="M120.218 10.0017C118.01 10.0017 116.275 11.7067 116.275 13.8766C116.275 16.0465 118.01 17.7514 120.218 17.7514C122.426 17.7514 124.161 16.0465 124.161 13.8766C124.161 11.7067 122.426 10.0017 120.218 10.0017ZM120.218 11.7376C121.417 11.7376 122.268 12.6366 122.268 13.8766C122.268 15.1165 121.417 16.0155 120.218 16.0155C119.003 16.0155 118.152 15.1165 118.152 13.8766C118.152 12.6366 119.003 11.7376 120.218 11.7376Z" fill="black"/>
<path d="M129.551 10.0017C127.344 10.0017 125.609 11.7067 125.609 13.8766C125.609 16.0465 127.344 17.7514 129.551 17.7514C131.759 17.7514 133.494 16.0465 133.494 13.8766C133.494 11.7067 131.759 10.0017 129.551 10.0017ZM129.551 11.7376C130.75 11.7376 131.602 12.6366 131.602 13.8766C131.602 15.1165 130.75 16.0155 129.551 16.0155C128.337 16.0155 127.485 15.1165 127.485 13.8766C127.485 12.6366 128.337 11.7376 129.551 11.7376Z" fill="black"/>
<path d="M135.273 6.66931L135.194 6.7468V14.8686C135.194 16.651 136.173 17.7515 137.986 17.7515C138.538 17.7515 139.153 17.5189 139.548 17.2865V15.473L139.468 15.3955C138.995 15.8605 138.522 16.0156 138.018 16.0156C137.418 16.0156 137.024 15.6281 137.024 14.7601V6.7468L136.945 6.66931H135.273Z" fill="black"/>
</g>
<defs>
<clipPath id="clip0_4_135">
<rect width="140" height="24.9425" fill="white"/>
</clipPath>
</defs>
</svg>
