<svg width="140" height="82" viewBox="0 0 140 82" fill="none" xmlns="http://www.w3.org/2000/svg">
<g clip-path="url(#clip0_4_259)">
<path d="M116.16 13.6541V13.7174C124.323 14.4038 126.72 20.2013 126.604 23.5699C126.414 33.3273 118.853 41.184 106.656 42.1449V42.1977C120.057 41.3952 127.903 34.4678 128.072 24.5414C128.051 20.8877 125.389 14.1926 116.16 13.6541Z" fill="black"/>
<path d="M106.656 42.0289C111.633 41.6955 116.305 39.5125 119.754 35.9092C123.203 32.3059 125.179 27.5429 125.294 22.5563C125.294 19.4728 123.182 14.404 116.086 13.8337V13.8865C121.957 14.5096 124.027 18.7864 123.985 21.5848C123.816 30.9937 116.519 40.9624 106.719 41.9656L106.656 42.0289Z" fill="black"/>
<path d="M106.741 41.8492C115.41 40.9516 122.391 29.8002 122.581 20.5602C122.581 18.0575 120.986 14.5621 116.034 14.0024V14.0658C119.93 14.6572 121.314 17.3711 121.314 19.5992C121.155 28.6492 114.354 40.7932 106.889 41.7752L106.741 41.8492Z" fill="black"/>
<path d="M106.857 41.6065V41.6804C113.193 40.7617 119.729 27.4455 119.888 18.5751C119.931 17.4755 119.544 16.4022 118.809 15.5837C118.073 14.7652 117.047 14.2661 115.949 14.1927V14.2561C116.723 14.3861 117.418 14.8053 117.895 15.4287C118.371 16.0522 118.593 16.8334 118.515 17.6141C118.272 26.2839 111.936 40.6666 106.857 41.6065ZM102.876 38.1639C103.023 29.8215 109.602 15.1642 114.492 14.1716V14.0977C108.367 15.0058 101.598 28.5543 101.439 37.1501C101.398 37.7038 101.468 38.2602 101.645 38.7864C101.823 39.3125 102.104 39.7977 102.472 40.2133C102.84 40.6288 103.288 40.9662 103.789 41.2055C104.29 41.4448 104.834 41.5812 105.389 41.6065V41.5431C105.001 41.4889 104.627 41.3581 104.29 41.1583C103.953 40.9585 103.659 40.6937 103.425 40.3793C103.191 40.0649 103.022 39.7071 102.928 39.3268C102.834 38.9465 102.816 38.5512 102.876 38.1639Z" fill="black"/>
<path d="M100.183 36.1786C100.341 27.361 107.427 14.9846 114.629 14.0026V13.9392C106.181 14.8368 98.9683 26.1571 98.7888 35.1648C98.7888 37.6781 100.436 41.3952 105.336 41.7965V41.7331C101.513 41.2368 100.14 38.4067 100.183 36.1786Z" fill="black"/>
<path d="M97.4899 34.1932C97.6483 24.9532 105.178 14.8156 114.713 13.8124V13.749C109.778 14.1639 105.163 16.3657 101.735 19.9411C98.3074 23.5166 96.3023 28.2201 96.0959 33.1689C96.0959 36.2524 98.208 41.4901 105.315 41.9548V41.8914C99.19 41.3423 97.4476 36.9599 97.4899 34.1932Z" fill="black"/>
<path d="M94.7974 32.2082C94.9664 22.5035 103.33 14.5624 114.798 13.6437V13.5803C101.957 14.3723 93.5513 21.2997 93.3824 31.1838C93.3085 34.8376 95.9801 41.596 105.199 42.124C97.1523 41.4904 94.7446 35.5768 94.7974 32.2082ZM88.2713 13.7915C83.8467 13.1896 78.5033 15.7874 75.4937 20.3493L75.5465 20.4232C78.3977 16.3259 83.2131 13.8866 87.1625 14.4357C89.8237 14.7947 91.6505 16.8117 91.2809 20.7717C90.3411 30.8565 81.8403 42.1874 68.239 42.1557V42.2296C74.3062 42.4629 80.2347 40.378 84.8204 36.3984C89.406 32.4188 92.3049 26.843 92.9283 20.8034C93.2979 16.4315 91.2704 14.2034 88.2713 13.7915Z" fill="black"/>
<path d="M89.6861 20.7294C90.0135 17.2552 88.4612 15.4494 86.0218 15.1221C82.5053 14.6469 78.2285 16.7906 75.6413 20.5605L75.6941 20.6238C78.0701 17.3714 81.8717 15.3438 84.9236 15.7662C87.0356 16.0514 88.4295 17.6354 88.0916 20.6978C87.2784 29.3781 78.9994 41.3109 68.281 41.9762C80.256 41.9656 88.7991 30.1912 89.6861 20.7294Z" fill="black"/>
<path d="M68.4287 41.7648V41.8281C78.4079 40.6348 85.7999 28.512 86.5919 20.6553C86.8242 18.0787 85.6415 16.7059 83.878 16.4313C81.2169 16.0617 77.901 17.8569 75.8524 20.7292V20.7926C77.806 18.2688 80.5305 16.7692 82.6847 17.0649C84.2054 17.2761 85.1346 18.4272 84.934 20.5286C84.2687 27.6883 77.4786 39.8745 68.4287 41.7648Z" fill="black"/>
<path d="M68.5449 41.5219V41.617C75.9369 39.6317 82.7904 26.833 83.3289 20.497C83.4768 18.8813 82.7587 17.9309 81.576 17.7725C79.8124 17.5296 77.5737 18.8285 75.9369 20.9405V21.0038C77.2992 19.3776 79.1049 18.2266 80.4249 18.4061C81.2803 18.5222 81.84 19.272 81.7238 20.4653C81.312 25.9987 74.976 38.7763 68.5449 41.5219ZM67.3833 34.3306C66.5976 36.0538 66.0368 37.8709 65.7148 39.7373C65.7259 40.0899 65.8292 40.4334 66.0145 40.7336C66.1998 41.0338 66.4606 41.2801 66.7708 41.448C66.8726 41.4993 66.9786 41.5416 67.0876 41.5747V41.4797C66.9378 41.3344 66.8265 41.154 66.7638 40.9549C66.7011 40.7558 66.689 40.5442 66.7286 40.3392C67.1651 38.445 67.806 36.6038 68.64 34.848L82.368 0L80.4355 0.38016C80.5411 0.82368 76.8345 9.93696 76.6867 10.391L67.3833 34.3306Z" fill="black"/>
<path d="M64.8594 33.2428C64.1616 34.9149 63.6585 36.6618 63.3599 38.4489C63.191 40.3603 64.8594 41.3951 67.0982 41.7331V41.6697C65.567 41.3951 64.3842 40.6137 64.5215 39.1353C64.8732 37.3247 65.4111 35.5553 66.1266 33.8553L75.2716 10.3276C75.4934 9.70457 78.9676 1.29881 78.4396 0.760254L76.5599 1.14041V1.24601C76.6338 3.29465 74.2578 8.90201 73.7721 10.222L64.8594 33.2428Z" fill="black"/>
<path d="M70.921 10.1058L62.304 32.1656C61.6153 33.7205 61.1256 35.3562 60.8467 37.0338C60.6144 39.7266 62.8215 41.5852 66.9504 41.8703C66.0996 41.7764 65.2629 41.5814 64.4583 41.2895C63.7036 41.1063 63.0426 40.6523 62.6006 40.0137C62.1587 39.3752 61.9667 38.5966 62.0611 37.8258C62.3593 36.0711 62.8773 34.361 63.6029 32.7359L72.3888 10.1586C72.8323 8.96531 75.3456 3.26291 74.7437 1.52051L72.9274 1.87955V1.98515C73.92 3.34739 71.5018 8.62739 70.921 10.1058Z" fill="black"/>
<path d="M67.7952 10.5599L59.833 31.0886C59.1758 32.5459 58.7278 34.0889 58.5024 35.6716C58.2173 39.0402 61.1424 41.7964 66.9504 42.0076C62.0823 41.733 59.4317 39.431 59.6957 36.3897C59.94 34.7628 60.4091 33.1777 61.0896 31.6799L69.3159 10.5599C70.0551 8.62744 72.241 3.886 71.0583 2.302L69.1891 2.68216V2.78776C70.4563 4.53016 68.64 8.44792 67.7952 10.5599Z" fill="black"/>
<path d="M66.8661 42.1344C60.3084 41.8493 57.0031 38.6496 57.3621 34.9325C57.5576 33.4466 57.9629 31.996 58.566 30.624L66.1586 11.0036C67.109 8.55364 68.8831 4.85764 67.4892 3.03076L65.7679 3.3898V3.4954C67.2357 5.14276 65.8735 7.84612 64.8703 10.5812L57.3093 30.0116C56.6994 31.3494 56.3039 32.7748 56.1372 34.2356C55.7781 38.28 59.3791 41.9444 66.845 42.1661L66.8661 42.1344ZM58.228 17.4029C58.0908 14.7946 56.549 13.6013 54.6799 13.6013C51.2796 13.6013 48.3439 16.2836 46.4959 19.9373V18.649C46.348 15.8084 44.3839 13.6013 40.8885 13.6013C33.4965 13.6013 29.8533 18.4695 28.6389 23.9818H28.7023C29.9906 18.818 33.4332 14.161 40.0754 14.161C40.7114 14.1043 41.3522 14.1793 41.9579 14.3813C42.5636 14.5833 43.1211 14.908 43.5958 15.3351C44.0704 15.7621 44.4519 16.2824 44.7165 16.8635C44.9811 17.4446 45.1231 18.074 45.1336 18.7124C45.3132 22.0599 44.2044 24.6682 43.0216 27.6778L37.636 41.7543H39.0722L44.4578 27.794C44.8168 26.833 45.1548 25.9354 45.461 25.0695C46.517 22.8519 47.837 20.5815 48.5234 20.5815C49.0303 20.5815 49.1887 21.0144 49.2204 21.4052C49.2263 23.5067 48.6762 25.5724 47.6258 27.3927L47.6892 27.456C49.3274 25.608 50.3044 23.2675 50.4664 20.8032C50.4664 20.0746 50.1074 19.5572 49.4104 19.5572C48.2594 19.5572 46.7916 21.9226 45.7144 24.4253C45.8412 24.024 45.9468 23.6228 46.0524 23.232C47.2034 20.7293 48.798 18.5962 50.2764 18.5962C51.1845 18.5962 51.7336 19.2192 51.7864 20.2436C51.9132 22.7357 49.6744 26.3684 47.7948 27.5616L47.8581 27.625C50.4136 26.4845 53.2226 22.7357 53.0642 19.6733C52.9903 18.3111 52.2722 17.5613 51.1317 17.5613C49.252 17.5613 47.4357 19.7472 46.1791 22.4506C46.1791 22.2394 46.2636 22.0282 46.2952 21.8064C47.6997 18.9024 49.7589 16.6004 52.0504 16.6004C53.2965 16.6004 54.2469 17.4452 54.3314 19.0925C54.532 22.7252 51.1 26.5901 47.9954 27.72L48.0588 27.7834C51.8709 26.8119 55.852 22.7252 55.6303 18.5223C55.5247 16.537 54.3948 15.576 52.9269 15.576C50.2869 15.5866 47.932 17.952 46.4642 21.12V20.6026C48.1432 17.2023 50.7938 14.6256 53.8562 14.6256C55.5036 14.6256 56.8658 15.6816 57.0242 17.9837C57.2776 22.8096 52.8002 26.8964 48.2383 27.9207L48.3016 27.9735C53.5816 27.1709 58.5132 22.7991 58.228 17.4029Z" fill="black"/>
<path d="M43.8134 18.8179C43.8034 18.2436 43.6764 17.6774 43.4402 17.1538C43.2039 16.6303 42.8634 16.1604 42.4393 15.773C42.0153 15.3855 41.5167 15.0886 40.974 14.9004C40.4314 14.7122 39.856 14.6367 39.2831 14.6784C33.3907 14.6784 30.0009 19.0608 28.8076 23.9818H28.8815C30.191 19.3987 33.19 15.2486 38.4595 15.2486C38.9651 15.2017 39.475 15.2606 39.9566 15.4218C40.4383 15.5829 40.881 15.8427 41.2566 16.1845C41.6322 16.5263 41.9324 16.9426 42.1381 17.407C42.3438 17.8713 42.4504 18.3734 42.4511 18.8813C42.599 21.6586 41.2895 24.721 40.2441 27.5088L34.6895 41.7542H36.1679L41.6063 27.625C42.7679 24.721 43.9718 21.8275 43.8134 18.8179Z" fill="black"/>
<path d="M41.184 18.9343C41.186 18.4922 41.0953 18.0545 40.918 17.6495C40.7406 17.2445 40.4804 16.8812 40.1542 16.5828C39.8279 16.2844 39.4428 16.0576 39.0237 15.917C38.6045 15.7763 38.1606 15.725 37.7204 15.7663C33.0951 15.7663 30.265 19.758 29.04 23.9925H29.1034C30.4023 20.0536 33.0634 16.3365 36.9072 16.3365C37.2753 16.3106 37.6447 16.3602 37.9928 16.4824C38.3409 16.6046 38.6603 16.7967 38.9314 17.047C39.2024 17.2973 39.4194 17.6004 39.5689 17.9377C39.7184 18.275 39.7973 18.6393 39.8007 19.0082C39.9168 21.2152 38.3962 24.7951 37.393 27.2978L31.68 41.7544H33.2112L38.8186 27.3928C39.8112 24.7845 41.2896 21.4898 41.184 18.9343Z" fill="black"/>
<path d="M38.4911 19.103C38.4937 18.7969 38.4323 18.4937 38.3109 18.2128C38.1895 17.9318 38.0107 17.6794 37.786 17.4716C37.5613 17.2638 37.2956 17.1052 37.0061 17.0061C36.7165 16.907 36.4094 16.8694 36.1045 16.8959C32.9365 16.8959 30.4127 20.3385 29.2088 23.9817H29.2828C30.5394 20.7292 32.6936 17.4556 35.2808 17.4556C35.5185 17.428 35.7593 17.4522 35.9867 17.5264C36.2142 17.6007 36.4228 17.7233 36.5984 17.8858C36.774 18.0484 36.9123 18.247 37.0039 18.468C37.0954 18.689 37.1381 18.9273 37.1288 19.1663C37.2239 20.9193 35.4498 24.9004 34.605 27.1075L28.7336 41.7542H30.2015L35.9672 27.2236C36.9599 24.9004 38.5967 21.1199 38.4911 19.103Z" fill="black"/>
<path d="M35.8302 19.2718C35.8462 19.0954 35.8234 18.9176 35.7634 18.7509C35.7034 18.5842 35.6077 18.4326 35.4829 18.3069C35.3582 18.1811 35.2074 18.0841 35.0412 18.0228C34.875 17.9615 34.6973 17.9373 34.5208 17.9518C32.6516 17.9518 30.6347 20.8981 29.4203 23.9605H29.4942C30.7192 21.236 32.6094 18.5115 33.7182 18.5115C34.1723 18.5115 34.468 18.7438 34.4996 19.3141C34.563 20.5074 32.5777 24.9848 31.7752 26.9173L25.7982 41.7013H27.2766L33.2008 27.0018C34.035 24.9531 35.9041 20.6974 35.8302 19.2718ZM19.684 31.8066L20.6344 29.8107L17.4136 13.3794C16.516 8.75409 17.5931 6.73713 21.2257 6.04017V5.97681H17.8676C16.8961 6.46257 14.8369 7.91985 15.988 13.3688L19.684 31.8066Z" fill="black"/>
<path d="M17.783 35.7771L18.7229 33.7918L14.4989 13.2738C13.7069 9.29265 14.0448 7.22289 15.3648 6.04017V5.97681H13.0838C12.3869 7.46577 12.1757 8.95473 12.9782 12.8936L17.783 35.7771ZM15.84 39.7371L16.7798 37.773L11.4998 12.8408C10.5706 8.96529 10.7818 7.19121 11.1619 5.97681H9.14496C9.1239 8.07373 9.394 10.1634 9.94752 12.1861L15.84 39.7371ZM7.29696 5.97681H4.92096V6.04017C5.97696 7.32849 6.29376 8.90193 7.13856 12.3762L13.4746 41.7646H14.9002L8.56416 12.2811C8.01676 10.2068 7.59361 8.10158 7.29696 5.97681ZM2.54496 5.97681H0V6.04017C2.3232 6.95889 3.46368 8.72241 4.3824 12.8514L10.6445 41.7541H12.0701L5.76576 12.6718C4.67808 7.62417 3.5376 6.69489 2.54496 5.97681ZM34.9219 5.97681C31.9229 7.72977 30.1382 10.9717 26.4 19.0078L26.495 19.0606C30.8141 10.9717 33.2746 7.75089 38.8502 6.07185V5.97681H34.9219ZM26.1888 18.8494L26.2838 18.9128C29.832 10.5598 30.7613 8.22609 32.208 6.04017V5.97681H29.3357V6.06129C29.6314 9.40881 28.512 12.4923 26.1888 18.8494Z" fill="black"/>
<path d="M25.9988 18.7227L26.0938 18.7861C28.3431 11.299 29.0718 7.99377 27.0865 5.97681H24.2881V6.04017C27.4561 7.15953 28.1108 10.3592 25.9988 18.7227ZM128.832 15.5864V17.012H128.621V15.5864H128.008V15.3858H129.466V15.5864H128.832ZM131.261 17.012V15.6286L130.754 16.9909H130.511L130.057 15.6286V17.012H129.856L129.92 15.3858H130.289L130.712 16.748L131.198 15.3858H131.535L131.599 17.012H131.261Z" fill="black"/>
</g>
<defs>
<clipPath id="clip0_4_259">
<rect width="132" height="42.24" fill="white"/>
</clipPath>
</defs>
</svg>
