<svg width="140" height="82" viewBox="0 0 140 82" fill="none" xmlns="http://www.w3.org/2000/svg">
<g clip-path="url(#clip0_4_124)">
<path fill-rule="evenodd" clip-rule="evenodd" d="M54.3247 27.9655L53.7959 25.5015V10.8136H50.743V17.5135C49.8246 16.4542 48.5613 15.8335 47.0703 15.8335C44.016 15.8335 41.6523 18.3423 41.6523 22.0262C41.6523 25.7105 44.016 28.2198 47.0703 28.2198C48.5851 28.2198 49.8937 27.5744 50.8121 26.4689L51.1331 27.9655H54.3247ZM113.209 19.6541L114.655 16.408C113.989 15.9927 113.209 15.8093 112.452 15.8093C111.074 15.8093 109.926 16.429 109.192 17.5826L108.87 16.0846H105.725L106.23 18.4095V27.9627H109.282V20.3887C109.695 19.6061 110.476 19.1231 111.486 19.1231C112.107 19.124 112.68 19.2845 113.209 19.6527V19.6541ZM117.364 22.0248C117.364 20.1833 118.673 19.0335 120.439 19.0335C122.231 19.0335 123.517 20.1833 123.517 22.0248C123.517 23.8448 122.231 25.0185 120.44 25.0185C118.673 25.0185 117.363 23.8453 117.363 22.0257L117.364 22.0248ZM44.6129 22.0248C44.6129 20.1833 45.9209 19.0335 47.6882 19.0335C49.4802 19.0335 50.7649 20.1833 50.7649 22.0248C50.7649 23.8448 49.4797 25.0185 47.6896 25.0185C45.9219 25.0185 44.6124 23.8453 44.6124 22.0257L44.6129 22.0248ZM133.962 25.0185C132.195 25.0185 130.886 23.8453 130.886 22.0257C130.886 20.1838 132.195 19.0335 133.962 19.0335C135.752 19.0335 137.037 20.1838 137.037 22.0257C137.037 23.8457 135.752 25.0185 133.962 25.0185ZM64.6772 20.944H58.8009C59.1453 19.586 60.1776 18.8487 61.7386 18.8487C63.3229 18.8487 64.3566 19.586 64.6772 20.944ZM101.202 20.944H95.326C95.6699 19.586 96.7027 18.8487 98.2637 18.8487C99.848 18.8487 100.882 19.586 101.202 20.944ZM88.2779 27.9664L91.4699 16.0865H88.1407L85.7999 25.7101L83.4573 16.086H80.1743L83.3663 27.965H88.2779V27.9664ZM75.4913 27.9664H78.5423V16.0851H75.4903V27.9655L75.4913 27.9664ZM66.9825 26.8277L65.8121 24.2037C64.7099 24.7791 63.4928 25.1244 62.2533 25.1244C60.6471 25.1244 59.5219 24.5028 59.0394 23.3511H67.6247C67.7166 22.9143 67.7633 22.477 67.7633 21.9473C67.7633 18.2635 65.2153 15.7999 61.7946 15.7999C58.3515 15.7999 55.8259 18.2873 55.8259 21.9935C55.8259 25.7689 58.3282 28.1862 62.2081 28.1862C63.9067 28.1862 65.5821 27.7256 66.9821 26.8282L66.9825 26.8277ZM133.962 15.8331C130.495 15.8331 127.925 18.3423 127.925 22.0257C127.925 25.7105 130.496 28.2193 133.962 28.2193C137.429 28.2193 140 25.7105 140 22.0267C140 18.3423 137.429 15.8331 133.962 15.8331ZM103.453 26.8604L102.282 24.2354C101.179 24.8113 99.9623 25.1561 98.7224 25.1561C97.1157 25.1561 95.9905 24.5355 95.5085 23.3828H104.095C104.187 22.946 104.232 22.5087 104.232 21.9795C104.232 18.2957 101.684 15.8321 98.2637 15.8321C94.8197 15.8321 92.295 18.3181 92.295 22.0257C92.295 25.8011 94.7977 28.2184 98.6771 28.2184C100.376 28.2198 102.051 27.7597 103.453 26.8613L103.453 26.8604ZM126.477 22.0257C126.477 18.3423 123.906 15.8331 120.44 15.8331C116.972 15.8331 114.402 18.3423 114.402 22.0257C114.402 25.7105 116.973 28.2193 120.439 28.2193C123.907 28.2193 126.478 25.7105 126.478 22.0267L126.477 22.0257ZM72.758 27.9659V10.8127H69.7051V27.965H72.758V27.9659ZM78.9334 12.5155C78.9334 11.4105 78.1074 10.5817 77.0285 10.5817C75.9271 10.5817 75.1011 11.4105 75.1011 12.5155C75.1011 13.6206 75.9271 14.4494 77.0294 14.4494C78.1074 14.4494 78.9334 13.6206 78.9334 12.5155ZM22.8275 16.4621L19.8455 2.58347L10.4981 4.55047L13.4778 18.4291L0 21.2627L2.38 32.3493L26.082 37.3333L31.5019 25.2873L34.0807 0.989333L24.5747 0L22.8275 16.4621ZM15.2656 24.0576C14.5815 23.8327 14.2772 23.0137 14.5367 22.0229C14.7299 21.2879 15.6389 21.1783 16.0939 21.1699C16.2666 21.1671 16.4369 21.2016 16.5933 21.2716C16.9153 21.4163 17.4599 21.7233 17.5705 22.1923C17.7305 22.869 17.5765 23.4369 17.0879 23.8798C16.5979 24.3245 15.9521 24.2839 15.2661 24.0581L15.2656 24.0576ZM21.7439 24.892C21.126 24.5924 21.1307 23.8294 21.1979 23.3641C21.2343 23.1107 21.3369 22.8718 21.4975 22.6702C21.7182 22.393 22.0869 22.0323 22.5125 22.0215C23.2055 22.0029 23.8014 22.3109 24.1379 22.8671C24.4757 23.4215 24.3068 24.0329 23.9512 24.6451C23.5933 25.2551 22.6613 25.3363 21.7439 24.892Z" fill="black"/>
</g>
<defs>
<clipPath id="clip0_4_124">
<rect width="140" height="37.3333" fill="white"/>
</clipPath>
</defs>
</svg>
