<svg width="140" height="82" viewBox="0 0 140 82" fill="none" xmlns="http://www.w3.org/2000/svg">
<g clip-path="url(#clip0_4_90)">
<path d="M21.3445 17.3089L21.9963 17.8966C22.0176 17.9877 22.4741 18.4749 27.7623 24.0501C29.81 26.2088 31.6356 28.1073 31.8194 28.269L32.1535 28.5631C32.5021 28.87 33.0291 28.8984 33.4929 28.8745C33.9567 28.8505 34.4129 28.6933 34.7931 28.4266C35.3722 28.0203 35.7632 27.3565 35.838 26.6531C35.9127 25.9496 35.6698 25.2185 35.189 24.6996L38.5824 21.4794C39.8279 22.8437 40.5168 24.7018 40.4617 26.5483C40.4065 28.3948 39.6079 30.2086 38.2831 31.4961C36.978 32.7645 35.1772 33.5088 33.3574 33.532C31.5376 33.5552 29.7184 32.8571 28.3681 31.6098C27.6227 30.9023 26.5772 29.7967 24.8116 27.9301C21.6838 24.6237 20.981 23.8722 19.1203 21.9642L18.1702 20.99" fill="currentColor"/>
<path d="M132.286 24.1325C132.269 24.0844 131.785 21.7848 131.211 19.0225C130.637 16.2602 130.152 14.0002 130.132 14.0005C130.113 14.0008 129.628 16.2609 129.054 19.023C128.48 21.7851 127.996 24.0843 127.979 24.1325L127.947 24.22H132.317L132.286 24.1325ZM120.332 33.4572C120.332 33.4163 121.905 27.2656 123.828 19.789C125.75 12.3123 127.344 6.10821 127.37 6.00251L127.417 5.81001H132.862V5.84842C132.862 5.86955 134.436 12.0042 136.36 19.4809C138.285 26.9576 139.879 33.1778 139.904 33.3031L139.95 33.5314L134.236 33.4948L133.874 31.7448C133.675 30.7823 133.474 29.8137 133.427 29.5923L133.342 29.1898H126.922L126.838 29.5923C126.792 29.8137 126.591 30.7823 126.391 31.7448L126.028 33.4948L120.332 33.5314L120.332 33.4572ZM109.592 17.6771L109.937 17.5741L110.202 17.355L110.467 17.1359L110.641 16.7936L110.814 16.4513L111.029 15.5248L111.03 13.0482L110.817 12.0248L110.642 11.7271L110.468 11.4293L109.974 10.9961L109.247 10.7801H106.473V17.7801H109.247L109.592 17.6771L109.592 17.6771ZM100.942 19.6701V5.81008H109.467L110.192 5.88389C110.591 5.92449 111.187 6.01628 111.516 6.08788L112.116 6.21805L113.256 6.65802L113.767 6.9935L114.277 7.32899L114.672 7.74652C115.586 8.71231 116.083 9.8461 116.388 11.6571L116.517 12.425L116.512 16.135L116.386 16.835L116.26 17.535L116.045 18.1904L115.829 18.8458L115.506 19.3842C115.328 19.6803 115.057 20.0733 114.905 20.2576L114.627 20.5926L114.12 21.0025C113.841 21.228 113.565 21.4397 113.505 21.4731L113.397 21.5337L115.156 26.7444C116.124 29.6102 117.037 32.3097 117.185 32.7433L117.453 33.5316L111.708 33.495L108.332 22.75H106.472V33.53H100.942V19.67L100.942 19.6701ZM88.3421 19.6701V5.81008H93.8721V33.5301H88.3421V19.6701ZM72.0979 33.5126C72.0957 33.503 70.7017 27.2738 69.0002 19.6701L65.9066 5.84508L68.9102 5.82682C70.5622 5.81679 71.9216 5.81679 71.9311 5.82682C71.9405 5.83686 72.6195 10.2312 73.4398 15.5918L74.9312 25.3386L74.9743 25.2867C74.998 25.2582 75.6923 20.8644 76.5171 15.5224L78.017 5.80995L84.0814 5.80939L84.0438 5.93189C84.0039 6.06226 77.842 33.4545 77.842 33.5014C77.842 33.5311 72.1048 33.5415 72.0979 33.5118V33.5126ZM57.3041 24.0976C57.2835 24.0302 56.8055 21.7543 56.242 19.0401C55.6785 16.3258 55.1963 14.0821 55.1703 14.054L55.1231 14.0029L54.0882 18.989C53.5189 21.7313 53.0374 24.0302 53.018 24.0976L52.9828 24.2201H57.3417L57.3041 24.0976ZM48.6892 20.4233C50.544 13.214 52.1498 6.97635 52.2576 6.56265L52.4536 5.81015H57.8758L57.9586 6.14265C58.0042 6.32552 59.5986 12.5292 61.5019 19.9284C63.4052 27.3281 64.9625 33.4153 64.9625 33.4566V33.5315L59.2652 33.4949L58.9017 31.7449C58.7018 30.7824 58.501 29.8138 58.4554 29.5924L58.3725 29.1899H51.9524L51.8668 29.5924C51.8197 29.8138 51.6183 30.7824 51.4191 31.7449L51.057 33.4949L45.3169 33.5315L48.6892 20.4233Z" fill="currentColor"/>
<path fill-rule="evenodd" clip-rule="evenodd" d="M5.0051 33.9402C2.59976 31.152 0.963512 27.7069 0.322522 24.0807C-0.318517 20.4546 0.0373634 16.6572 1.34102 13.2132C2.61208 9.85544 4.78026 6.84138 7.56269 4.5724C10.3451 2.30349 13.7298 0.750535 17.2815 0.226655C23.5065 -0.691605 30.1433 1.35631 34.6569 5.754L5.0051 33.9402ZM6.59809 26.0512C4.73889 22.5228 4.27801 18.7103 5.64518 14.9639C6.60201 12.3418 8.65147 9.56585 10.8932 7.903C13.1348 6.24001 15.7288 5.18959 18.5148 5.02544C21.3588 4.85789 24.248 5.55279 26.7048 6.99524L6.59809 26.0512Z" fill="currentColor"/>
</g>
<defs>
<clipPath id="clip0_4_90">
<rect width="140" height="33.95" fill="white"/>
</clipPath>
</defs>
</svg>
