<svg width="140" height="82" viewBox="0 0 140 82" fill="none" xmlns="http://www.w3.org/2000/svg">
<path d="M108.395 8.07295C108.395 7.19407 109.114 6.5105 110.063 6.5105C111.077 6.5105 111.765 7.22662 111.765 8.07295C111.765 8.91929 111.045 9.63541 110.063 9.63541C109.114 9.66796 108.395 8.91929 108.395 8.07295ZM111.274 11.4908C111.339 11.4908 111.405 11.5559 111.405 11.621V21.8747C111.405 21.9398 111.339 22.0049 111.274 22.0049H108.885C108.82 22.0049 108.754 21.9398 108.754 21.8747V11.621C108.754 11.5559 108.82 11.4908 108.885 11.4908H111.274V11.4908ZM24.1133 19.4659L32.2928 9.11459C32.3255 9.08204 32.2928 9.01694 32.2273 9.01694H24.3423C24.2769 9.01694 24.2114 8.95184 24.2114 8.88673V6.6407C24.2114 6.5756 24.2769 6.5105 24.3423 6.5105H36.0553C36.1208 6.5105 36.1862 6.5756 36.1862 6.6407V8.95184C36.1862 8.98439 36.1862 9.01694 36.1535 9.04949L27.8758 19.4008C27.8431 19.4333 27.8758 19.4984 27.9413 19.4984H36.0553C36.1208 19.4984 36.1862 19.5635 36.1862 19.6286V21.8747C36.1862 21.9398 36.1208 22.0049 36.0553 22.0049H24.2114C24.146 22.0049 24.0806 21.9398 24.0806 21.8747V19.5635C24.0806 19.531 24.1133 19.4984 24.1133 19.4659V19.4659ZM55.4243 6.6407C55.4243 6.5756 55.4898 6.5105 55.5552 6.5105H60.4302C64.9125 6.5105 66.6466 8.13806 66.6466 10.9375C66.6466 13.8345 64.5526 15.0389 63.1457 15.2017C63.113 15.2017 63.0803 15.2342 63.113 15.2668L67.0719 21.8421C67.1046 21.9072 67.0719 22.0049 66.9737 22.0049H63.8983C63.8328 22.0049 63.7674 21.9723 63.7674 21.9072L60.2339 15.4946C60.2011 15.4621 60.1684 15.4295 60.1357 15.4295H58.2381C58.2053 15.4295 58.1726 15.4621 58.1726 15.4946V21.8747C58.1726 21.9398 58.1072 22.0049 58.0417 22.0049H55.5225C55.457 22.0049 55.3916 21.9398 55.3916 21.8747V6.6407H55.4243ZM60.5283 13.0533C62.5568 13.0533 63.8983 12.5976 63.8983 10.9049C63.8983 9.47266 62.9494 8.85418 60.5937 8.85418H58.2708C58.2381 8.85418 58.2053 8.88673 58.2053 8.91929V12.9882C58.2053 13.0207 58.2381 13.0533 58.2708 13.0533H60.5283V13.0533ZM86.6699 14.5506C86.6045 14.6157 86.539 14.6157 86.4736 14.5506C86.1791 14.2902 85.4266 13.6067 84.4124 13.6067C83.2345 13.6067 81.4678 14.3879 81.4678 16.7641C81.4678 19.2055 83.3981 19.9216 84.4778 19.9216C85.4594 19.9216 86.2773 19.3031 86.5063 19.0427C86.5718 18.9776 86.6372 18.9776 86.7026 19.0427L88.2731 20.7354C88.3385 20.8005 88.3058 20.8656 88.2731 20.9307C87.4879 21.6468 86.2446 22.2978 84.576 22.2978C81.8931 22.2978 78.8503 20.5726 78.8503 16.7967C78.8503 13.1184 81.7295 11.2955 84.576 11.2955C86.1464 11.2955 87.357 11.914 88.3058 12.7929C88.3712 12.858 88.3712 12.9231 88.3058 12.9882L86.6699 14.5506V14.5506ZM69.8202 17.6756C69.7875 17.6756 69.7548 17.7081 69.7548 17.7407C69.8856 18.945 71.1943 20.1494 72.5685 20.1494C74.0081 20.1494 74.6952 19.5635 75.3168 18.8148C75.3495 18.7497 75.4477 18.7497 75.4804 18.7823L77.149 20.0518C77.2144 20.0843 77.2144 20.182 77.1817 20.2471C76.102 21.484 74.7279 22.2327 72.7975 22.2327C69.7548 22.2327 67.0719 20.182 67.0719 16.7316C67.0719 13.4113 69.5912 11.2304 72.6339 11.2304C75.5131 11.2304 77.7379 13.6392 77.7379 16.9269V17.5128C77.7379 17.5779 77.6725 17.643 77.6071 17.643L69.8202 17.6756V17.6756ZM75.0878 15.6899C75.1205 15.6899 75.1532 15.6574 75.1532 15.6248C75.1532 14.3553 74.0081 13.1835 72.5685 13.1835C71.1289 13.1835 69.9511 14.0624 69.7875 15.5923C69.7875 15.6248 69.8202 15.6574 69.8529 15.6574L75.0878 15.6899V15.6899ZM123.968 17.6756C123.936 17.6756 123.903 17.7081 123.903 17.7407C124.034 18.945 125.342 20.1494 126.717 20.1494C128.156 20.1494 128.843 19.5635 129.465 18.8148C129.498 18.7497 129.596 18.7497 129.629 18.7823L131.297 20.0518C131.363 20.0843 131.363 20.182 131.33 20.2471C130.25 21.484 128.876 22.2327 126.946 22.2327C123.903 22.2327 121.22 20.182 121.22 16.7316C121.22 13.4113 123.739 11.2304 126.782 11.2304C129.661 11.2304 131.886 13.6392 131.886 16.9269V17.5128C131.886 17.5779 131.821 17.643 131.755 17.643L123.968 17.6756V17.6756ZM129.236 15.6899C129.269 15.6899 129.301 15.6574 129.301 15.6248C129.301 14.3553 128.156 13.1835 126.717 13.1835C125.277 13.1835 124.099 14.0624 123.936 15.5923C123.936 15.6248 123.968 15.6574 124.001 15.6574L129.236 15.6899ZM89.7781 11.4908H91.8393C91.9048 11.4908 91.9702 11.5234 91.9702 11.5885L92.2647 13.1509H92.2974C93.4098 11.0026 96.0272 11.3281 96.2563 11.3606C96.3217 11.3606 96.3544 11.4257 96.3544 11.5559V13.5741C96.3544 13.6392 96.289 13.7043 96.2235 13.7043C96.2235 13.7043 95.7328 13.6067 95.3074 13.6067C93.6061 13.6067 92.3955 15.1366 92.2647 17.1873V21.8421C92.2647 21.9072 92.1992 21.9723 92.1338 21.9723H89.7454C89.68 21.9723 89.6145 21.9072 89.6145 21.8421V11.621C89.6472 11.5559 89.7127 11.4908 89.7781 11.4908V11.4908ZM133.424 11.4908H135.485C135.55 11.4908 135.616 11.5234 135.616 11.5885L135.91 13.1509H135.943C137.055 11.0026 139.673 11.3281 139.902 11.3606C139.967 11.3606 140 11.4257 140 11.5559V13.5741C140 13.6392 139.935 13.7043 139.869 13.7043C139.869 13.7043 139.378 13.6067 138.953 13.6067C137.252 13.6067 136.041 15.1366 135.91 17.1873V21.8421C135.91 21.9072 135.845 21.9723 135.779 21.9723H133.391C133.326 21.9723 133.26 21.9072 133.26 21.8421V11.621C133.293 11.5559 133.358 11.4908 133.424 11.4908V11.4908ZM112.779 13.6067V11.621C112.779 11.5559 112.844 11.4908 112.91 11.4908H114.905C114.938 11.4908 114.971 11.4583 114.971 11.4257V9.50521C114.971 9.4401 115.004 9.40755 115.069 9.375L117.457 8.49612C117.556 8.46357 117.621 8.52867 117.621 8.62632V11.4257C117.621 11.4583 117.654 11.4908 117.686 11.4908H120.402C120.468 11.4908 120.533 11.5559 120.533 11.621V13.6067C120.533 13.6718 120.468 13.7369 120.402 13.7369H117.686C117.654 13.7369 117.621 13.7694 117.621 13.802V18.3266C117.621 19.238 117.785 20.0192 119.093 20.0192C119.584 20.0192 120.075 19.9216 120.402 19.7914C120.468 19.7588 120.533 19.8239 120.533 19.889V21.8096C120.533 21.8747 120.5 21.9398 120.435 21.9723C120.009 22.1676 119.192 22.2653 118.439 22.2653C117.163 22.2653 116.312 22.0049 115.822 21.5166C115.364 21.0609 115.004 20.3448 115.004 18.5544V13.802C115.004 13.7694 114.971 13.7369 114.938 13.7369H112.942C112.844 13.7369 112.779 13.6718 112.779 13.6067V13.6067ZM102.145 19.9867C101.099 19.9867 100.215 19.3357 100.182 18.1638V11.621C100.182 11.5559 100.117 11.4908 100.052 11.4908H97.6631C97.5977 11.4908 97.5323 11.5559 97.5323 11.621V17.8709C97.5323 20.4424 99.4626 22.2653 102.113 22.2653H102.178C104.828 22.2653 106.759 20.4424 106.759 17.8709V11.621C106.759 11.5559 106.693 11.4908 106.628 11.4908H104.239C104.174 11.4908 104.109 11.5559 104.109 11.621V18.1638C104.076 19.3357 103.192 19.9867 102.145 19.9867V19.9867ZM45.3145 20.7354C45.3145 20.7028 45.3799 20.6703 45.4126 20.7028C46.0997 21.5817 47.4739 22.2653 48.9789 22.2653C51.5309 22.2653 54.0829 20.2796 54.0829 16.7641C54.0829 13.0207 51.5309 11.263 48.8807 11.263C47.2121 11.263 45.9361 12.0767 45.2818 13.0533C45.249 13.0858 45.2163 13.0858 45.1836 13.0207L44.8892 11.621C44.8892 11.5559 44.8237 11.5234 44.7583 11.5234H42.8279C42.7625 11.5234 42.6971 11.5885 42.6971 11.6536V26.8875C42.6971 26.9526 42.7625 27.0177 42.8279 27.0177H45.2163C45.2818 27.0177 45.3472 26.9526 45.3472 26.8875V20.7354H45.3145ZM48.6517 19.889C46.9177 19.889 45.5435 18.7172 45.5435 16.7316C45.5435 14.7459 46.9177 13.5741 48.6517 13.5741C49.666 13.5741 51.4982 14.2577 51.4982 16.7316C51.4982 19.2055 49.6005 19.889 48.6517 19.889ZM37.5603 8.07295C37.5603 7.19407 38.2801 6.5105 39.229 6.5105C40.2432 6.5105 40.9303 7.22662 40.9303 8.07295C40.9303 8.91929 40.2105 9.63541 39.229 9.63541C38.2801 9.66796 37.5603 8.91929 37.5603 8.07295ZM40.4395 11.4908C40.505 11.4908 40.5704 11.5559 40.5704 11.621V21.8747C40.5704 21.9398 40.505 22.0049 40.4395 22.0049H38.0511C37.9857 22.0049 37.9202 21.9398 37.9202 21.8747V11.621C37.9202 11.5559 37.9857 11.4908 38.0511 11.4908H40.4395V11.4908Z" fill="currentColor"/>
<path fill-rule="evenodd" clip-rule="evenodd" d="M17.3078 8.62606C17.1115 8.56096 16.8824 8.59351 16.6534 8.65861L15.77 8.95157V0.781228C15.77 0.358063 15.4101 0 14.9848 0H3.36994C2.94461 0 2.58471 0.358063 2.58471 0.781228V8.98413L1.70133 8.69116C1.47231 8.62606 1.24328 8.59351 1.04697 8.65861C0.719794 8.72372 0 9.04923 0 10.3187V17.1545C0.0981537 17.7404 0.490768 18.424 1.37415 18.424H4.31876C4.61322 18.782 5.33302 19.368 6.70717 19.4656C6.73989 20.4747 7.32881 21.321 8.21219 21.6791V23.5996C8.21219 23.6322 8.17948 23.6647 8.14676 23.6647C4.0243 23.7949 1.40687 25.097 0.654358 25.5201C0.196307 25.7805 0.0981537 26.3339 0.0981537 26.692V28.1893C0.130872 28.7101 0.556204 29.1333 1.11241 29.1333C1.60318 29.1333 2.02851 28.7101 2.06123 28.2219C2.09395 27.7336 1.76677 27.343 1.30872 27.2128C1.276 27.2128 1.24328 27.1802 1.24328 27.1477V26.5943C1.24328 26.4641 1.30872 26.3339 1.43959 26.2688C2.552 25.6503 5.39845 25.3574 7.55784 25.2272H8.17948C8.21219 25.2272 8.24491 25.2597 8.24491 25.2923C8.34307 27.0175 8.53937 28.4823 8.60481 29.3937H8.53937C8.17948 29.3937 7.8523 29.8169 7.8523 30.3703C7.8523 30.9236 8.17948 31.3468 8.53937 31.3468H9.84809C10.208 31.3468 10.5352 30.9236 10.5352 30.3703C10.5352 29.8169 10.208 29.3937 9.84809 29.3937H9.78265C9.78265 29.3937 10.0117 27.0175 10.1426 25.2923C10.1426 25.2597 10.1753 25.2272 10.208 25.2272H10.8296C12.989 25.3248 15.8355 25.6503 16.9479 26.2688C17.0787 26.3339 17.1442 26.4641 17.1442 26.5943V27.1477C17.1442 27.1802 17.1115 27.2128 17.0787 27.2128C16.6207 27.3104 16.2935 27.7336 16.3262 28.2219C16.359 28.7101 16.7843 29.1333 17.2751 29.1333C17.7985 29.1333 18.2566 28.7427 18.2893 28.1893V26.692C18.2893 26.3339 18.1912 25.8131 17.7331 25.5201C16.9806 25.097 14.3304 23.7949 10.2407 23.6322C10.208 23.6322 10.1753 23.5996 10.1753 23.5671V21.6465C11.0587 21.2885 11.6476 20.4421 11.6803 19.4331C13.0217 19.3354 13.7415 18.7169 14.0687 18.3914H17.0133C17.8967 18.3914 18.2893 17.7078 18.3875 17.1219V10.2862C18.3547 9.01668 17.635 8.72372 17.3078 8.62606ZM2.58471 15.7222L1.24328 16.7313C1.21056 16.7639 1.17784 16.7313 1.17784 16.6988V10.2862C1.17784 10.0258 1.21056 9.70025 1.34143 9.7328L2.51928 10.1234C2.552 10.1234 2.58471 10.1885 2.58471 10.2211V15.7222V15.7222ZM17.1442 16.7313L15.8027 15.7222V10.2536C15.8027 10.2211 15.8355 10.1885 15.8682 10.156L17.046 9.76535C17.2096 9.7328 17.2096 10.0583 17.2096 10.3187V16.7313C17.2096 16.7313 17.1769 16.7639 17.1442 16.7313Z" fill="currentColor"/>
</svg>
