<svg width="140" height="82" viewBox="0 0 140 82" fill="none" xmlns="http://www.w3.org/2000/svg">
<g clip-path="url(#clip0_4_197)">
<path d="M0.139648 10.8792H13.5871L12.9721 13.9925H8.52179V29.5384H4.70042V13.9925H0.139648V10.8792Z" fill="black"/>
<path d="M14.8262 10.5062L18.5046 9.64819C18.6859 10.757 18.7672 11.88 18.7475 13.0034V15.7377C18.7475 16.1691 18.6929 16.7294 18.6929 16.8922C19.7729 15.9525 21.1525 15.4287 22.584 15.4146C23.3055 15.3539 24.0288 15.5073 24.6636 15.8555C25.2984 16.2037 25.8165 16.7313 26.1531 17.3723C26.4611 18.1876 26.5804 19.062 26.5019 19.93V29.5375H22.9805V20.3032C22.9805 18.9348 22.6038 18.4244 21.5854 18.4244C20.5202 18.5128 19.5164 18.959 18.7371 19.6905V29.5444H15.0843V13.6451C15.1147 12.5925 15.0281 11.5397 14.8262 10.5062Z" fill="black"/>
<path d="M39.3077 25.8893L40.7028 28.0354C39.2624 29.2742 37.4233 29.9516 35.5235 29.9432C31.5777 29.9432 29.0247 27.153 29.0247 22.8305C28.8582 20.8576 29.476 18.8986 30.7442 17.3781C31.2783 16.7632 31.9446 16.2771 32.6931 15.956C33.4416 15.6349 34.253 15.4871 35.0666 15.5238C36.5303 15.4704 37.9568 15.9916 39.0415 16.9758C40.3052 18.2651 40.8655 20.1148 40.8655 22.9887V23.8211H32.9182V23.9303C32.9182 26.052 33.9645 27.2611 35.8176 27.2611C37.1067 27.2339 38.3437 26.747 39.3054 25.8881M32.9705 21.189H37.1337V21.0251C37.2036 20.3082 37.0531 19.5871 36.7024 18.958C36.5344 18.6942 36.2985 18.4805 36.0195 18.3391C35.7405 18.1978 35.4287 18.1341 35.1166 18.1547C33.7483 18.1547 32.9705 19.2301 32.9705 21.1332V21.189Z" fill="black"/>
<path d="M0 33.9832H3.97483L5.58616 41.3388C6.04513 43.3648 6.37634 45.4177 6.57783 47.4853C6.65689 46.7622 6.97892 44.0999 7.54393 41.5224L9.20989 33.9785H13.3196L15.039 42.3304C15.3878 44.0743 15.847 47.2725 15.847 47.2725C15.9017 46.6831 16.5446 42.6222 16.8678 41.0714L18.3989 33.9797H22.3446L17.8339 52.8005H13.7253L12.0547 45.202C11.6645 43.4113 11.3684 41.6014 11.1677 39.7797C11.1677 39.7797 10.791 42.4118 10.255 45.1485L8.72394 52.8017H4.45614L0 33.9832Z" fill="black"/>
<path d="M33.2649 48.9523L34.66 51.0984C33.2195 52.3379 31.3799 53.0158 29.4796 53.0074C25.5338 53.0074 22.9808 50.2172 22.9808 45.8948C22.8142 43.9218 23.432 41.9628 24.7002 40.4423C25.2344 39.8274 25.9006 39.3413 26.6491 39.0202C27.3976 38.6991 28.209 38.5513 29.0227 38.588C30.4893 38.5328 31.9192 39.0545 33.0057 40.0412C34.2694 41.3305 34.8297 43.1802 34.8297 46.054V46.8864H26.8754V46.9957C26.8754 49.1174 27.9217 50.3265 29.7749 50.3265C31.0649 50.3039 32.3034 49.8164 33.2626 48.9535M26.9277 44.259H31.0909V44.0951C31.1607 43.3782 31.0103 42.6571 30.6596 42.028C30.4916 41.7642 30.2557 41.5505 29.9767 41.4092C29.6978 41.2678 29.3859 41.2041 29.0738 41.2247C27.7055 41.2247 26.9277 42.3001 26.9277 44.2032V44.259Z" fill="black"/>
<path d="M36.7849 40.4968C37.4797 40.0306 38.2289 39.6511 39.0159 39.3668C40.1986 38.84 41.4785 38.5663 42.7733 38.5635C45.0833 38.5635 46.6645 39.4215 47.205 40.9526C47.4337 41.754 47.516 42.5901 47.448 43.4207L47.369 48.0408V48.2837C47.2833 48.8285 47.3598 49.3864 47.5891 49.888C47.8184 50.3895 48.1902 50.8125 48.6583 51.1041L46.747 53.3049C45.9307 52.9875 45.2481 52.3994 44.8136 51.6389C44.5596 51.9057 44.2809 52.1478 43.9812 52.362C43.1584 52.891 42.1929 53.154 41.2155 53.1154C38.1568 53.1154 36.4919 51.5587 36.4919 48.8139C36.4919 45.5924 38.7229 44.0903 43.0988 44.0903C43.3662 44.0903 43.5302 44.0903 43.9022 44.1147V43.5497C43.9022 42.0186 43.6046 41.5071 42.2909 41.5071C40.8441 41.6372 39.465 42.1794 38.3172 43.0696L36.7849 40.4968ZM43.8429 46.5934H43.679C41.1806 46.5934 40.3238 47.0491 40.3238 48.686C40.2999 48.9102 40.3229 49.137 40.3913 49.3519C40.4597 49.5668 40.572 49.7652 40.7211 49.9344C40.8701 50.1036 41.0528 50.24 41.2574 50.3349C41.462 50.4298 41.6841 50.4811 41.9095 50.4856C42.2711 50.4685 42.625 50.3759 42.9486 50.2137C43.2722 50.0515 43.5582 49.8234 43.7882 49.544L43.8429 46.5934Z" fill="black"/>
<path d="M57.6426 38.6429L56.73 41.032H54.4199V48.0411C54.4199 49.785 54.742 50.2419 55.9766 50.2419C56.4168 50.2139 56.8509 50.1239 57.2659 49.9745L57.7216 52.1206C56.7979 52.5209 55.8033 52.7316 54.7966 52.7402C52.9725 52.7402 51.4949 51.9369 51.0938 50.7278C50.8627 50.0459 50.7799 49.3226 50.8508 48.6061V41.032H49.4836V38.6975H50.852C50.8228 37.6037 50.8674 36.5092 50.9857 35.4214L54.6385 34.5088C54.4975 35.8823 54.4265 37.2621 54.4257 38.6429H57.6426Z" fill="black"/>
<path d="M58.4507 33.3843L62.1291 32.5264C62.3104 33.6352 62.3917 34.7581 62.372 35.8815V38.6229C62.372 39.0542 62.3174 39.6146 62.3174 39.7773C63.3974 38.8377 64.777 38.3138 66.2085 38.2997C66.93 38.2391 67.6533 38.3925 68.2881 38.7407C68.9229 39.0889 69.441 39.6165 69.7776 40.2575C70.0856 41.0727 70.2049 41.9472 70.1264 42.8151V52.4261H66.6073V43.1837C66.6073 41.8153 66.2306 41.3049 65.2122 41.3049C64.1486 41.3935 63.1461 41.8388 62.3674 42.5687V52.4226H58.7146V36.521C58.7457 35.4683 58.6591 34.4155 58.4565 33.382" fill="black"/>
<path d="M82.9321 48.764L84.3272 50.9101C82.8865 52.1492 81.047 52.8266 79.1468 52.8179C75.201 52.8179 72.648 50.0277 72.648 45.7053C72.4815 43.7324 73.0992 41.7733 74.3675 40.2528C74.9016 39.638 75.5678 39.1518 76.3164 38.8307C77.0649 38.5096 77.8763 38.3619 78.6899 38.3985C80.1536 38.3452 81.5801 38.8663 82.6647 39.8506C83.9285 41.1399 84.4888 42.9895 84.4888 45.8634V46.6958H76.5426V46.8051C76.5426 48.9268 77.589 50.1359 79.4421 50.1359C80.7322 50.1139 81.9709 49.6263 82.9298 48.7629M76.5949 44.0638H80.7581V43.8987C80.8281 43.1818 80.6776 42.4607 80.3268 41.8316C80.1588 41.5678 79.923 41.3541 79.644 41.2127C79.365 41.0714 79.0531 41.0077 78.7411 41.0283C77.3727 41.0283 76.5949 42.1037 76.5949 44.0068V44.0638Z" fill="black"/>
<path d="M86.4816 39.2089L89.7031 38.3509C90.0412 38.9507 90.2346 39.621 90.2681 40.3087C90.8132 39.5849 91.5105 38.9896 92.3108 38.5648C92.6873 38.4204 93.0876 38.3482 93.4908 38.3521C93.9563 38.3369 94.4181 38.4393 94.8336 38.6497L93.8419 41.8165C93.5239 41.634 93.1622 41.5416 92.7956 41.5491C92.3655 41.5637 91.9443 41.675 91.5633 41.8749C91.1823 42.0748 90.8512 42.358 90.5948 42.7036V52.4238H86.9908V43.2395C87.0397 41.8773 86.8658 40.5162 86.4758 39.21" fill="black"/>
<path d="M13.3731 58.3715L11.6827 60.9292C10.832 60.2623 9.78507 59.8946 8.70418 59.8829C8.08593 59.8786 7.47569 60.0227 6.92465 60.3031C6.37361 60.5835 5.89787 60.992 5.53734 61.4942C4.72712 62.9607 4.36343 64.6321 4.49102 66.3026C4.49102 68.8603 4.70377 70.2775 5.26878 71.3017C5.60872 71.9568 6.12822 72.5015 6.76646 72.8721C7.40471 73.2427 8.13531 73.4238 8.87276 73.3943C9.88509 73.3919 10.8713 73.0728 11.6932 72.4817C11.8024 72.4026 11.9361 72.2933 12.0698 72.1841L13.7893 74.5487C12.3378 75.7503 10.4926 76.3715 8.61002 76.2926C7.46543 76.3489 6.32288 76.1464 5.26736 75.7002C4.21185 75.254 3.27055 74.5755 2.51349 73.7152C0.9522 71.8464 0.147537 69.4607 0.258099 67.0281C0.183631 65.0195 0.618347 63.0246 1.52181 61.2291C2.20094 59.9224 3.22667 58.8279 4.48659 58.0655C5.74651 57.303 7.19201 56.9021 8.66466 56.9067C10.3557 56.8561 12.0152 57.3726 13.3789 58.3739" fill="black"/>
<path d="M20.6983 61.945C21.5832 61.9069 22.4649 62.0736 23.2747 62.4321C24.0845 62.7907 24.8006 63.3314 25.3672 64.0121C26.5161 65.4227 27.0832 67.2186 26.953 69.0332C27.0927 70.9608 26.4759 72.867 25.2335 74.3473C24.6722 74.9886 23.9722 75.4937 23.1866 75.8243C22.401 76.1548 21.5505 76.3022 20.6995 76.2551C16.9665 76.2551 14.5239 73.4649 14.5239 69.1425C14.5239 64.8201 16.9909 61.945 20.6983 61.945ZM20.7495 64.6015C20.3315 64.6036 19.9252 64.7404 19.5912 64.9918C19.2571 65.2431 19.013 65.5955 18.8952 65.9966C18.3671 68.1424 18.3943 70.3874 18.9743 72.5198C19.1387 72.8626 19.3978 73.1512 19.7211 73.3515C20.0443 73.5517 20.4181 73.6552 20.7983 73.6498C22.355 73.6498 23.0293 72.2547 23.0293 68.9995C23.1607 67.7287 22.9088 66.4476 22.3062 65.3211C22.1217 65.0865 21.8847 64.8984 21.6144 64.7718C21.3441 64.6452 21.0479 64.5837 20.7495 64.5922" fill="black"/>
<path d="M28.9922 62.6647L32.2392 61.7777C32.4973 62.2035 32.6629 62.6788 32.7252 63.1728C33.1652 62.731 33.6881 62.3804 34.2638 62.141C34.8396 61.9016 35.4569 61.7781 36.0804 61.7777C36.5986 61.7605 37.1147 61.8522 37.5953 62.0468C38.0759 62.2415 38.5103 62.5347 38.8706 62.9077C39.0696 63.1135 39.2487 63.3377 39.4053 63.5773C39.882 63.0115 40.4772 62.5573 41.1488 62.2469C41.8204 61.9365 42.552 61.7775 43.2918 61.7812C44.2671 61.7484 45.2241 62.0512 46.0029 62.6391C46.7807 63.3088 47.0237 64.1168 47.0237 65.9943V75.7692H43.536V66.693C43.536 65.0573 43.3476 64.7353 42.4059 64.7353C41.5035 64.8442 40.663 65.2504 40.0169 65.8897V75.7715H36.6105V66.8267C36.6105 65.1073 36.3675 64.705 35.3759 64.705C34.4898 64.7676 33.6534 65.1377 33.0112 65.7513V75.7646H29.4933V66.178C29.6316 64.9833 29.459 63.7731 28.9922 62.6647Z" fill="black"/>
<path d="M50.4209 62.1278L53.618 61.5628C53.7442 61.9828 53.8256 62.415 53.8609 62.8521C54.3087 62.4197 54.8394 62.0825 55.4211 61.8609C56.0027 61.6393 56.6233 61.5379 57.2452 61.5628C58.2105 61.5712 59.1526 61.8604 59.9563 62.3952C61.4339 63.3869 62.514 65.1609 62.514 68.3243C62.514 71.2784 62.0582 72.8107 60.6062 74.3115C60.1364 74.8143 59.5662 75.2127 58.9325 75.4809C58.2988 75.749 57.6158 75.881 56.9278 75.8682C55.9229 75.8814 54.9319 75.6322 54.0528 75.1451C54.0914 75.5205 54.1096 75.8977 54.1074 76.2751V80.5766L50.643 81.4893V65.5922C50.6839 64.4331 50.6107 63.2726 50.4244 62.1278M54.1272 72.2247C54.6851 72.7019 55.3826 72.9853 56.1152 73.0327C57.8846 73.0327 58.5833 71.8236 58.5833 68.6812C58.6251 67.6582 58.5074 66.6349 58.2345 65.6481C58.1221 65.2887 57.8905 64.9784 57.5778 64.7685C57.2652 64.5586 56.8903 64.4616 56.5151 64.4936C56.0669 64.4979 55.6242 64.5928 55.2136 64.7727C54.8031 64.9525 54.4331 65.2135 54.126 65.5399V72.227L54.1272 72.2247Z" fill="black"/>
<path d="M64.7855 63.4717C65.4803 63.0055 66.2295 62.626 67.0165 62.3417C68.1992 61.8148 69.4791 61.5412 70.7739 61.5383C73.084 61.5383 74.665 62.3963 75.2056 63.9274C75.4343 64.7289 75.5166 65.5649 75.4486 66.3956L75.3696 71.0156V71.2586C75.2839 71.8034 75.3604 72.3613 75.5897 72.8629C75.819 73.3644 76.1908 73.7874 76.6589 74.079L74.7499 76.2797C73.9336 75.9623 73.2511 75.3742 72.8165 74.6138C72.5626 74.8806 72.2839 75.1227 71.9842 75.3369C71.1625 75.8684 70.1961 76.1317 69.2184 76.0903C66.155 76.0903 64.4949 74.5336 64.4949 71.7887C64.4949 68.5672 66.7258 67.0652 71.1018 67.0652C71.3692 67.0652 71.5331 67.0652 71.9051 67.0896V66.5246C71.9051 64.9935 71.6075 64.482 70.2938 64.482C68.8472 64.6101 67.4678 65.1504 66.3189 66.0386L64.7855 63.4717ZM71.8435 69.5682H71.6854C69.187 69.5682 68.3302 70.0239 68.3302 71.6608C68.3063 71.8851 68.3293 72.1119 68.3977 72.3268C68.4661 72.5417 68.5784 72.74 68.7275 72.9093C68.8766 73.0785 69.0592 73.2148 69.2638 73.3097C69.4684 73.4046 69.6905 73.456 69.9159 73.4605C70.2775 73.4434 70.6314 73.3507 70.955 73.1886C71.2786 73.0264 71.5646 72.7982 71.7947 72.5188L71.8435 69.5682Z" fill="black"/>
<path d="M78.3165 62.5789L81.5136 61.6663C81.8291 62.1859 82.0049 62.7782 82.024 63.3857C82.5252 63.0047 83.0554 62.6635 83.6097 62.365C84.3771 61.9839 85.2211 61.7824 86.0779 61.7756C86.7645 61.7351 87.4474 61.9033 88.0367 62.2581C88.6259 62.6129 89.0941 63.1377 89.3796 63.7635C89.5854 64.3948 89.676 65.058 89.647 65.7213V75.7636H86.1023V66.8211C86.1023 65.2644 85.8349 64.8087 84.8932 64.8087C83.944 64.9232 83.0624 65.3589 82.3948 66.0433V75.7636H78.7909V65.8004C78.8087 64.7074 78.6461 63.6189 78.3096 62.5789" fill="black"/>
<path d="M91.3884 62.2626L95.0668 61.8313L97.4559 69.8321C97.6989 70.6645 98.179 72.6769 98.179 72.6769C98.179 72.6769 98.4464 71.1458 98.6103 70.4762C98.8231 69.6182 98.8777 69.4845 99.1451 68.5684L101.212 62.0452H104.999L99.9996 75.9786C99.0579 78.6351 98.3639 79.7907 97.3675 80.5127C96.3788 81.2028 95.2344 81.637 94.0368 81.7764L92.8021 79.4117C93.5874 79.2213 94.3395 78.9136 95.0331 78.4991C95.4386 78.1888 95.7844 77.8075 96.0538 77.3737C96.3694 76.8657 96.6302 76.3255 96.8316 75.7624H95.919C95.7062 75.1183 95.5969 74.8498 95.354 74.1511C95.0866 73.3187 94.6564 71.9503 94.6297 71.8957L91.3884 62.2626Z" fill="black"/>
<path d="M70.7378 0C70.203 1.35323 69.6915 2.6123 69.2114 3.87601C67.988 7.21117 67.5306 10.7788 67.8732 14.3147C68.2182 16.7171 68.0699 19.1645 67.4373 21.5076C66.8598 23.5046 65.6911 25.2799 64.0851 26.5999C62.4792 27.9199 60.5112 28.7227 58.4401 28.9027C56.3413 29.2647 54.1823 28.9927 52.2389 28.1212C50.2956 27.2498 48.6563 25.8186 47.5306 24.0106C46.5021 22.5483 45.8478 20.8563 45.6248 19.0826C45.4017 17.3088 45.6168 15.5074 46.2512 13.8361C46.8856 12.1647 47.92 10.6744 49.2638 9.49535C50.6076 8.31634 52.2199 7.48466 53.9596 7.07309C56.0906 6.4918 58.2867 6.16047 60.4328 5.6408C63.9463 4.67997 67.2043 2.95511 69.974 0.589424C70.2065 0.416201 70.4297 0.240652 70.7378 0Z" fill="black"/>
</g>
<defs>
<clipPath id="clip0_4_197">
<rect width="105" height="81.7765" fill="white"/>
</clipPath>
</defs>
</svg>
