<?xml version="1.0" encoding="UTF-8"?> <svg xmlns="http://www.w3.org/2000/svg" width="124" height="20" viewBox="0 0 124 20" fill="none"><path d="M37.1804 19.4712L70.484 16.6318H34.293L37.1804 19.4712Z" fill="#5739B7"></path><path d="M37.6458 5.05711V5.4939C36.9852 5.05711 36.3734 4.81445 35.5414 4.81445C32.9966 4.81445 31.0879 7.11972 31.0879 9.93457C31.0879 12.7494 33.021 15.0547 35.5414 15.0547C36.3734 15.0547 36.9607 14.812 37.6458 14.3752V14.812H39.8726V5.08138H37.6458V5.05711ZM35.5414 12.7009C34.2935 12.7009 33.3636 11.4876 33.3636 9.93457C33.3636 8.38155 34.269 7.16825 35.5414 7.16825C36.7894 7.16825 37.6703 8.38155 37.6703 9.93457C37.6703 11.4633 36.7894 12.7009 35.5414 12.7009Z" fill="#5739B7"></path><path d="M55.5086 5.05664V10.7836C55.5086 11.8513 54.7745 12.7735 53.6733 12.7735C52.5967 12.7735 51.8381 11.8756 51.8381 10.7836V5.05664H49.6113V10.7836C49.6113 13.1375 51.2263 15.0303 53.5999 15.0303C54.7011 15.0303 55.4841 14.4236 55.4841 14.4236V14.7876H57.7109V5.05664H55.5086Z" fill="#5739B7"></path><path d="M76.2843 14.7881V9.06113C76.2843 7.9934 77.0184 7.07126 78.1196 7.07126C79.1963 7.07126 79.9548 7.96913 79.9548 9.06113V14.7881H82.1816V9.06113C82.1816 6.70726 80.5666 4.81445 78.193 4.81445C77.0918 4.81445 76.3088 5.42112 76.3088 5.42112V5.05712H74.082V14.7881H76.2843Z" fill="#5739B7"></path><path d="M24.6528 14.7876V11.0019H26.2923L29.1552 14.7876H32.0671L28.6169 10.2254C29.6936 9.44881 30.4032 8.21118 30.4032 6.80369C30.4032 4.49831 28.4945 2.60547 26.1699 2.60547H22.3281V14.7633H24.6528V14.7876ZM24.6528 4.93512H26.1699C27.2221 4.93512 28.0785 5.78447 28.0785 6.82796C28.0785 7.87145 27.2221 8.7208 26.1699 8.7208H24.6528V4.93512Z" fill="#5739B7"></path><path d="M63.7306 12.4818C63.5348 12.6274 63.2657 12.7244 62.9965 12.7244C62.6294 12.7244 61.9443 12.4575 61.9443 11.5353V7.36144H63.8529V5.05609H61.9443V2.62939H59.7175V5.05609H58.543V7.36144H59.7175V11.5596C59.7175 13.7436 61.3815 15.0298 63.021 15.0298C63.6327 15.0298 64.4892 14.8356 65.1988 14.4231L63.7306 12.4818Z" fill="#5739B7"></path><path d="M46.1119 5.0566L43.4447 8.45395V1.8291H41.1445V14.7876H43.4447V10.8078L46.7237 14.7876H49.8558L45.4023 9.61876L49.2441 5.0566H46.1119Z" fill="#5739B7"></path><path d="M68.8939 4.81445C66.3246 4.81445 64.4648 7.07119 64.4648 9.93457C64.4648 12.9436 66.7895 15.0547 69.1141 15.0547C70.2887 15.0547 71.8058 14.6664 73.0538 12.8708L71.0962 11.7545C69.5791 13.987 67.0342 12.8465 66.7406 10.614H73.1517C73.7145 7.11972 71.4143 4.81445 68.8939 4.81445ZM70.827 8.67274H66.814C67.2789 6.39174 70.4111 6.24614 70.827 8.67274Z" fill="#5739B7"></path><path d="M89.327 13.9636L85.7299 5.08206C85.6809 4.96073 85.632 4.8394 85.6075 4.71806C85.5831 4.59673 85.5586 4.45113 85.5586 4.3298C85.5586 3.94153 85.6809 3.65034 85.9501 3.38341C86.2193 3.14074 86.5374 3.01941 86.9534 3.01941C87.247 3.01941 87.4917 3.11647 87.663 3.28633C87.8588 3.4562 88.0301 3.7474 88.1769 4.15993L90.6239 10.6876L92.973 4.25699C93.1198 3.79593 93.3156 3.48047 93.5114 3.28633C93.7071 3.11647 93.9763 3.01941 94.2944 3.01941C94.7104 3.01941 95.0285 3.11647 95.2487 3.33487C95.469 3.55327 95.5913 3.84447 95.5913 4.23273C95.5913 4.37833 95.5668 4.52393 95.5424 4.6938C95.5179 4.83939 95.469 5.00926 95.42 5.15486L91.9453 13.8665C91.7984 14.2548 91.6027 14.546 91.4069 14.7159C91.1867 14.8857 90.9175 14.9828 90.5994 14.9828C90.2813 14.9828 90.0366 14.91 89.8408 14.7401C89.6696 14.5703 89.4983 14.3276 89.327 13.9636Z" fill="#5739B7"></path><path d="M98.7975 13.1856C98.7975 13.7922 98.6997 14.229 98.5039 14.5202C98.3081 14.8114 97.99 14.957 97.5985 14.957C97.1825 14.957 96.8644 14.8114 96.6686 14.5202C96.4729 14.229 96.375 13.7922 96.375 13.1856V8.28368C96.375 7.67701 96.4729 7.24021 96.6686 6.94901C96.8644 6.6578 97.1825 6.51221 97.5985 6.51221C98.0145 6.51221 98.3081 6.6578 98.5039 6.94901C98.6997 7.24021 98.7975 7.67701 98.7975 8.28368V13.1856Z" fill="#5739B7"></path><path d="M102.517 6.58526C102.81 6.34259 103.128 6.14846 103.471 6.02712C103.814 5.90579 104.181 5.83298 104.572 5.83298C105.698 5.83298 106.652 6.26979 107.435 7.16767C108.218 8.04129 108.585 9.15757 108.585 10.4923C108.585 11.7542 108.194 12.8219 107.386 13.6955C106.603 14.5691 105.649 15.0302 104.572 15.0302C104.132 15.0302 103.74 14.9574 103.373 14.8118C103.006 14.6662 102.712 14.4478 102.443 14.1566C102.272 14.4235 102.101 14.6419 101.88 14.7875C101.685 14.9331 101.44 15.0059 101.195 15.0059C100.755 15.0059 100.437 14.8603 100.217 14.5449C99.9963 14.2294 99.8984 13.7683 99.8984 13.1131V4.91084C99.8984 4.27989 99.9963 3.79455 100.217 3.47908C100.437 3.16361 100.755 3.01801 101.195 3.01801C101.636 3.01801 101.978 3.16361 102.174 3.47908C102.394 3.79455 102.492 4.25562 102.492 4.91084V6.58526H102.517ZM102.321 10.4437C102.321 11.1475 102.492 11.7299 102.835 12.1424C103.177 12.5792 103.642 12.7976 104.181 12.7976C104.719 12.7976 105.184 12.5792 105.527 12.1424C105.869 11.7056 106.065 11.1475 106.065 10.4437C106.065 9.73998 105.894 9.15758 105.551 8.72077C105.208 8.28396 104.743 8.06556 104.205 8.06556C103.642 8.06556 103.202 8.28396 102.859 8.72077C102.492 9.15758 102.321 9.73998 102.321 10.4437Z" fill="#5739B7"></path><path d="M111.521 11.172C111.57 11.6574 111.937 12.0457 112.28 12.3126C112.623 12.5796 113.088 12.7252 113.65 12.7252C114.14 12.7252 114.678 12.5796 115.29 12.3126C115.902 12.0214 116.269 11.9001 116.391 11.9001C116.709 11.9001 116.954 11.9971 117.15 12.1913C117.345 12.3854 117.443 12.6281 117.443 12.9194C117.443 13.4775 117.052 13.9629 116.269 14.424C115.486 14.8608 114.556 15.1035 113.504 15.1035C112.207 15.1035 111.13 14.6667 110.273 13.793C109.417 12.9194 108.977 11.8273 108.977 10.5168C108.977 9.20628 109.393 8.08992 110.225 7.21626C111.057 6.34259 112.109 5.90576 113.357 5.90576C114.556 5.90576 115.583 6.31833 116.391 7.14346C117.199 7.96858 117.615 8.98786 117.615 10.177C117.615 10.5653 117.517 10.8323 117.345 11.0021C117.174 11.1478 116.831 11.2448 116.318 11.2448H111.521V11.172ZM111.424 9.64311H115.265C115.241 9.15774 115.045 8.67237 114.678 8.33261C114.311 8.01712 113.895 7.84724 113.406 7.84724C112.916 7.84724 112.451 7.99285 112.109 8.30834C111.742 8.62383 111.521 9.13347 111.424 9.64311Z" fill="#5739B7"></path><path d="M118.348 13.0647V7.84727C118.348 7.21633 118.446 6.73098 118.666 6.43978C118.886 6.12431 119.204 5.97871 119.645 5.97871C119.914 5.97871 120.134 6.05151 120.354 6.17285C120.55 6.31845 120.746 6.51258 120.893 6.80378C121.162 6.51258 121.455 6.29418 121.749 6.14858C122.043 6.00298 122.361 5.93018 122.654 5.93018C123.021 5.93018 123.315 6.05151 123.584 6.31844C123.853 6.56111 123.976 6.87659 123.976 7.21633C123.976 7.72594 123.486 8.16274 122.532 8.52675C122.189 8.64808 121.92 8.74516 121.749 8.84222C121.431 8.98783 121.211 9.15769 121.088 9.35183C120.99 9.54596 120.917 9.8857 120.917 10.371V13.0647C120.917 13.6956 120.819 14.181 120.599 14.4964C120.379 14.8119 120.061 14.9575 119.62 14.9575C119.18 14.9575 118.862 14.8119 118.641 14.4964C118.47 14.181 118.348 13.6956 118.348 13.0647Z" fill="#5739B7"></path><path d="M96.2754 4.35272C96.2754 3.98871 96.4222 3.67322 96.6914 3.40628C96.9606 3.13934 97.2787 3.01801 97.6702 3.01801C98.0373 3.01801 98.3554 3.13934 98.6246 3.40628C98.8938 3.67322 99.0161 3.98871 99.0161 4.35272C99.0161 4.71674 98.8938 5.05648 98.6246 5.29916C98.3554 5.5661 98.0373 5.68744 97.6702 5.68744C97.2787 5.68744 96.9606 5.5661 96.6914 5.29916C96.3977 5.05648 96.2754 4.741 96.2754 4.35272Z" fill="#5739B7"></path><path d="M15.6963 2.48491C15.2314 2.07238 13.3717 0.713443 9.1873 0.689176C9.1873 0.689176 4.26885 0.397972 1.87079 2.58198C0.524948 3.91665 0.0600179 5.83373 0.011078 8.23613C-0.0378618 10.6385 -0.111265 15.1279 4.26885 16.3655V18.234C4.26885 18.234 4.24438 18.9863 4.73378 19.1319C5.34552 19.326 5.6881 18.7436 6.27538 18.137C6.59349 17.7972 7.03394 17.3119 7.35205 16.9236C10.3374 17.1663 12.6376 16.6082 12.9067 16.5111C13.5185 16.317 16.9198 15.8802 17.4826 11.3908C18.0699 6.7316 17.2379 3.79532 15.6963 2.48491ZM16.2102 11.0268C15.7452 14.7882 12.9801 15.0308 12.4663 15.1764C12.246 15.2492 10.2395 15.7346 7.69464 15.589C7.69464 15.589 5.81045 17.8458 5.1987 18.4524C5.10082 18.5495 5.00294 18.5738 4.92953 18.5738C4.83165 18.5495 4.80718 18.4282 4.80718 18.2583C4.80718 18.0156 4.83165 15.1522 4.83165 15.1522C1.1367 14.133 1.35692 10.2988 1.38139 8.28466C1.43033 6.27052 1.79739 4.64465 2.923 3.52838C4.95401 1.70838 9.13836 1.97531 9.13836 1.97531C12.662 1.99958 14.3505 3.04305 14.742 3.40705C16.0144 4.52332 16.6751 7.1684 16.2102 11.0268Z" fill="#5739B7"></path><path d="M10.8998 8.13965C10.8508 7.21779 10.3859 6.7326 9.48047 6.68408" stroke="#5739B7" stroke-width="0.550933" stroke-linecap="round" stroke-linejoin="round"></path><path d="M12.1231 8.52686C12.1476 7.67757 11.8784 6.94961 11.3645 6.39151C10.8261 5.80914 10.092 5.49369 9.16211 5.4209" stroke="#5739B7" stroke-width="0.550933" stroke-linecap="round" stroke-linejoin="round"></path><path d="M13.3467 9.01318C13.3467 7.53269 12.8818 6.36772 12.0008 5.51826C11.1199 4.6688 10.0187 4.23193 8.69727 4.23193" stroke="#5739B7" stroke-width="0.550933" stroke-linecap="round" stroke-linejoin="round"></path><path d="M9.5294 11.2698C9.5294 11.2698 9.87197 11.2941 10.0433 11.0757L10.3858 10.6389C10.5571 10.4205 10.9487 10.2749 11.3646 10.4933C11.5849 10.6147 11.9764 10.8573 12.2211 11.0514C12.4903 11.2456 13.0286 11.6823 13.0286 11.6823C13.2978 11.9007 13.3467 12.2162 13.1754 12.5559C13.0041 12.8714 12.7594 13.1626 12.4413 13.4295C12.1966 13.6479 11.9519 13.7449 11.7072 13.7935H11.6093C11.5115 13.7935 11.3891 13.7692 11.2912 13.7449C10.9242 13.6479 10.3124 13.3809 9.26023 12.8228C8.59954 12.4588 8.03673 12.0706 7.5718 11.7066C7.3271 11.5125 7.05793 11.2941 6.81323 11.0272L6.71536 10.9301C6.44619 10.6632 6.22595 10.4205 6.03019 10.1779C5.66315 9.71684 5.27163 9.15872 4.90458 8.50355C4.34177 7.4844 4.0726 6.87776 3.97472 6.48951C3.95025 6.39245 3.92578 6.29539 3.92578 6.17406V6.07699C3.95025 5.83434 4.0726 5.59168 4.29283 5.34902C4.562 5.05784 4.85564 4.81518 5.17375 4.62106C5.51633 4.4512 5.83444 4.49973 6.05467 4.76665C6.05467 4.76665 6.49513 5.3005 6.69089 5.56742C6.86217 5.81008 7.10687 6.19833 7.25369 6.41672C7.47392 6.80497 7.3271 7.21748 7.13134 7.38734L6.69089 7.72706C6.47066 7.89692 6.49512 8.23664 6.49512 8.23664C6.49512 8.23664 7.10688 10.6389 9.5294 11.2698Z" fill="#5739B7"></path></svg> 