<svg
      width="140"
      height="82"
      viewBox="0 0 140 82"
      fill="none"
      xmlns="http://www.w3.org/2000/svg"
    >
      <g clip-path="url(#clip0_4_119)">
        <path d="M53.5 0H0.5V6.5H53.5V0Z" fill="currentColor" />
        <path
          d="M28.01 36.49C29.32 34.18 31.64 34.01 32.74 30.99C35.29 24.02 31.52 17.11 24.25 16C24.01 15.96 23.75 15.93 23.5 15.9H1.9C1.25 15.94 0.61 15.97 0 16V57.5H24.75C35.17 57.5 38.31 40 28.01 36.49ZM8.5 23H20.88C23.64 23 25.88 25.24 25.88 28C25.88 30.76 23.64 33 20.88 33H8.5V23ZM22.81 49.91L22.75 50H8.5V40H21.89C24.65 40 26.89 42.24 26.89 45C26.89 47.45 25.13 49.47 22.81 49.91Z"
          fill="currentColor"
        />
        <path
          d="M50.4 15.9L42.02 21.89C41.18 22.56 40.33 23.19 39.47 23.71V26.27L45.51 26.49V57.49H54.01V16C53.82 15.97 53.64 15.93 53.47 15.9H50.41H50.4Z"
          fill="currentColor"
        />
      </g>
      <defs>
        <clipPath id="clip0_4_119">
          <rect width="54" height="57.5" fill="white" />
        </clipPath>
      </defs>
    </svg>
