<svg
      width="140"
      height="82"
      viewBox="0 0 140 82"
      fill="none"
      xmlns="http://www.w3.org/2000/svg"
    >
      <g clip-path="url(#clip0_10_30)">
        <g clip-path="url(#clip1_10_30)">
          <path
            d="M138.355 12.9812V22.294H134.935V13.5965C134.935 11.4784 134.024 10.295 132.249 10.295C130.474 10.295 129.303 11.5375 128.971 13.6202C128.877 14.1172 128.853 14.8864 128.853 16.5075V22.2822H125.433V7.49054H128.462C128.474 7.62071 128.545 8.94604 128.545 9.02888C128.545 9.13538 128.675 9.19454 128.758 9.12354C130.013 8.12954 131.397 7.20654 133.326 7.20654C136.497 7.20654 138.355 9.34838 138.355 12.9812Z"
            fill="currentColor"
          />
          <path
            d="M119.919 7.50226L119.812 9.19443C119.801 9.30093 119.67 9.3601 119.599 9.2891C119.185 8.8986 117.659 7.21826 115.067 7.21826C111.352 7.21826 108.618 10.4251 108.618 14.7798C108.618 19.1936 111.328 22.4123 115.067 22.4123C117.564 22.4123 119.091 20.7911 119.375 20.4361C119.457 20.3414 119.611 20.4006 119.611 20.5189C119.576 20.9686 119.517 22.0928 119.138 23.0513C118.665 24.2583 117.6 25.3824 115.458 25.3824C113.695 25.3824 112.133 24.7079 110.653 23.2643L108.867 25.7138C110.488 27.5479 113.044 28.5774 115.825 28.5774C120.298 28.5774 122.984 25.5126 122.984 20.5071V7.50226H119.919ZM115.801 19.3119C113.588 19.3119 112.026 17.3949 112.026 14.7798C112.026 12.1646 113.588 10.2949 115.801 10.2949C118.014 10.2949 119.576 12.1528 119.576 14.7798C119.564 17.4068 118.002 19.3119 115.801 19.3119Z"
            fill="currentColor"
          />
          <path
            d="M101.471 17.9039C101.471 20.7084 99.1159 22.5899 95.6605 22.5899C92.9507 22.5899 90.5367 21.5367 89.093 20.0339L90.2172 17.3596C91.3059 18.3417 93.0572 19.7499 95.554 19.7499C97.2935 19.7499 98.2993 18.9807 98.2993 18.0104C98.2993 16.8862 96.9148 16.5904 95.2582 16.2709C92.9033 15.7739 89.7793 14.9692 89.7793 11.7624C89.7793 9.07622 91.9567 7.23022 95.1753 7.23022C97.6485 7.23022 99.7785 8.17689 101.246 9.40756L99.5655 11.7624C98.1455 10.6382 96.6545 10.0821 95.1753 10.0821C93.6962 10.0821 92.9625 10.6974 92.9625 11.5849C92.9625 12.8274 94.56 13.1469 95.7315 13.3836C98.678 13.9516 101.471 14.8391 101.471 17.9039Z"
            fill="currentColor"
          />
          <path
            d="M51.4633 7.20654C47.2862 7.20654 44.2805 10.4489 44.2805 14.8982C44.2805 19.3475 47.2862 22.5899 51.4633 22.5899C55.6405 22.5899 58.658 19.3475 58.658 14.8982C58.658 10.4489 55.6523 7.20654 51.4633 7.20654ZM51.4633 19.4895C49.2505 19.4895 47.6885 17.608 47.6885 14.8864C47.6885 12.1765 49.215 10.2832 51.4633 10.2832C53.6998 10.2832 55.2382 12.1647 55.2382 14.8864C55.2382 17.608 53.6762 19.4895 51.4633 19.4895Z"
            fill="currentColor"
          />
          <path
            d="M59.8647 14.8982C59.8647 10.508 62.8704 7.20654 66.8819 7.20654C70.0651 7.20654 72.3962 8.80404 73.4849 11.8097L70.4556 12.9575C69.6272 11.0997 68.5386 10.3069 66.8937 10.3069C64.8347 10.3069 63.2964 12.2475 63.2964 14.91C63.2964 17.5607 64.8229 19.5132 66.8937 19.5132C68.5504 19.5132 69.6272 18.7204 70.4556 16.8625L73.4849 18.0104C72.3962 21.016 70.0651 22.6135 66.8819 22.6135C62.8704 22.5899 59.8647 19.2884 59.8647 14.8982Z"
            fill="currentColor"
          />
          <path
            d="M41.5823 0.627197C41.5231 0.627197 41.4521 0.639031 41.393 0.674531L39.1683 1.85786C39.121 1.88153 39.0973 1.92886 39.0973 1.9762V9.01703C39.0973 9.13536 38.9553 9.1827 38.8725 9.1117C38.5411 8.8277 37.772 8.10586 36.707 7.60886C36.1508 7.34853 35.3343 7.20653 34.5888 7.20653C30.8495 7.20653 28.1396 10.4489 28.1396 14.8982C28.1396 19.3475 30.8495 22.5899 34.5888 22.5899C36.5531 22.5899 38.0323 21.5604 38.9316 20.6374C38.9908 20.5782 39.0263 20.5427 39.0855 20.4835C39.1683 20.4007 39.3103 20.448 39.3103 20.5664L39.4286 22.294H42.5171V0.721864C42.5171 0.674531 42.4816 0.627197 42.4225 0.627197H41.5823ZM35.3225 19.4895C33.086 19.4895 31.5476 17.608 31.5476 14.8864C31.5476 12.1647 33.1215 10.295 35.3225 10.295C37.5353 10.295 39.0973 12.1765 39.0973 14.8982C39.0973 17.608 37.5708 19.4895 35.3225 19.4895Z"
            fill="currentColor"
          />
          <path
            d="M105.494 7.54965L103.352 8.68565C103.305 8.70931 103.281 8.75665 103.281 8.80398V22.294H106.701V7.58515C106.701 7.53781 106.666 7.49048 106.607 7.49048H105.684C105.613 7.50231 105.553 7.51415 105.494 7.54965Z"
            fill="currentColor"
          />
          <path
            d="M104.985 5.10042C106.121 5.10042 107.044 4.17742 107.044 3.04142C107.044 1.90542 106.121 0.982422 104.985 0.982422C103.849 0.982422 102.926 1.90542 102.926 3.04142C102.926 4.17742 103.849 5.10042 104.985 5.10042Z"
            fill="currentColor"
          />
          <path
            d="M87.8622 7.49048V15.5253C87.8622 21.6195 84.4542 22.578 81.413 22.578C78.3719 22.578 74.9639 21.6076 74.9639 15.5253V7.49048H78.3719V16.3773C78.3719 17.2411 78.5849 19.4895 81.413 19.4895C84.2412 19.4895 84.4542 17.253 84.4542 16.3773V7.49048H87.8622Z"
            fill="currentColor"
          />
          <path
            d="M16.5075 16.5075V22.365C16.5075 22.6727 16.259 22.9212 15.9513 22.9212H0.556167C0.2485 22.9212 0 22.6727 0 22.365V6.9817C0 6.67404 0.2485 6.42554 0.556167 6.42554H6.40183V15.9514C6.40183 16.259 6.65033 16.5075 6.958 16.5075H16.5075Z"
            fill="currentColor"
          />
          <path
            d="M22.9211 8.24775C22.9211 13.1704 20.0456 16.4956 16.5074 16.5074V10.3068C16.5074 10.1293 16.4364 9.95175 16.3062 9.83342L13.0876 6.61475C12.9574 6.48458 12.7917 6.41358 12.6142 6.41358H6.41357V0.567917C6.41357 0.26025 6.66207 0.0117503 6.96974 0.0117503H15.6436C19.7616 -8.29909e-05 22.9211 3.31325 22.9211 8.24775Z"
            fill="currentColor"
          />
        </g>
      </g>
      <defs>
        <clipPath id="clip0_10_30">
          <rect width="140" height="82" fill="white" />
        </clipPath>
        <clipPath id="clip1_10_30">
          <rect width="142" height="28.5657" fill="white" />
        </clipPath>
      </defs>
    </svg>
