<svg
      width="140"
      height="82"
      viewBox="0 0 140 82"
      fill="none"
      xmlns="http://www.w3.org/2000/svg"
    >
      <mask
        id="mask0_11_79"
        style={{ maskType: "luminance" }}
        maskUnits="userSpaceOnUse"
        x="0"
        y="0"
        width="116"
        height="49"
      >
        <path d="M115.712 0H0V48.7341H115.712V0Z" fill="white" />
      </mask>
      <g mask="url(#mask0_11_79)">
        <path
          d="M114.174 36.464C113.87 36.4639 113.572 36.3736 113.32 36.2047C113.068 36.0357 112.871 35.7957 112.754 35.5149C112.638 35.234 112.608 34.925 112.667 34.627C112.726 34.3288 112.873 34.055 113.088 33.8401C113.303 33.6252 113.577 33.4788 113.874 33.4195C114.173 33.3601 114.481 33.3905 114.762 33.5068C115.043 33.6231 115.283 33.82 115.452 34.0728C115.621 34.3254 115.711 34.6226 115.712 34.9264C115.711 35.334 115.549 35.7248 115.261 36.0131C114.972 36.3012 114.582 36.4634 114.174 36.464ZM114.174 33.6274C113.917 33.6275 113.666 33.7039 113.452 33.8468C113.238 33.9896 113.072 34.1926 112.974 34.4301C112.875 34.6676 112.85 34.9289 112.9 35.1809C112.95 35.433 113.074 35.6644 113.256 35.8462C113.438 36.0278 113.669 36.1515 113.921 36.2015C114.174 36.2515 114.435 36.2257 114.672 36.1272C114.91 36.0289 115.113 35.8623 115.255 35.6485C115.398 35.4348 115.473 35.1835 115.473 34.9264C115.473 34.5819 115.336 34.2516 115.092 34.0081C114.849 33.7645 114.519 33.6277 114.174 33.6274Z"
          fill="currentColor"
        />
        <path
          d="M113.625 34.1418H114.319C114.483 34.1327 114.644 34.1889 114.768 34.298C114.81 34.3425 114.843 34.395 114.866 34.4525C114.887 34.5099 114.898 34.5712 114.897 34.6328V34.6374C114.9 34.7467 114.864 34.8537 114.797 34.9399C114.73 35.0259 114.635 35.0857 114.527 35.1088L114.947 35.697H114.623L114.24 35.1555H113.899V35.697H113.625V34.1418ZM114.298 34.9133C114.494 34.9133 114.619 34.8104 114.619 34.6533V34.6487C114.619 34.4822 114.498 34.3906 114.296 34.3906H113.899V34.9133H114.298Z"
          fill="currentColor"
        />
        <path
          d="M0.00439453 33.3899H11.3832V36.3422H3.30164V39.4025H10.4134V42.355H3.30164V45.5227H11.4909V48.4754H0.00439453V33.3899Z"
          fill="currentColor"
        />
        <path
          d="M13.9321 33.3899H17.5094L21.4749 39.7688L25.4403 33.3899H29.0176V48.4754H25.7204V38.6265L21.4749 45.0703H21.3886L17.1863 38.6914V48.4754H13.9321V33.3899Z"
          fill="currentColor"
        />
        <path
          d="M32.0376 33.3899H38.2012C41.8002 33.3899 43.9768 35.5233 43.9768 38.6051V38.6482C43.9768 42.1395 41.2614 43.9498 37.8779 43.9498H35.3564V48.4754H32.0376V33.3899ZM37.9856 40.9972C38.3118 41.0385 38.643 41.0106 38.9576 40.9151C39.2722 40.8196 39.5631 40.6588 39.8113 40.4431C40.0594 40.2276 40.2593 39.9619 40.3979 39.6638C40.5363 39.3656 40.6103 39.0416 40.6149 38.7128V38.6697C40.6149 37.1827 39.5804 36.3853 37.9211 36.3853H35.3564V40.9972H37.9856Z"
          fill="currentColor"
        />
        <path
          d="M45.105 40.9757V40.9326C45.1619 38.8479 46.0286 36.8672 47.5213 35.4107C49.0141 33.9543 51.0154 33.1365 53.1009 33.1309C55.1866 33.1252 57.1923 33.9323 58.6928 35.3806C60.1934 36.829 61.0707 38.805 61.1388 40.8895V40.9326C61.0819 43.0174 60.2152 44.998 58.7225 46.4545C57.2298 47.911 55.2283 48.7287 53.1428 48.7343C51.0573 48.74 49.0516 47.933 47.551 46.4845C46.0505 45.0361 45.1731 43.0602 45.105 40.9757ZM57.6692 40.9757V40.9326C57.6903 40.3188 57.5879 39.7069 57.368 39.1335C57.148 38.5599 56.8151 38.0365 56.3889 37.5942C55.9627 37.152 55.452 36.7998 54.887 36.5589C54.322 36.3179 53.7144 36.1929 53.1002 36.1912C52.4905 36.1889 51.8867 36.31 51.3252 36.5475C50.7636 36.785 50.256 37.1339 49.8331 37.5729C49.4101 38.012 49.0806 38.5323 48.8642 39.1023C48.6479 39.6723 48.5494 40.2802 48.5746 40.8895V40.9326C48.5534 41.5464 48.6559 42.1583 48.8757 42.7317C49.0957 43.3052 49.4287 43.8286 49.8549 44.2708C50.2811 44.7131 50.7917 45.0651 51.3566 45.3062C51.9216 45.5472 52.5292 45.6721 53.1434 45.6737C53.753 45.6762 54.3568 45.555 54.9185 45.3175C55.48 45.0801 55.9876 44.7313 56.4106 44.2922C56.8335 43.8532 57.1632 43.3329 57.3795 42.7629C57.5958 42.1929 57.6943 41.5849 57.6692 40.9757Z"
          fill="currentColor"
        />
        <path
          d="M61.3403 33.3899H64.8962L68.0211 43.4971L71.4046 33.3899H74.2492L77.6327 43.4971L80.7577 33.3899H84.2272L79.0766 48.4754H76.1889L72.7838 38.756L69.3787 48.4754H66.4909L61.3403 33.3899Z"
          fill="currentColor"
        />
        <path
          d="M85.7495 33.3899H97.1285V36.3422H89.0469V39.4025H96.1587V42.355H89.0469V45.5227H97.2362V48.4754H85.7495V33.3899Z"
          fill="currentColor"
        />
        <path
          d="M99.6768 33.39H106.573C107.371 33.3399 108.171 33.4494 108.925 33.7121C109.68 33.9748 110.375 34.3854 110.969 34.9199C111.404 35.3792 111.743 35.9208 111.965 36.5131C112.187 37.1053 112.288 37.736 112.262 38.368V38.4112C112.312 39.4372 112.02 40.4508 111.437 41.2958C110.853 42.1408 110.007 42.7704 109.03 43.0877L112.715 48.4755H108.836L105.603 43.648H102.996V48.4755H99.6768V33.39ZM106.357 40.7172C107.974 40.7172 108.9 39.855 108.9 38.5837V38.5406C108.9 37.1182 107.909 36.3854 106.293 36.3854H102.996V40.7171L106.357 40.7172Z"
          fill="currentColor"
        />
        <path
          d="M112.693 4.0351C89.8088 9.42994 89.9911 -1.91771 70.6028 0.471257L60.6738 5.08333C81.0812 1.4596 81.5123 15.3399 109.089 7.53418C110.346 7.17858 111.537 6.83616 112.693 6.54184V4.0351Z"
          fill="currentColor"
        />
        <path
          d="M112.693 9.40251C108.632 9.90712 104.617 10.7236 100.682 11.8448C71.6535 20.0028 72.4347 6.502 51.0018 9.6036L41.0891 14.2157C62.064 11.3818 62.9259 24.5032 91.4306 16.6665C100.723 14.1117 107.307 13.4026 112.693 13.7291V9.40251Z"
          fill="currentColor"
        />
        <path
          d="M112.693 19.4375C105.608 17.8428 97.398 16.8959 82.5213 20.9772C53.0669 29.0577 53.5356 15.828 31.433 18.736L21.522 23.3481C42.9387 20.5993 44.0161 33.5579 73.0699 25.7989C94.6169 20.0447 102.052 24.2338 112.693 26.4459V19.4375Z"
          fill="currentColor"
        />
      </g>
    </svg>
