<svg
      width="140"
      height="82"
      viewBox="0 0 140 82"
      fill="none"
      xmlns="http://www.w3.org/2000/svg"
    >
      <g clip-path="url(#clip0_11_200)">
        <path
          d="M118.904 19.306L112.895 0.44751H110.594L116.858 19.306H118.904Z"
          fill="currentColor"
        />
        <path
          d="M130.858 19.306L124.657 0.511437V0.44751H124.594H123.187V0.511437L118.904 13.6165L119.799 16.5571L123.89 4.28313L128.941 19.306H130.858Z"
          fill="currentColor"
        />
        <path
          d="M131.753 16.621L137.251 0.44751H134.95L130.73 13.4247L131.753 16.621Z"
          fill="currentColor"
        />
        <path
          d="M9.90875 17.7077C6.07314 17.7077 2.81286 14.831 2.23752 11.0593H0.12793C0.767199 16.4292 5.68957 20.2648 11.1234 19.6255C15.5982 19.0502 19.1142 15.5342 19.6896 11.0593H17.58C17.0046 14.831 13.7444 17.6438 9.90875 17.7077Z"
          fill="currentColor"
        />
        <path
          d="M9.90879 2.10965C13.7444 2.10965 17.0047 4.98636 17.58 8.75805H19.6896C18.9864 3.38819 14.064 -0.447426 8.69418 0.25577C4.21929 0.767186 0.70331 4.28317 0.191895 8.75805H2.30148C2.8129 4.98636 6.07317 2.10965 9.90879 2.10965Z"
          fill="currentColor"
        />
        <path
          d="M32.3471 1.47038C31.2603 0.703255 29.79 0.511475 28.5115 0.511475V2.49321C30.5571 2.49321 32.411 3.19641 32.411 5.75348C32.411 8.24663 30.685 9.14161 28.5115 9.14161V11.1233C29.9179 11.1233 31.516 10.8037 32.6667 9.90873C33.8174 9.01376 34.4567 7.41558 34.4567 5.88134C34.4567 4.09138 33.7535 2.49321 32.3471 1.47038Z"
          fill="currentColor"
        />
        <path
          d="M26.5298 0.511475H24.4202V19.3699H26.5298V0.511475Z"
          fill="currentColor"
        />
        <path
          d="M48.4566 17.3882H38.6758V19.306H48.4566V17.3882Z"
          fill="currentColor"
        />
        <path
          d="M48.2008 8.05493H42.7031V10.0367H48.2008V8.05493Z"
          fill="currentColor"
        />
        <path
          d="M40.7854 4.34717H38.6758V15.4705H40.7854V4.34717Z"
          fill="currentColor"
        />
        <path
          d="M48.4566 2.42928V0.511475H38.6758V2.42928H48.4566Z"
          fill="currentColor"
        />
        <path
          d="M108.292 17.3882H98.5115V19.306H108.292V17.3882Z"
          fill="currentColor"
        />
        <path
          d="M108.037 8.05493H102.539V10.0367H108.037V8.05493Z"
          fill="currentColor"
        />
        <path
          d="M100.621 4.34717H98.5115V15.4705H100.621V4.34717Z"
          fill="currentColor"
        />
        <path
          d="M108.292 2.42928V0.511475H98.5115V2.42928H108.292Z"
          fill="currentColor"
        />
        <path
          d="M56.7671 5.94509L65.7169 17.1323V13.872L56.7671 2.68481V5.94509Z"
          fill="currentColor"
        />
        <path
          d="M54.977 0.511475H52.8674V19.306H54.977V0.511475Z"
          fill="currentColor"
        />
        <path
          d="M69.6164 0.511475H67.5068V19.3699H69.6164V0.511475Z"
          fill="currentColor"
        />
        <path
          d="M93.3335 0.511475H91.2239V19.3699H93.3335V0.511475Z"
          fill="currentColor"
        />
        <path
          d="M81.3149 14.064L82.4017 16.9407L88.7944 0.511475H86.5569L81.3149 14.064Z"
          fill="currentColor"
        />
        <path
          d="M81.5068 19.306L74.2192 0.44751H72.0457L79.3973 19.306H81.5068Z"
          fill="currentColor"
        />
      </g>
      <defs>
        <clipPath id="clip0_11_200">
          <rect width="140" height="19.8174" fill="white" />
        </clipPath>
      </defs>
    </svg>
