<svg
      width="140"
      height="82"
      viewBox="0 0 140 82"
      fill="none"
      xmlns="http://www.w3.org/2000/svg"
    >
      <g clip-path="url(#clip0_11_30)">
        <path
          d="M18.7697 10.9381V18.5168H15.45V11.4059C15.45 9.94811 14.59 9.03657 13.2849 9.03657C11.9799 9.03657 11.0477 9.97524 11.0477 11.3335V18.5168H7.728V11.4059C7.728 9.94811 6.86801 9.03657 5.56294 9.03657C4.25791 9.03657 3.32574 9.95113 3.32574 11.4059V18.5168H0V6.29602H3.0491V7.38261C3.86099 6.54352 5.04273 6.02441 6.49212 6.02441C8.13995 6.02441 9.34577 6.66726 10.1095 7.77796C11.0207 6.71554 12.446 6.02441 14.169 6.02441C17.0707 6.02441 18.7697 7.99832 18.7697 10.9381Z"
          fill="currentColor"
        />
        <path
          d="M21.1362 2.14603C21.1362 0.959869 22.0714 0.0725098 23.2532 0.0725098C24.4349 0.0725098 25.3941 0.959869 25.3941 2.14603C25.3941 3.3322 24.4349 4.19541 23.2532 4.19541C22.0714 4.19541 21.1362 3.30503 21.1362 2.14603ZM21.6023 6.29609H24.922V18.5169H21.6023V6.29609Z"
          fill="currentColor"
        />
        <path
          d="M38.9497 10.9381V18.5168H35.654V11.3818C35.654 9.97524 34.7428 9.01245 33.3897 9.01245C32.0365 9.01245 31.0773 9.97524 31.0773 11.3818V18.5168H27.7576V6.29602H30.8067V7.40672C31.6426 6.56768 32.8725 6.02441 34.373 6.02441C37.2266 6.02441 38.9497 7.99832 38.9497 10.9381Z"
          fill="currentColor"
        />
        <path
          d="M54.0025 0V18.5168H50.9537V17.0108C50.1175 18.1697 48.7166 18.8126 47.0414 18.8126C43.5984 18.8126 41.1387 16.0962 41.1387 12.417C41.1387 8.73777 43.5984 6.02139 47.0414 6.02139C48.566 6.02139 49.8198 6.54049 50.6828 7.47916V0H54.0025ZM50.7312 12.42C50.7312 10.099 49.1826 9.03657 47.6549 9.03657C45.9318 9.03657 44.5065 10.3193 44.5065 12.3958C44.5065 14.4724 45.9078 15.7793 47.6549 15.7793C49.1792 15.7793 50.7312 14.7682 50.7312 12.42Z"
          fill="currentColor"
        />
        <path
          d="M70.2374 15.7279V18.5167C69.5489 18.6888 68.8124 18.8125 67.9494 18.8125C64.9481 18.8125 63.0777 17.3547 63.0777 14.2218V9.1119H61.1594V6.29589H63.0777V3.20825H66.3974V6.29589H69.8409V9.1119H66.3974V13.926C66.3974 15.3325 67.1344 15.8275 68.6619 15.8275C69.056 15.8275 69.5973 15.7792 70.2374 15.7279Z"
          fill="currentColor"
        />
        <path
          d="M83.9616 10.9381V18.5168H80.6659V11.4059C80.6659 9.97524 79.7549 9.03657 78.4014 9.03657C77.0484 9.03657 76.089 9.9994 76.089 11.4059V18.5168H72.7693V0H76.089V7.33432C76.9012 6.5194 78.0557 6.02436 79.4361 6.02436C82.2145 6.02436 83.9616 7.99832 83.9616 10.9381Z"
          fill="currentColor"
        />
        <path
          d="M98.0312 13.5307H89.4945C89.8881 15.0851 91.1424 15.9514 92.9135 15.9514C94.2425 15.9514 95.3251 15.4835 96.3085 14.7169L97.6855 16.9896C96.3085 18.1486 94.6846 18.8157 92.8142 18.8157C88.9532 18.8157 86.1475 16.0268 86.1475 12.42C86.1475 8.81324 88.9259 6.02441 92.5194 6.02441C96.1129 6.02441 98.2508 8.54159 98.2508 11.7017C98.2508 12.3929 98.1275 13.1082 98.0283 13.5277L98.0312 13.5307ZM89.4945 11.1856H95.0303C95.0063 9.63119 93.8005 8.71663 92.399 8.71663C90.9981 8.71663 89.8642 9.6553 89.4974 11.1856H89.4945Z"
          fill="currentColor"
        />
        <path
          d="M0 24.1489H7.73701C12.0731 24.1489 15.1613 26.7778 15.1613 30.8192C15.1613 34.8607 12.0731 37.5197 7.73701 37.5197H4.21281V44.8147H0V24.1519V24.1489ZM7.73701 33.8224C9.70358 33.8224 10.8553 32.6 10.8553 30.8162C10.8553 29.0324 9.70061 27.8734 7.73701 27.8734H4.21281V33.8224H7.73701Z"
          fill="currentColor"
        />
        <path
          d="M30.2265 44.8117L24.892 37.5167H21.8038V44.8117H17.594V24.1489H25.3311C29.6671 24.1489 32.7553 26.7778 32.7553 30.8192C32.7553 33.4813 31.3511 35.6092 29.1379 36.7048L34.9715 44.8147H30.2294L30.2265 44.8117ZM21.8038 33.7922H25.328C27.2946 33.7922 28.4463 32.603 28.4463 30.8192C28.4463 29.0355 27.2916 27.8764 25.328 27.8764H21.8038V33.7952V33.7922Z"
          fill="currentColor"
        />
        <path
          d="M35.188 34.4804C35.188 28.4077 40.0533 23.7717 46.1064 23.7717C52.1596 23.7717 57.085 28.4047 57.085 34.4804C57.085 40.5561 52.1563 45.1891 46.1064 45.1891C40.0563 45.1891 35.188 40.5561 35.188 34.4804ZM52.7489 34.4804C52.7489 30.5054 49.91 27.6864 46.1365 27.6864C42.3627 27.6864 39.5241 30.5054 39.5241 34.4804C39.5241 38.4554 42.2995 41.2745 46.1365 41.2745C49.9733 41.2745 52.7489 38.4886 52.7489 34.4804Z"
          fill="currentColor"
        />
        <path
          d="M60.0168 24.1489H66.7555C73.3677 24.1489 77.9838 28.2205 77.9838 34.417C77.9838 40.6134 73.3677 44.8117 66.7555 44.8117H60.0168V24.1489ZM66.7225 40.9937C70.8721 40.9937 73.6477 38.395 73.6477 34.42C73.6477 30.4449 70.8721 27.97 66.7225 27.97H64.2264V40.9937H66.7225Z"
          fill="currentColor"
        />
        <path
          d="M80.6054 36.267V24.1519H84.8155V36.5809C84.8155 39.6806 86.7788 41.2773 89.3382 41.2773C91.897 41.2773 93.8604 39.6806 93.8604 36.5809V24.1519H98.0704V36.267C98.0704 41.8085 94.3264 45.1889 89.3348 45.1889C84.3432 45.1889 80.6025 41.8085 80.6025 36.267H80.6054Z"
          fill="currentColor"
        />
        <path
          d="M100.726 34.4804C100.726 28.4077 105.561 23.7717 111.704 23.7717C115.664 23.7717 118.972 25.7457 120.782 28.9057L117.601 31.1604C116.23 28.9691 114.293 27.6864 111.704 27.6864C107.867 27.6864 105.062 30.5054 105.062 34.5106C105.062 38.5158 107.87 41.2745 111.704 41.2745C114.293 41.2745 116.227 39.9917 117.601 37.8004L120.782 40.0551C119.005 43.2182 115.667 45.1891 111.674 45.1891C105.561 45.1891 100.726 40.5561 100.726 34.4804Z"
          fill="currentColor"
        />
        <path
          d="M129.175 27.97H122.593V24.1489H139.997V27.97H133.385V44.8147H129.175V27.97Z"
          fill="currentColor"
        />
      </g>
      <defs>
        <clipPath id="clip0_11_30">
          <rect width="140" height="45.5479" fill="white" />
        </clipPath>
      </defs>
    </svg>
