<svg
      width="140"
      height="82"
      viewBox="0 0 140 82"
      fill="none"
      xmlns="http://www.w3.org/2000/svg"
    >
      <g clip-path="url(#clip0_4_187)">
        <path
          fill-rule="evenodd"
          clip-rule="evenodd"
          d="M14.3731 6.62896V1.27409H12.2176L4.86192 3.40057L0 4.80212V5.87503C3.0834 5.87503 4.50428 7.51822 4.86192 10.2536V38.1106H14.5761V22.046C14.5761 14.7193 17.2535 10.215 24.5029 10.215V0.355835C19.6603 0.365504 15.9873 2.96561 14.3731 6.62896ZM50.1464 0.365493C38.9437 0.365493 30.3507 8.60079 30.3507 19.7938C30.3507 30.9192 38.6634 39.0192 50.1367 39.0192C61.6874 39.0192 70 30.9192 70 19.7938C70 8.66846 61.4071 0.365493 50.1464 0.365493ZM50.1464 30.4263C44.3759 30.4263 40.0746 26.0573 40.0746 19.7938C40.0746 13.453 44.2985 8.94876 50.1464 8.94876C55.9942 8.94876 60.2858 13.5304 60.2858 19.7938C60.2858 26.0573 55.9845 30.4263 50.1464 30.4263Z"
          fill="currentColor"
        />
      </g>
      <defs>
        <clipPath id="clip0_4_187">
          <rect width="70" height="39.375" fill="white" />
        </clipPath>
      </defs>
    </svg>
