<svg width="360" height="300" viewBox="0 0 360 300" fill="none" xmlns="http://www.w3.org/2000/svg">
<g filter="url(#filter0_dd_3311_203727)">
<g clip-path="url(#clip0_3311_203727)">
<rect x="11" y="7" width="338" height="278" rx="20" fill="white"/>
<path d="M156.52 56H158.99V50.034H164.31V56H166.78V42.7H164.31V47.754H158.99V42.7H156.52V56ZM171.843 56.152C173.211 56.152 174.123 55.601 174.788 54.784L175.035 56H176.973V50.281C176.973 47.602 175.472 46.272 172.945 46.272C171.026 46.272 169.601 47.355 169.297 48.932L171.292 49.388C171.596 48.59 172.185 48.286 172.945 48.286C173.819 48.286 174.617 48.685 174.617 49.692V50.11H172.945C170.494 50.11 168.936 51.345 168.936 53.245C168.936 55.145 170.209 56.152 171.843 56.152ZM172.47 54.138C171.843 54.138 171.406 53.758 171.406 53.207C171.406 52.352 172.033 51.972 173.04 51.972H174.617V52.162C174.617 53.397 173.534 54.138 172.47 54.138ZM179.449 59.876H181.805V55.696V55.126C182.223 55.658 183.154 56.152 184.123 56.152C187.011 56.152 188.493 54.157 188.493 51.212C188.493 48.267 187.011 46.272 184.123 46.272C182.945 46.272 182.071 46.918 181.805 47.412V46.842V46.424H179.449V59.876ZM183.8 54.138C182.565 54.138 181.596 53.112 181.596 51.212C181.596 49.312 182.565 48.286 183.8 48.286C185.035 48.286 186.023 49.312 186.023 51.212C186.023 53.112 185.035 54.138 183.8 54.138ZM190.619 59.876H192.975V55.696V55.126C193.393 55.658 194.324 56.152 195.293 56.152C198.181 56.152 199.663 54.157 199.663 51.212C199.663 48.267 198.181 46.272 195.293 46.272C194.115 46.272 193.241 46.918 192.975 47.412V46.842V46.424H190.619V59.876ZM194.97 54.138C193.735 54.138 192.766 53.112 192.766 51.212C192.766 49.312 193.735 48.286 194.97 48.286C196.205 48.286 197.193 49.312 197.193 51.212C197.193 53.112 196.205 54.138 194.97 54.138ZM207.059 46.424L204.931 52.314L202.746 46.424H200.371L203.829 55.354L202.195 59.876H204.475L209.415 46.424H207.059ZM215.839 56H218.309V49.654L223.135 56H226.27L220.494 48.647L225.89 42.7H222.85L218.309 47.64V42.7H215.839V56ZM229.937 56.152C231.305 56.152 232.217 55.601 232.882 54.784L233.129 56H235.067V50.281C235.067 47.602 233.566 46.272 231.039 46.272C229.12 46.272 227.695 47.355 227.391 48.932L229.386 49.388C229.69 48.59 230.279 48.286 231.039 48.286C231.913 48.286 232.711 48.685 232.711 49.692V50.11H231.039C228.588 50.11 227.03 51.345 227.03 53.245C227.03 55.145 228.303 56.152 229.937 56.152ZM230.564 54.138C229.937 54.138 229.5 53.758 229.5 53.207C229.5 52.352 230.127 51.972 231.134 51.972H232.711V52.162C232.711 53.397 231.628 54.138 230.564 54.138ZM241.382 56.152C241.895 56.152 242.408 56.057 242.94 55.81L242.389 53.91C242.066 54.081 241.8 54.138 241.477 54.138C240.679 54.138 240.223 53.758 240.223 52.58V48.438H242.75V46.424H240.223V42.548L237.867 44.03V46.424H236.385V48.438H237.867V52.618C237.867 54.993 239.216 56.152 241.382 56.152ZM244.372 56H246.728V51.953C246.728 49.369 247.887 48.286 248.97 48.286C249.939 48.286 250.395 48.837 250.395 49.996V56H252.751V49.16C252.751 47.203 251.573 46.272 249.768 46.272C248.381 46.272 247.336 46.994 246.728 47.963V42.548H244.372V56ZM260.515 46.424L258.387 52.314L256.202 46.424H253.827L257.285 55.354L255.651 59.876H257.931L262.871 46.424H260.515Z" fill="#37383C"/>
<path d="M186.044 85H187.088V81.004H191.06V85H192.104V76.6H191.06V80.032H187.088V76.6H186.044V85ZM195.452 85.096C196.376 85.096 196.976 84.688 197.336 84.124L197.516 85H198.296V81.124C198.296 79.648 197.348 78.856 196.028 78.856C194.9 78.856 193.988 79.504 193.82 80.524L194.708 80.728C194.9 80.152 195.308 79.744 196.028 79.744C196.748 79.744 197.312 80.092 197.312 81.016V81.28H196.256C194.612 81.28 193.58 81.964 193.58 83.26C193.58 84.544 194.432 85.096 195.452 85.096ZM195.632 84.208C195.008 84.208 194.612 83.872 194.612 83.248C194.612 82.54 195.152 82.132 196.292 82.132H197.312V82.324C197.312 83.68 196.376 84.208 195.632 84.208ZM199.963 87.448H200.959V84.604V84.244C201.319 84.772 202.039 85.096 202.723 85.096C204.499 85.096 205.435 83.752 205.435 81.976C205.435 80.2 204.499 78.856 202.723 78.856C201.919 78.856 201.223 79.3 200.959 79.732V79.372V78.952H199.963V87.448ZM202.627 84.208C201.511 84.208 200.863 83.272 200.863 81.976C200.863 80.668 201.511 79.744 202.627 79.744C203.743 79.744 204.403 80.668 204.403 81.976C204.403 83.272 203.743 84.208 202.627 84.208ZM206.888 87.448H207.884V84.604V84.244C208.244 84.772 208.964 85.096 209.648 85.096C211.424 85.096 212.36 83.752 212.36 81.976C212.36 80.2 211.424 78.856 209.648 78.856C208.844 78.856 208.148 79.3 207.884 79.732V79.372V78.952H206.888V87.448ZM209.552 84.208C208.436 84.208 207.788 83.272 207.788 81.976C207.788 80.668 208.436 79.744 209.552 79.744C210.668 79.744 211.328 80.668 211.328 81.976C211.328 83.272 210.668 84.208 209.552 84.208ZM217.141 78.952L215.557 83.428L213.913 78.952H212.893L215.065 84.832L214.141 87.448H215.113L218.149 78.952H217.141ZM219.314 85H220.358V80.692L223.778 85H225.086L221.366 80.368L224.798 76.6H223.502L220.358 80.032V76.6H219.314V85ZM227.538 85.096C228.462 85.096 229.062 84.688 229.422 84.124L229.602 85H230.382V81.124C230.382 79.648 229.434 78.856 228.114 78.856C226.986 78.856 226.074 79.504 225.906 80.524L226.794 80.728C226.986 80.152 227.394 79.744 228.114 79.744C228.834 79.744 229.398 80.092 229.398 81.016V81.28H228.342C226.698 81.28 225.666 81.964 225.666 83.26C225.666 84.544 226.518 85.096 227.538 85.096ZM227.718 84.208C227.094 84.208 226.698 83.872 226.698 83.248C226.698 82.54 227.238 82.132 228.378 82.132H229.398V82.324C229.398 83.68 228.462 84.208 227.718 84.208ZM234.052 85.096C234.4 85.096 234.772 85.036 235.084 84.88L234.832 84.04C234.604 84.172 234.364 84.208 234.136 84.208C233.62 84.208 233.296 83.92 233.296 83.224V79.84H234.916V78.952H233.296V76.504L232.3 77.14V78.952H231.28V79.84H232.3V83.152C232.3 84.496 233.008 85.096 234.052 85.096ZM236.138 85H237.134V82.432C237.134 80.716 237.998 79.744 238.97 79.744C239.726 79.744 240.11 80.2 240.11 81.028V85H241.094V80.788C241.094 79.528 240.386 78.856 239.21 78.856C238.37 78.856 237.542 79.3 237.134 80.164V76.504H236.138V85ZM246.087 78.952L244.503 83.428L242.859 78.952H241.839L244.011 84.832L243.087 87.448H244.059L247.095 78.952H246.087ZM252.687 86.128C253.935 86.128 254.751 85.9 255.939 85.288L255.603 84.508C254.427 85.132 253.611 85.276 252.687 85.276C250.695 85.276 248.931 83.92 248.931 81.388C248.931 78.688 250.815 77.236 252.699 77.236C254.871 77.236 256.191 78.484 256.191 80.752C256.191 81.976 255.867 82.852 255.135 82.852C254.763 82.852 254.535 82.672 254.535 82.192C254.535 82.132 254.547 82.036 254.559 81.892L254.835 78.892H254.067L253.911 79.468C253.647 79.048 253.179 78.808 252.603 78.808C251.091 78.808 250.083 79.996 250.083 81.46C250.083 82.768 250.815 83.704 252.147 83.704C252.879 83.704 253.395 83.32 253.767 82.804C253.911 83.26 254.367 83.704 255.063 83.704C256.239 83.704 257.187 82.744 257.187 80.776C257.187 77.992 255.447 76.384 252.759 76.384C250.191 76.384 247.935 78.136 247.935 81.388C247.935 84.292 249.963 86.128 252.687 86.128ZM252.231 82.852C251.511 82.852 251.067 82.396 251.067 81.496C251.067 80.44 251.655 79.66 252.519 79.66C253.299 79.66 253.707 80.188 253.707 81.028C253.707 81.988 253.155 82.852 252.231 82.852ZM263.914 81.712C263.914 80.152 262.918 78.856 261.214 78.856C259.45 78.856 258.454 80.296 258.454 81.976C258.454 83.632 259.462 85.096 261.214 85.096C262.438 85.096 263.23 84.58 263.806 83.392L262.966 83.032C262.558 83.848 262.09 84.208 261.238 84.208C260.146 84.208 259.51 83.332 259.462 82.132H263.914V81.712ZM259.522 81.28C259.738 80.248 260.422 79.744 261.214 79.744C262.21 79.744 262.762 80.38 262.906 81.28H259.522ZM265.377 85H266.373V82.492C266.373 80.74 267.105 79.744 268.005 79.744C268.725 79.744 268.977 80.14 268.977 80.956V85H269.961V82.444C269.961 80.728 270.705 79.744 271.605 79.744C272.313 79.744 272.577 80.14 272.577 80.956V85H273.561V80.8C273.561 79.54 272.997 78.856 271.821 78.856C271.029 78.856 270.297 79.396 269.889 80.164C269.685 79.3 269.097 78.856 268.233 78.856C267.381 78.856 266.769 79.36 266.373 80.116V78.952H265.377V85ZM276.733 85.096C277.657 85.096 278.257 84.688 278.617 84.124L278.797 85H279.577V81.124C279.577 79.648 278.629 78.856 277.309 78.856C276.181 78.856 275.269 79.504 275.101 80.524L275.989 80.728C276.181 80.152 276.589 79.744 277.309 79.744C278.029 79.744 278.593 80.092 278.593 81.016V81.28H277.537C275.893 81.28 274.861 81.964 274.861 83.26C274.861 84.544 275.713 85.096 276.733 85.096ZM276.913 84.208C276.289 84.208 275.893 83.872 275.893 83.248C275.893 82.54 276.433 82.132 277.573 82.132H278.593V82.324C278.593 83.68 277.657 84.208 276.913 84.208ZM281.736 77.932C282.156 77.932 282.468 77.62 282.468 77.212C282.468 76.804 282.156 76.492 281.736 76.492C281.328 76.492 281.016 76.804 281.016 77.212C281.016 77.62 281.328 77.932 281.736 77.932ZM281.244 85H282.24V78.952H281.244V85ZM284.045 85H285.041V76.504H284.045V85ZM287.397 85.036C287.829 85.036 288.141 84.724 288.141 84.304C288.141 83.872 287.829 83.56 287.397 83.56C286.977 83.56 286.665 83.872 286.665 84.304C286.665 84.724 286.977 85.036 287.397 85.036ZM292.187 85.096C293.423 85.096 294.287 84.52 294.719 83.404L293.831 83.056C293.507 83.8 293.003 84.208 292.187 84.208C290.999 84.208 290.447 83.2 290.447 81.976C290.447 80.74 290.999 79.744 292.187 79.744C293.003 79.744 293.531 80.164 293.831 80.896L294.719 80.548C294.287 79.408 293.423 78.856 292.187 78.856C290.339 78.856 289.415 80.356 289.415 81.976C289.415 83.596 290.339 85.096 292.187 85.096ZM298.648 85.096C300.46 85.096 301.552 83.62 301.552 81.976C301.552 80.332 300.46 78.856 298.648 78.856C296.824 78.856 295.732 80.332 295.732 81.976C295.732 83.62 296.824 85.096 298.648 85.096ZM298.648 84.208C297.412 84.208 296.764 83.116 296.764 81.976C296.764 80.836 297.412 79.744 298.648 79.744C299.872 79.744 300.52 80.836 300.52 81.976C300.52 83.116 299.872 84.208 298.648 84.208ZM303.005 85H304.001V82.492C304.001 80.74 304.733 79.744 305.633 79.744C306.353 79.744 306.605 80.14 306.605 80.956V85H307.589V82.444C307.589 80.728 308.333 79.744 309.233 79.744C309.941 79.744 310.205 80.14 310.205 80.956V85H311.189V80.8C311.189 79.54 310.625 78.856 309.449 78.856C308.657 78.856 307.925 79.396 307.517 80.164C307.313 79.3 306.725 78.856 305.861 78.856C305.009 78.856 304.397 79.36 304.001 80.116V78.952H303.005V85Z" fill="#626266"/>
<path fill-rule="evenodd" clip-rule="evenodd" d="M174.75 86.9C174.75 88.1979 173.698 89.25 172.4 89.25H159.6C158.302 89.25 157.25 88.1979 157.25 86.9V77.1C157.25 75.8021 158.302 74.75 159.6 74.75H172.4C173.698 74.75 174.75 75.8021 174.75 77.1V86.9ZM159.329 76.294C159.414 76.2655 159.505 76.25 159.6 76.25H172.4C172.495 76.25 172.586 76.2655 172.671 76.294L166.63 82.86C166.463 83.0273 166.236 83.1214 166 83.1214C165.764 83.1214 165.537 83.0273 165.37 82.86L159.329 76.294ZM173.25 77.9293L169.68 81.8035L173.25 85.3004V77.9293ZM168.664 82.9064L167.73 83.92C167.287 84.4073 166.658 84.6836 166 84.68C165.342 84.6836 164.713 84.4073 164.27 83.92L163.326 82.8959L158.843 87.2874C158.984 87.5621 159.27 87.75 159.6 87.75H172.4C172.725 87.75 173.007 87.5681 173.15 87.3007L168.664 82.9064ZM162.31 81.793L158.75 77.9293V85.2804L162.31 81.793Z" fill="#2A2A2F"/>
<path d="M188.18 111.096C189.584 111.096 190.628 110.136 190.628 108.648C190.628 107.304 189.752 106.668 188.696 106.188C187.796 105.78 186.968 105.396 186.968 104.496C186.968 103.956 187.388 103.476 188.06 103.476C188.564 103.476 189.056 103.68 189.356 104.412L190.208 103.872C189.848 103.056 189.224 102.504 188.06 102.504C186.848 102.504 185.948 103.356 185.948 104.556C185.948 105.756 186.764 106.392 187.712 106.848C188.72 107.328 189.572 107.724 189.572 108.696C189.572 109.668 188.96 110.124 188.192 110.124C187.1 110.124 186.572 109.272 186.332 108.264L185.468 108.804C185.684 110.052 186.74 111.096 188.18 111.096ZM197.176 107.712C197.176 106.152 196.18 104.856 194.476 104.856C192.712 104.856 191.716 106.296 191.716 107.976C191.716 109.632 192.724 111.096 194.476 111.096C195.7 111.096 196.492 110.58 197.068 109.392L196.228 109.032C195.82 109.848 195.352 110.208 194.5 110.208C193.408 110.208 192.772 109.332 192.724 108.132H197.176V107.712ZM192.784 107.28C193 106.248 193.684 105.744 194.476 105.744C195.472 105.744 196.024 106.38 196.168 107.28H192.784ZM200.139 111.096C201.063 111.096 201.663 110.688 202.023 110.124L202.203 111H202.983V107.124C202.983 105.648 202.035 104.856 200.715 104.856C199.587 104.856 198.675 105.504 198.507 106.524L199.395 106.728C199.587 106.152 199.995 105.744 200.715 105.744C201.435 105.744 201.999 106.092 201.999 107.016V107.28H200.943C199.299 107.28 198.267 107.964 198.267 109.26C198.267 110.544 199.119 111.096 200.139 111.096ZM200.319 110.208C199.695 110.208 199.299 109.872 199.299 109.248C199.299 108.54 199.839 108.132 200.979 108.132H201.999V108.324C201.999 109.68 201.063 110.208 200.319 110.208ZM206.654 111.096C207.002 111.096 207.374 111.036 207.686 110.88L207.434 110.04C207.206 110.172 206.966 110.208 206.738 110.208C206.222 110.208 205.898 109.92 205.898 109.224V105.84H207.518V104.952H205.898V102.504L204.902 103.14V104.952H203.882V105.84H204.902V109.152C204.902 110.496 205.61 111.096 206.654 111.096ZM210.873 111.096C211.221 111.096 211.593 111.036 211.905 110.88L211.653 110.04C211.425 110.172 211.185 110.208 210.957 110.208C210.441 110.208 210.117 109.92 210.117 109.224V105.84H211.737V104.952H210.117V102.504L209.121 103.14V104.952H208.101V105.84H209.121V109.152C209.121 110.496 209.829 111.096 210.873 111.096ZM212.959 111H213.955V102.504H212.959V111ZM220.871 107.712C220.871 106.152 219.875 104.856 218.171 104.856C216.407 104.856 215.411 106.296 215.411 107.976C215.411 109.632 216.419 111.096 218.171 111.096C219.395 111.096 220.187 110.58 220.763 109.392L219.923 109.032C219.515 109.848 219.047 110.208 218.195 110.208C217.103 110.208 216.467 109.332 216.419 108.132H220.871V107.712ZM216.479 107.28C216.695 106.248 217.379 105.744 218.171 105.744C219.167 105.744 219.719 106.38 219.863 107.28H216.479ZM221.77 112.152H222.502L223.834 109.752H222.43L221.77 112.152ZM229.728 111H230.796L232.572 105.144L234.36 111H235.416L237.684 102.6H236.592L234.852 109.44L233.04 103.488H232.116L230.292 109.44L228.564 102.6H227.46L229.728 111ZM237.351 111H238.455L239.223 108.744H242.415L243.183 111H244.275L241.311 102.6H240.327L237.351 111ZM239.535 107.772L240.819 104.004L242.103 107.772H239.535ZM244.75 112.152H245.482L246.814 109.752H245.41L244.75 112.152ZM254.185 111.096C255.805 111.096 257.149 110.124 257.149 108.144V102.6H256.105V108.204C256.105 109.308 255.469 110.124 254.185 110.124C252.889 110.124 252.265 109.308 252.265 108.204V102.6H251.221V108.144C251.221 110.124 252.553 111.096 254.185 111.096ZM261.246 111.096C262.65 111.096 263.694 110.136 263.694 108.648C263.694 107.304 262.818 106.668 261.762 106.188C260.862 105.78 260.034 105.396 260.034 104.496C260.034 103.956 260.454 103.476 261.126 103.476C261.63 103.476 262.122 103.68 262.422 104.412L263.274 103.872C262.914 103.056 262.29 102.504 261.126 102.504C259.914 102.504 259.014 103.356 259.014 104.556C259.014 105.756 259.83 106.392 260.778 106.848C261.786 107.328 262.638 107.724 262.638 108.696C262.638 109.668 262.026 110.124 261.258 110.124C260.166 110.124 259.638 109.272 259.398 108.264L258.534 108.804C258.75 110.052 259.806 111.096 261.246 111.096ZM264.316 111H265.42L266.188 108.744H269.38L270.148 111H271.24L268.276 102.6H267.292L264.316 111ZM266.5 107.772L267.784 104.004L269.068 107.772H266.5Z" fill="#626266"/>
<path fill-rule="evenodd" clip-rule="evenodd" d="M170.72 101.17C169.418 99.8994 167.659 99.2073 165.84 99.25C163.583 99.3334 161.512 100.528 160.31 102.44C156.85 107.75 162.87 114.11 164.8 115.93C165.472 116.57 166.528 116.57 167.2 115.93C168.87 114.35 172.75 110.23 172.75 106C172.756 104.181 172.023 102.438 170.72 101.17ZM166.17 114.84C166.074 114.929 165.926 114.929 165.83 114.84C164.12 113.22 158.74 107.6 161.57 103.25C162.515 101.771 164.117 100.839 165.87 100.75C167.286 100.712 168.656 101.249 169.67 102.238C170.683 103.227 171.253 104.584 171.25 106C171.25 109.65 167.7 113.4 166.17 114.84ZM166 103.25C164.481 103.25 163.25 104.481 163.25 106C163.25 107.519 164.481 108.75 166 108.75C167.519 108.75 168.75 107.519 168.75 106C168.75 104.481 167.519 103.25 166 103.25ZM166 107.25C165.31 107.25 164.75 106.69 164.75 106C164.75 105.31 165.31 104.75 166 104.75C166.69 104.75 167.25 105.31 167.25 106C167.25 106.332 167.118 106.649 166.884 106.884C166.649 107.118 166.332 107.25 166 107.25Z" fill="#2A2A2F"/>
<path d="M27 172H332.705" stroke="#F6F6F6"/>
<path d="M85.0696 246H90.7256V244.866H86.2876V236.2H85.0696V246ZM94.0767 246.112C95.1547 246.112 95.8547 245.636 96.2747 244.978L96.4847 246H97.3947V241.478C97.3947 239.756 96.2887 238.832 94.7487 238.832C93.4327 238.832 92.3687 239.588 92.1727 240.778L93.2087 241.016C93.4327 240.344 93.9087 239.868 94.7487 239.868C95.5887 239.868 96.2467 240.274 96.2467 241.352V241.66H95.0147C93.0967 241.66 91.8927 242.458 91.8927 243.97C91.8927 245.468 92.8867 246.112 94.0767 246.112ZM94.2867 245.076C93.5587 245.076 93.0967 244.684 93.0967 243.956C93.0967 243.13 93.7267 242.654 95.0567 242.654H96.2467V242.878C96.2467 244.46 95.1547 245.076 94.2867 245.076ZM101.372 246.112C102.73 246.112 103.626 245.3 103.626 243.97C103.626 242.892 102.828 242.29 101.904 241.954C100.77 241.534 100.336 241.254 100.336 240.722C100.336 240.176 100.756 239.868 101.26 239.868C101.778 239.868 102.212 240.064 102.562 240.61L103.318 239.938C102.87 239.21 102.198 238.832 101.274 238.832C100.098 238.832 99.2163 239.602 99.2163 240.722C99.2163 241.828 99.9583 242.36 100.966 242.724C101.834 243.046 102.492 243.368 102.492 244.012C102.492 244.698 102.044 245.076 101.372 245.076C100.448 245.076 99.9723 244.502 99.7063 243.676L98.7403 244.194C98.9923 245.146 99.8183 246.112 101.372 246.112ZM107.501 246.112C107.907 246.112 108.341 246.042 108.705 245.86L108.411 244.88C108.145 245.034 107.865 245.076 107.599 245.076C106.997 245.076 106.619 244.74 106.619 243.928V239.98H108.509V238.944H106.619V236.088L105.457 236.83V238.944H104.267V239.98H105.457V243.844C105.457 245.412 106.283 246.112 107.501 246.112ZM113.767 246H114.985V241.786H117.211C119.073 241.786 120.123 240.694 120.123 238.986C120.123 237.292 119.073 236.2 117.211 236.2H113.767V246ZM114.985 240.652V237.334H117.197C118.373 237.334 118.863 238.006 118.863 238.986C118.863 239.98 118.373 240.652 117.197 240.652H114.985ZM123.794 246.112C124.788 246.112 125.656 245.51 126.146 244.642V246H127.294V238.944H126.146V241.94C126.146 243.9 125.222 245.076 124.074 245.076C123.234 245.076 122.786 244.572 122.786 243.606V238.944H121.624V243.858C121.624 245.314 122.492 246.112 123.794 246.112ZM129.39 246H130.552V243.34C130.552 240.974 131.42 239.882 132.47 239.882C132.82 239.882 133.1 239.966 133.38 240.12L133.618 239.042C133.296 238.916 133.002 238.832 132.624 238.832C131.714 238.832 131 239.308 130.552 240.162V238.944H129.39V246ZM137.317 246.112C138.759 246.112 139.767 245.44 140.271 244.138L139.235 243.732C138.857 244.6 138.269 245.076 137.317 245.076C135.931 245.076 135.287 243.9 135.287 242.472C135.287 241.03 135.931 239.868 137.317 239.868C138.269 239.868 138.885 240.358 139.235 241.212L140.271 240.806C139.767 239.476 138.759 238.832 137.317 238.832C135.161 238.832 134.083 240.582 134.083 242.472C134.083 244.362 135.161 246.112 137.317 246.112ZM141.859 246H143.021V243.004C143.021 241.002 144.029 239.868 145.163 239.868C146.045 239.868 146.493 240.4 146.493 241.366V246H147.641V241.086C147.641 239.616 146.815 238.832 145.443 238.832C144.463 238.832 143.497 239.35 143.021 240.358V236.088H141.859V246ZM151.348 246.112C152.426 246.112 153.126 245.636 153.546 244.978L153.756 246H154.666V241.478C154.666 239.756 153.56 238.832 152.02 238.832C150.704 238.832 149.64 239.588 149.444 240.778L150.48 241.016C150.704 240.344 151.18 239.868 152.02 239.868C152.86 239.868 153.518 240.274 153.518 241.352V241.66H152.286C150.368 241.66 149.164 242.458 149.164 243.97C149.164 245.468 150.158 246.112 151.348 246.112ZM151.558 245.076C150.83 245.076 150.368 244.684 150.368 243.956C150.368 243.13 150.998 242.654 152.328 242.654H153.518V242.878C153.518 244.46 152.426 245.076 151.558 245.076ZM158.644 246.112C160.002 246.112 160.898 245.3 160.898 243.97C160.898 242.892 160.1 242.29 159.176 241.954C158.042 241.534 157.608 241.254 157.608 240.722C157.608 240.176 158.028 239.868 158.532 239.868C159.05 239.868 159.484 240.064 159.834 240.61L160.59 239.938C160.142 239.21 159.47 238.832 158.546 238.832C157.37 238.832 156.488 239.602 156.488 240.722C156.488 241.828 157.23 242.36 158.238 242.724C159.106 243.046 159.764 243.368 159.764 244.012C159.764 244.698 159.316 245.076 158.644 245.076C157.72 245.076 157.244 244.502 156.978 243.676L156.012 244.194C156.264 245.146 157.09 246.112 158.644 246.112ZM168.344 242.164C168.344 240.344 167.182 238.832 165.194 238.832C163.136 238.832 161.974 240.512 161.974 242.472C161.974 244.404 163.15 246.112 165.194 246.112C166.622 246.112 167.546 245.51 168.218 244.124L167.238 243.704C166.762 244.656 166.216 245.076 165.222 245.076C163.948 245.076 163.206 244.054 163.15 242.654H168.344V242.164ZM163.22 241.66C163.472 240.456 164.27 239.868 165.194 239.868C166.356 239.868 167 240.61 167.168 241.66H163.22Z" fill="#8F8F91"/>
<path d="M184.162 246H190V244.558H185.716V236.2H184.162V246ZM193.251 246.112C194.287 246.112 194.973 245.678 195.435 245.048L195.631 246H196.821V241.646C196.821 239.784 195.715 238.832 194.007 238.832C192.635 238.832 191.585 239.616 191.361 240.778L192.649 241.072C192.859 240.456 193.321 240.12 194.007 240.12C194.735 240.12 195.351 240.456 195.351 241.352V241.66H194.119C192.271 241.66 191.095 242.514 191.095 243.97C191.095 245.412 192.061 246.112 193.251 246.112ZM193.601 244.824C193.027 244.824 192.635 244.488 192.635 243.956C192.635 243.228 193.181 242.864 194.175 242.864H195.351V243.046C195.351 244.25 194.427 244.824 193.601 244.824ZM201.31 246.112C201.702 246.112 202.108 246.042 202.472 245.86L202.122 244.642C201.87 244.782 201.632 244.824 201.38 244.824C200.792 244.824 200.442 244.53 200.442 243.676V240.232H202.318V238.944H200.442V236.088L198.958 237.026V238.944H197.824V240.232H198.958V243.648C198.958 245.328 199.882 246.112 201.31 246.112ZM206.382 246.112C206.774 246.112 207.18 246.042 207.544 245.86L207.194 244.642C206.942 244.782 206.704 244.824 206.452 244.824C205.864 244.824 205.514 244.53 205.514 243.676V240.232H207.39V238.944H205.514V236.088L204.03 237.026V238.944H202.896V240.232H204.03V243.648C204.03 245.328 204.954 246.112 206.382 246.112ZM214.64 242.248C214.64 240.582 213.604 238.832 211.406 238.832C209.152 238.832 208.102 240.68 208.102 242.472C208.102 244.25 209.152 246.112 211.406 246.112C213.002 246.112 213.94 245.398 214.542 244.082L213.324 243.606C212.876 244.432 212.358 244.824 211.476 244.824C210.426 244.824 209.74 244.096 209.614 242.864H214.64V242.248ZM209.684 241.66C209.908 240.638 210.594 240.12 211.406 240.12C212.442 240.12 212.974 240.806 213.128 241.66H209.684Z" fill="#37383C"/>
<path d="M115.827 210H121.483V208.866H117.045V200.2H115.827V210ZM124.835 210.112C125.913 210.112 126.613 209.636 127.033 208.978L127.243 210H128.153V205.478C128.153 203.756 127.047 202.832 125.507 202.832C124.191 202.832 123.127 203.588 122.931 204.778L123.967 205.016C124.191 204.344 124.667 203.868 125.507 203.868C126.347 203.868 127.005 204.274 127.005 205.352V205.66H125.773C123.855 205.66 122.651 206.458 122.651 207.97C122.651 209.468 123.645 210.112 124.835 210.112ZM125.045 209.076C124.317 209.076 123.855 208.684 123.855 207.956C123.855 207.13 124.485 206.654 125.815 206.654H127.005V206.878C127.005 208.46 125.913 209.076 125.045 209.076ZM132.13 210.112C133.488 210.112 134.384 209.3 134.384 207.97C134.384 206.892 133.586 206.29 132.662 205.954C131.528 205.534 131.094 205.254 131.094 204.722C131.094 204.176 131.514 203.868 132.018 203.868C132.536 203.868 132.97 204.064 133.32 204.61L134.076 203.938C133.628 203.21 132.956 202.832 132.032 202.832C130.856 202.832 129.974 203.602 129.974 204.722C129.974 205.828 130.716 206.36 131.724 206.724C132.592 207.046 133.25 207.368 133.25 208.012C133.25 208.698 132.802 209.076 132.13 209.076C131.206 209.076 130.73 208.502 130.464 207.676L129.498 208.194C129.75 209.146 130.576 210.112 132.13 210.112ZM138.259 210.112C138.665 210.112 139.099 210.042 139.463 209.86L139.169 208.88C138.903 209.034 138.623 209.076 138.357 209.076C137.755 209.076 137.377 208.74 137.377 207.928V203.98H139.267V202.944H137.377V200.088L136.215 200.83V202.944H135.025V203.98H136.215V207.844C136.215 209.412 137.041 210.112 138.259 210.112ZM145.897 210H147.059L149.439 202.944H148.249L146.485 208.516L144.707 202.944H143.517L145.897 210ZM151.274 201.754C151.764 201.754 152.128 201.39 152.128 200.914C152.128 200.438 151.764 200.074 151.274 200.074C150.798 200.074 150.434 200.438 150.434 200.914C150.434 201.39 150.798 201.754 151.274 201.754ZM150.7 210H151.862V202.944H150.7V210ZM155.96 210.112C157.318 210.112 158.214 209.3 158.214 207.97C158.214 206.892 157.416 206.29 156.492 205.954C155.358 205.534 154.924 205.254 154.924 204.722C154.924 204.176 155.344 203.868 155.848 203.868C156.366 203.868 156.8 204.064 157.15 204.61L157.906 203.938C157.458 203.21 156.786 202.832 155.862 202.832C154.686 202.832 153.804 203.602 153.804 204.722C153.804 205.828 154.546 206.36 155.554 206.724C156.422 207.046 157.08 207.368 157.08 208.012C157.08 208.698 156.632 209.076 155.96 209.076C155.036 209.076 154.56 208.502 154.294 207.676L153.328 208.194C153.58 209.146 154.406 210.112 155.96 210.112ZM160.435 201.754C160.925 201.754 161.289 201.39 161.289 200.914C161.289 200.438 160.925 200.074 160.435 200.074C159.959 200.074 159.595 200.438 159.595 200.914C159.595 201.39 159.959 201.754 160.435 201.754ZM159.861 210H161.023V202.944H159.861V210ZM165.466 210.112C165.872 210.112 166.306 210.042 166.67 209.86L166.376 208.88C166.11 209.034 165.83 209.076 165.564 209.076C164.962 209.076 164.584 208.74 164.584 207.928V203.98H166.474V202.944H164.584V200.088L163.422 200.83V202.944H162.232V203.98H163.422V207.844C163.422 209.412 164.248 210.112 165.466 210.112Z" fill="#8F8F91"/>
<path d="M185.464 210H186.962V200.2H186.36L183.672 201.81V203.434L185.464 202.342V210ZM192.621 210H194.105V207.256C194.105 205.184 194.861 204.12 195.799 204.12C196.457 204.12 196.793 204.47 196.793 205.282V210H198.263V207.144C198.263 205.156 199.033 204.12 199.957 204.12C200.615 204.12 200.951 204.47 200.951 205.282V210H202.421V205.044C202.421 203.63 201.693 202.832 200.349 202.832C199.453 202.832 198.641 203.42 198.151 204.316C197.871 203.308 197.129 202.832 196.191 202.832C195.253 202.832 194.595 203.35 194.105 204.176V202.944H192.621V210ZM207.542 210.112C209.74 210.112 211.042 208.46 211.042 206.472C211.042 204.484 209.74 202.832 207.542 202.832C205.33 202.832 204.042 204.484 204.042 206.472C204.042 208.46 205.33 210.112 207.542 210.112ZM207.542 208.824C206.282 208.824 205.582 207.704 205.582 206.472C205.582 205.24 206.282 204.12 207.542 204.12C208.802 204.12 209.488 205.24 209.488 206.472C209.488 207.704 208.802 208.824 207.542 208.824ZM212.664 210H214.148V207.102C214.148 205.198 214.988 204.12 215.954 204.12C216.668 204.12 217.102 204.526 217.102 205.408V210H218.572V205.016C218.572 203.588 217.676 202.832 216.402 202.832C215.464 202.832 214.652 203.378 214.148 204.176V202.944H212.664V210ZM223.089 210.112C223.481 210.112 223.887 210.042 224.251 209.86L223.901 208.642C223.649 208.782 223.411 208.824 223.159 208.824C222.571 208.824 222.221 208.53 222.221 207.676V204.232H224.097V202.944H222.221V200.088L220.737 201.026V202.944H219.603V204.232H220.737V207.648C220.737 209.328 221.661 210.112 223.089 210.112ZM225.393 210H226.877V207.004C226.877 205.058 227.801 204.12 228.739 204.12C229.537 204.12 229.915 204.582 229.915 205.478V210H231.399V205.016C231.399 203.56 230.545 202.832 229.201 202.832C228.193 202.832 227.339 203.364 226.877 204.204V200.088H225.393V210ZM238.696 210.112C239.732 210.112 240.418 209.678 240.88 209.048L241.076 210H242.266V205.646C242.266 203.784 241.16 202.832 239.452 202.832C238.08 202.832 237.03 203.616 236.806 204.778L238.094 205.072C238.304 204.456 238.766 204.12 239.452 204.12C240.18 204.12 240.796 204.456 240.796 205.352V205.66H239.564C237.716 205.66 236.54 206.514 236.54 207.97C236.54 209.412 237.506 210.112 238.696 210.112ZM239.046 208.824C238.472 208.824 238.08 208.488 238.08 207.956C238.08 207.228 238.626 206.864 239.62 206.864H240.796V207.046C240.796 208.25 239.872 208.824 239.046 208.824ZM246.672 212.968C248.254 212.968 249.78 212.268 249.78 210.532C249.78 209.188 248.814 208.53 247.414 208.53H245.86C245.426 208.53 245.132 208.348 245.132 207.956C245.132 207.704 245.272 207.494 245.538 207.354C245.874 207.494 246.252 207.564 246.658 207.564C248.058 207.564 249.192 206.682 249.192 205.212C249.192 204.736 249.066 204.33 248.842 203.98L249.836 203.462L249.234 202.44L247.932 203.14C247.554 202.944 247.12 202.832 246.658 202.832C245.258 202.832 244.124 203.756 244.124 205.212C244.124 205.8 244.32 206.304 244.628 206.696C244.11 206.976 243.76 207.466 243.76 208.11C243.76 208.6 243.914 208.964 244.18 209.216C243.802 209.538 243.564 210.042 243.564 210.644C243.564 212.156 244.866 212.968 246.672 212.968ZM246.658 206.36C246.014 206.36 245.524 205.912 245.524 205.212C245.524 204.484 246.014 204.036 246.658 204.036C247.288 204.036 247.792 204.484 247.792 205.212C247.792 205.912 247.288 206.36 246.658 206.36ZM246.672 211.708C245.608 211.708 244.936 211.302 244.936 210.56C244.936 210.224 245.02 209.93 245.23 209.72C245.482 209.762 245.734 209.776 246.014 209.776H247.106C247.82 209.776 248.31 209.972 248.31 210.644C248.31 211.344 247.666 211.708 246.672 211.708ZM254.108 210.112C256.306 210.112 257.608 208.46 257.608 206.472C257.608 204.484 256.306 202.832 254.108 202.832C251.896 202.832 250.608 204.484 250.608 206.472C250.608 208.46 251.896 210.112 254.108 210.112ZM254.108 208.824C252.848 208.824 252.148 207.704 252.148 206.472C252.148 205.24 252.848 204.12 254.108 204.12C255.368 204.12 256.054 205.24 256.054 206.472C256.054 207.704 255.368 208.824 254.108 208.824Z" fill="#37383C"/>
<path d="M183.132 162H184.548L185.232 159.9H188.136L188.808 162H190.236L187.332 153.6H186.024L183.132 162ZM185.616 158.664L186.684 155.364L187.74 158.664H185.616ZM193.662 162.096C194.958 162.096 195.87 161.508 196.314 160.38L195.186 159.924C194.862 160.608 194.406 160.992 193.662 160.992C192.618 160.992 192.114 160.116 192.114 158.976C192.114 157.836 192.618 156.96 193.662 156.96C194.406 156.96 194.874 157.344 195.186 158.028L196.314 157.56C195.87 156.432 194.958 155.856 193.662 155.856C191.754 155.856 190.794 157.308 190.794 158.976C190.794 160.644 191.754 162.096 193.662 162.096ZM199.878 162.096C200.214 162.096 200.562 162.036 200.874 161.88L200.574 160.836C200.358 160.956 200.154 160.992 199.938 160.992C199.434 160.992 199.134 160.74 199.134 160.008V157.056H200.742V155.952H199.134V153.504L197.862 154.308V155.952H196.89V157.056H197.862V159.984C197.862 161.424 198.654 162.096 199.878 162.096ZM202.617 155.064C203.109 155.064 203.481 154.692 203.481 154.212C203.481 153.732 203.109 153.36 202.617 153.36C202.125 153.36 201.765 153.732 201.765 154.212C201.765 154.692 202.125 155.064 202.617 155.064ZM201.981 162H203.253V155.952H201.981V162ZM206.337 162H207.513L209.565 155.952H208.281L206.925 160.416L205.569 155.952H204.285L206.337 162ZM211.23 155.064C211.722 155.064 212.094 154.692 212.094 154.212C212.094 153.732 211.722 153.36 211.23 153.36C210.738 153.36 210.378 153.732 210.378 154.212C210.378 154.692 210.738 155.064 211.23 155.064ZM210.594 162H211.866V155.952H210.594V162ZM215.838 162.096C216.174 162.096 216.522 162.036 216.834 161.88L216.534 160.836C216.318 160.956 216.114 160.992 215.898 160.992C215.394 160.992 215.094 160.74 215.094 160.008V157.056H216.702V155.952H215.094V153.504L213.822 154.308V155.952H212.85V157.056H213.822V159.984C213.822 161.424 214.614 162.096 215.838 162.096ZM221.551 155.952L220.099 160.008L218.599 155.952H217.315L219.499 161.7L218.515 164.448H219.739L222.823 155.952H221.551ZM226.874 162H228.134V157.056H229.466V155.952H228.134V155.508C228.134 154.872 228.446 154.608 228.938 154.608C229.202 154.608 229.406 154.668 229.622 154.764L229.898 153.72C229.67 153.588 229.31 153.504 228.89 153.504C227.666 153.504 226.874 154.164 226.874 155.616V155.952H226.046V157.056H226.874V162ZM235.702 158.784C235.702 157.356 234.814 155.856 232.93 155.856C230.998 155.856 230.098 157.44 230.098 158.976C230.098 160.5 230.998 162.096 232.93 162.096C234.298 162.096 235.102 161.484 235.618 160.356L234.574 159.948C234.19 160.656 233.746 160.992 232.99 160.992C232.09 160.992 231.502 160.368 231.394 159.312H235.702V158.784ZM231.454 158.28C231.646 157.404 232.234 156.96 232.93 156.96C233.818 156.96 234.274 157.548 234.406 158.28H231.454ZM242.359 158.784C242.359 157.356 241.471 155.856 239.587 155.856C237.655 155.856 236.755 157.44 236.755 158.976C236.755 160.5 237.655 162.096 239.587 162.096C240.955 162.096 241.759 161.484 242.275 160.356L241.231 159.948C240.847 160.656 240.403 160.992 239.647 160.992C238.747 160.992 238.159 160.368 238.051 159.312H242.359V158.784ZM238.111 158.28C238.303 157.404 238.891 156.96 239.587 156.96C240.475 156.96 240.931 157.548 241.063 158.28H238.111ZM246.063 162.096C246.915 162.096 247.527 161.664 247.743 161.304V161.664V162H249.015V153.504H247.743V156.228V156.588C247.431 156.18 246.819 155.856 246.063 155.856C244.347 155.856 243.411 157.152 243.411 158.976C243.411 160.8 244.347 162.096 246.063 162.096ZM246.303 160.992C245.379 160.992 244.731 160.224 244.731 158.976C244.731 157.728 245.379 156.96 246.303 156.96C247.239 156.96 247.863 157.728 247.863 158.976C247.863 160.224 247.239 160.992 246.303 160.992Z" fill="#8F8F91"/>
<path d="M110.996 162H112.328V158.568H114.068C115.76 158.568 116.636 157.548 116.636 156.084C116.636 154.62 115.76 153.6 114.068 153.6H110.996V162ZM112.328 157.332V154.836H114.032C114.86 154.836 115.28 155.28 115.28 156.084C115.28 156.888 114.86 157.332 114.032 157.332H112.328ZM117.731 162H119.003V159.792C119.003 157.8 119.759 156.996 120.635 156.996C120.911 156.996 121.127 157.056 121.331 157.176L121.571 156C121.319 155.916 121.079 155.856 120.791 155.856C120.059 155.856 119.411 156.24 119.003 156.96V155.952H117.731V162ZM124.965 162.096C126.85 162.096 127.966 160.68 127.966 158.976C127.966 157.272 126.85 155.856 124.965 155.856C123.07 155.856 121.966 157.272 121.966 158.976C121.966 160.68 123.07 162.096 124.965 162.096ZM124.965 160.992C123.886 160.992 123.286 160.032 123.286 158.976C123.286 157.92 123.886 156.96 124.965 156.96C126.046 156.96 126.634 157.92 126.634 158.976C126.634 160.032 126.046 160.992 124.965 160.992ZM129.356 164.448H130.628V161.712V161.352C130.928 161.772 131.588 162.096 132.224 162.096C134.024 162.096 134.96 160.8 134.96 158.976C134.96 157.152 134.024 155.856 132.224 155.856C131.456 155.856 130.844 156.276 130.628 156.648V156.288V155.952H129.356V164.448ZM132.068 160.992C131.144 160.992 130.508 160.224 130.508 158.976C130.508 157.728 131.144 156.96 132.068 156.96C133.004 156.96 133.64 157.728 133.64 158.976C133.64 160.224 133.004 160.992 132.068 160.992ZM141.62 158.784C141.62 157.356 140.732 155.856 138.848 155.856C136.916 155.856 136.016 157.44 136.016 158.976C136.016 160.5 136.916 162.096 138.848 162.096C140.216 162.096 141.02 161.484 141.536 160.356L140.492 159.948C140.108 160.656 139.664 160.992 138.908 160.992C138.008 160.992 137.42 160.368 137.312 159.312H141.62V158.784ZM137.372 158.28C137.564 157.404 138.152 156.96 138.848 156.96C139.736 156.96 140.192 157.548 140.324 158.28H137.372ZM143.009 162H144.281V159.792C144.281 157.8 145.037 156.996 145.913 156.996C146.189 156.996 146.405 157.056 146.609 157.176L146.849 156C146.597 155.916 146.357 155.856 146.069 155.856C145.337 155.856 144.689 156.24 144.281 156.96V155.952H143.009V162ZM150.491 162.096C150.827 162.096 151.175 162.036 151.487 161.88L151.187 160.836C150.971 160.956 150.767 160.992 150.551 160.992C150.047 160.992 149.747 160.74 149.747 160.008V157.056H151.355V155.952H149.747V153.504L148.475 154.308V155.952H147.503V157.056H148.475V159.984C148.475 161.424 149.267 162.096 150.491 162.096ZM153.23 155.064C153.722 155.064 154.094 154.692 154.094 154.212C154.094 153.732 153.722 153.36 153.23 153.36C152.738 153.36 152.378 153.732 152.378 154.212C152.378 154.692 152.738 155.064 153.23 155.064ZM152.594 162H153.866V155.952H152.594V162ZM160.851 158.784C160.851 157.356 159.963 155.856 158.079 155.856C156.147 155.856 155.247 157.44 155.247 158.976C155.247 160.5 156.147 162.096 158.079 162.096C159.447 162.096 160.251 161.484 160.767 160.356L159.723 159.948C159.339 160.656 158.895 160.992 158.139 160.992C157.239 160.992 156.651 160.368 156.543 159.312H160.851V158.784ZM156.603 158.28C156.795 157.404 157.383 156.96 158.079 156.96C158.967 156.96 159.423 157.548 159.555 158.28H156.603ZM164.018 162.096C165.206 162.096 166.022 161.364 166.022 160.188C166.022 159.288 165.386 158.784 164.546 158.484C163.55 158.112 163.274 157.884 163.274 157.536C163.274 157.164 163.586 156.96 163.946 156.96C164.354 156.96 164.702 157.116 164.978 157.536L165.758 156.828C165.386 156.192 164.738 155.856 163.934 155.856C162.866 155.856 162.086 156.564 162.086 157.512C162.086 158.46 162.698 158.94 163.55 159.264C164.234 159.528 164.822 159.792 164.822 160.26C164.822 160.752 164.462 160.992 164.018 160.992C163.334 160.992 162.938 160.548 162.71 159.912L161.69 160.452C161.918 161.268 162.686 162.096 164.018 162.096Z" fill="#2A2A2F"/>
<rect x="127" y="171" width="24" height="2" rx="1" fill="#626266"/>
<circle cx="75" cy="75" r="47.5" fill="white" stroke="#F3F6FB"/>
<circle cx="75" cy="75" r="36" fill="#F3F6FB"/>
<circle cx="54.875" cy="79.625" r="3.5" fill="#37383C"/>
<circle cx="83.7188" cy="92.1562" r="4.40625" stroke="#37383C" stroke-width="3"/>
<circle cx="90.875" cy="63.3125" r="3.5" fill="#37383C"/>
<path d="M98.625 73.9399H91.2921C85.6114 73.9399 81.0064 69.3348 81.0064 63.6542V56.7331C81.0064 52.5312 77.6001 49.125 73.3983 49.125V49.125C69.1965 49.125 65.7903 52.5312 65.7903 56.733V80.4643C65.7903 86.1449 61.1852 90.75 55.5045 90.75H51.375" stroke="#FF9A9A" stroke-width="3" stroke-linecap="round" stroke-linejoin="round"/>
<path d="M123 76C123 102.51 101.51 124 75 124C48.4903 124 27 102.51 27 76C27 49.4903 48.4903 28 75 28C101.51 28 123 49.4903 123 76Z" fill="#FF9A9A"/>
<path fill-rule="evenodd" clip-rule="evenodd" d="M87.125 101.25C88.7128 101.25 90 99.9628 90 98.375C90 96.7872 88.7128 95.5 87.125 95.5C85.5372 95.5 84.25 96.7872 84.25 98.375C84.25 99.9628 85.5372 101.25 87.125 101.25ZM87.125 106.25C91.4742 106.25 95 102.724 95 98.375C95 94.0258 91.4742 90.5 87.125 90.5C82.7758 90.5 79.25 94.0258 79.25 98.375C79.25 102.724 82.7758 106.25 87.125 106.25Z" fill="#37383C"/>
<path fill-rule="evenodd" clip-rule="evenodd" d="M73.3644 43.5C77.5861 43.5 81.0085 46.9224 81.0085 51.1441V60.0865C81.0085 69.1992 88.3958 76.5865 97.5085 76.5865H107C108.381 76.5865 109.5 75.4673 109.5 74.0865C109.5 72.7058 108.381 71.5865 107 71.5865H97.5085C91.1572 71.5865 86.0085 66.4378 86.0085 60.0865V51.1441C86.0085 44.1609 80.3475 38.5 73.3644 38.5C66.3813 38.5 60.7203 44.1609 60.7203 51.1441V82.5C60.7203 88.8513 55.5716 94 49.2203 94H44C42.6193 94 41.5 95.1193 41.5 96.5C41.5 97.8807 42.6193 99 44 99H49.2203C58.333 99 65.7203 91.6127 65.7203 82.5V51.1441C65.7203 46.9224 69.1427 43.5 73.3644 43.5Z" fill="white"/>
<path d="M102.5 60.5C102.5 63.2614 100.261 65.5 97.5 65.5C94.7386 65.5 92.5 63.2614 92.5 60.5C92.5 57.7386 94.7386 55.5 97.5 55.5C100.261 55.5 102.5 57.7386 102.5 60.5Z" fill="#37383C"/>
<path d="M54.5 82.5C54.5 85.2614 52.2614 87.5 49.5 87.5C46.7386 87.5 44.5 85.2614 44.5 82.5C44.5 79.7386 46.7386 77.5 49.5 77.5C52.2614 77.5 54.5 79.7386 54.5 82.5Z" fill="#37383C"/>
<rect x="-4" y="17" width="368" height="258" rx="20" fill="white" stroke="white"/>
<circle cx="53.5" cy="84.5" r="33.5" fill="#DDF1FD"/>
<path d="M114.183 55H120.085V53.44H115.873V50.931H119.305V49.371H115.873V47.46H119.955V45.9H114.183V55ZM125.469 55H127.315L130.279 45.9H128.485L126.392 52.621L124.299 45.9H122.505L125.469 55ZM132.906 55H138.808V53.44H134.596V50.931H138.028V49.371H134.596V47.46H138.678V45.9H132.906V55ZM142.008 55H143.568V49.176L146.649 55H148.209V45.9H146.649V51.75L143.568 45.9H142.008V55ZM153.631 55H155.321V47.46H157.882V45.9H151.07V47.46H153.631V55Z" fill="#8F8F91"/>
<path d="M52 140.75C52 139.784 52.7835 139 53.75 139V139C54.7165 139 55.5 139.784 55.5 140.75V215.25C55.5 216.216 54.7165 217 53.75 217V217C52.7835 217 52 216.216 52 215.25V140.75Z" fill="#E9E9E9"/>
<path d="M52 223.75C52 222.784 52.7835 222 53.75 222V222C54.7165 222 55.5 222.784 55.5 223.75V226.25C55.5 227.216 54.7165 228 53.75 228V228C52.7835 228 52 227.216 52 226.25V223.75Z" fill="#E9E9E9"/>
<path d="M52 235.75C52 234.784 52.7835 234 53.75 234V234C54.7165 234 55.5 234.784 55.5 235.75V238.25C55.5 239.216 54.7165 240 53.75 240V240C52.7835 240 52 239.216 52 238.25V235.75Z" fill="#E9E9E9"/>
<rect opacity="0.5" x="237" y="164" width="80" height="30" rx="4.05599" fill="#DDF1FD"/>
<path d="M252.184 187.176C255.418 187.176 257.662 185.46 258.388 182.6L256.166 182.006C255.572 183.744 254.384 184.91 252.184 184.91C249.61 184.91 247.542 183.062 247.542 179.3C247.542 175.538 249.61 173.69 252.184 173.69C254.384 173.69 255.572 174.856 256.166 176.594L258.388 176C257.662 173.14 255.418 171.424 252.184 171.424C248.466 171.424 245.056 174.086 245.056 179.3C245.056 184.514 248.444 187.176 252.184 187.176ZM265.851 187.176C269.305 187.176 271.351 184.58 271.351 181.456C271.351 178.332 269.305 175.736 265.851 175.736C262.375 175.736 260.351 178.332 260.351 181.456C260.351 184.58 262.375 187.176 265.851 187.176ZM265.851 185.152C263.871 185.152 262.771 183.392 262.771 181.456C262.771 179.52 263.871 177.76 265.851 177.76C267.831 177.76 268.909 179.52 268.909 181.456C268.909 183.392 267.831 185.152 265.851 185.152ZM274.054 187H276.364V177.936H280.434V187H282.766V177.936H285.186V175.912H282.766V175.098C282.766 173.932 283.316 173.448 284.218 173.448C284.702 173.448 285.076 173.558 285.494 173.734L286 171.82C285.56 171.578 284.922 171.424 284.152 171.424C281.908 171.424 280.434 172.634 280.434 175.296V175.912H276.364V175.098C276.364 173.932 276.936 173.448 277.838 173.448C278.322 173.448 278.696 173.558 279.092 173.734L279.598 171.82C279.18 171.578 278.52 171.424 277.75 171.424C275.506 171.424 274.054 172.634 274.054 175.296V175.912H272.536V177.936H274.054V187ZM296.642 181.104C296.642 178.486 295.014 175.736 291.56 175.736C288.018 175.736 286.368 178.64 286.368 181.456C286.368 184.25 288.018 187.176 291.56 187.176C294.068 187.176 295.542 186.054 296.488 183.986L294.574 183.238C293.87 184.536 293.056 185.152 291.67 185.152C290.02 185.152 288.942 184.008 288.744 182.072H296.642V181.104ZM288.854 180.18C289.206 178.574 290.284 177.76 291.56 177.76C293.188 177.76 294.024 178.838 294.266 180.18H288.854ZM308.846 181.104C308.846 178.486 307.218 175.736 303.764 175.736C300.222 175.736 298.572 178.64 298.572 181.456C298.572 184.25 300.222 187.176 303.764 187.176C306.272 187.176 307.746 186.054 308.692 183.986L306.778 183.238C306.074 184.536 305.26 185.152 303.874 185.152C302.224 185.152 301.146 184.008 300.948 182.072H308.846V181.104ZM301.058 180.18C301.41 178.574 302.488 177.76 303.764 177.76C305.392 177.76 306.228 178.838 306.47 180.18H301.058Z" fill="#2A2A2F"/>
<path d="M165.507 187.176C166.101 187.176 166.695 187.066 167.311 186.78L166.673 184.58C166.299 184.778 165.991 184.844 165.617 184.844C164.693 184.844 164.165 184.404 164.165 183.04V178.244H167.091V175.912H164.165V171.424L161.437 173.14V175.912H159.721V178.244H161.437V183.084C161.437 185.834 162.999 187.176 165.507 187.176ZM175.845 175.912L173.381 182.732L170.851 175.912H168.101L172.105 186.252L170.213 191.488H172.853L178.573 175.912H175.845ZM180.335 191.488H183.063V186.648V185.988C183.547 186.604 184.625 187.176 185.747 187.176C189.091 187.176 190.807 184.866 190.807 181.456C190.807 178.046 189.091 175.736 185.747 175.736C184.383 175.736 183.371 176.484 183.063 177.056V176.396V175.912H180.335V191.488ZM185.373 184.844C183.943 184.844 182.821 183.656 182.821 181.456C182.821 179.256 183.943 178.068 185.373 178.068C186.803 178.068 187.947 179.256 187.947 181.456C187.947 183.656 186.803 184.844 185.373 184.844ZM203.147 181.214C203.147 178.794 201.673 175.736 197.977 175.736C194.171 175.736 192.653 178.838 192.653 181.456C192.653 184.074 194.171 187.176 197.977 187.176C200.661 187.176 202.157 185.9 203.015 183.942L200.815 183.128C200.155 184.272 199.385 184.844 198.131 184.844C196.745 184.844 195.733 184.03 195.491 182.336H203.147V181.214ZM195.557 180.18C195.909 178.794 196.811 178.068 197.977 178.068C199.429 178.068 200.111 179.08 200.353 180.18H195.557ZM210.948 179.388H220.562V177.012H210.948V179.388ZM210.948 183.348H220.562V180.972H210.948V183.348Z" fill="#8F8F91"/>
<path d="M120.727 173.364L125.364 173.364" stroke="#8F8F91" stroke-width="2.5" stroke-linecap="round" stroke-linejoin="round"/>
<path d="M122.273 178H125.364" stroke="#8F8F91" stroke-width="2.57724" stroke-linecap="round" stroke-linejoin="round"/>
<path d="M119.182 182.636L125.364 182.636" stroke="#8F8F91" stroke-width="2.57724" stroke-linecap="round" stroke-linejoin="round"/>
<path d="M136.182 178L134.126 184.182L130 171.818L142.364 175.945L136.182 178Z" stroke="#8F8F91" stroke-width="2.57724" stroke-linecap="round" stroke-linejoin="round"/>
<path d="M120.727 224.364L125.364 224.364" stroke="#8F8F91" stroke-width="2.5" stroke-linecap="round" stroke-linejoin="round"/>
<path d="M122.273 229H125.364" stroke="#8F8F91" stroke-width="2.57724" stroke-linecap="round" stroke-linejoin="round"/>
<path d="M119.182 233.636L125.364 233.636" stroke="#8F8F91" stroke-width="2.57724" stroke-linecap="round" stroke-linejoin="round"/>
<path d="M136.182 229L134.126 235.182L130 222.818L142.364 226.945L136.182 229Z" stroke="#8F8F91" stroke-width="2.57724" stroke-linecap="round" stroke-linejoin="round"/>
<rect opacity="0.5" x="237" y="211" width="68" height="32" rx="4.05599" fill="#DDF1FD"/>
<path d="M254.67 230.622C254.67 228.092 253.02 226.992 251.15 226.134C249.522 225.408 248.026 224.726 248.026 223.296C248.026 222.416 248.774 221.69 249.786 221.69C250.688 221.69 251.502 222.086 251.986 223.34L253.944 222.086C253.394 220.788 252.492 219.908 251.084 219.556V217.62H248.818V219.512C246.948 219.908 245.672 221.426 245.672 223.384C245.672 225.65 247.124 226.816 248.73 227.608C250.556 228.51 252.206 229.192 252.206 230.732C252.206 232.25 251.238 232.91 249.984 232.91C248.158 232.91 247.212 231.436 246.772 229.676L244.77 230.908C245.166 232.91 246.662 234.626 248.818 235.066V236.98H251.084V235.066C253.218 234.626 254.67 232.976 254.67 230.622ZM256.153 235H265.745V232.844H259.871L263.897 227.586C264.887 226.31 265.393 225.078 265.393 223.78C265.393 221.162 263.677 219.424 260.927 219.424C258.419 219.424 256.593 221.162 256.417 223.516L258.595 223.934C258.793 222.482 259.629 221.58 260.883 221.58C262.269 221.58 263.039 222.438 263.039 223.846C263.039 224.836 262.753 225.584 261.675 226.926L256.153 234.076V235ZM269.526 235.11C270.472 235.11 271.176 234.406 271.176 233.482C271.176 232.536 270.472 231.854 269.526 231.854C268.602 231.854 267.92 232.536 267.92 233.482C267.92 234.406 268.602 235.11 269.526 235.11ZM278.166 235.176C281.18 235.176 283.116 232.998 283.116 229.918C283.116 226.838 281.532 224.792 278.496 224.792C277.506 224.792 276.67 225.1 276.076 225.518L276.472 221.756H282.214V219.6H274.514L273.678 228.158L275.196 228.466C275.878 227.564 276.89 226.86 278.122 226.86C279.772 226.86 280.74 227.938 280.74 229.918C280.74 231.854 279.86 233.02 278.166 233.02C276.802 233.02 275.878 232.272 275.57 230.556L273.348 230.974C273.634 233.614 275.592 235.176 278.166 235.176ZM290.542 235.176C294.172 235.176 296.108 232.162 296.108 227.3C296.108 222.438 294.172 219.424 290.542 219.424C286.912 219.424 284.976 222.438 284.976 227.3C284.976 232.162 286.912 235.176 290.542 235.176ZM290.542 233.02C288.364 233.02 287.308 230.864 287.308 227.3C287.308 223.736 288.364 221.58 290.542 221.58C292.698 221.58 293.776 223.736 293.776 227.3C293.776 230.864 292.698 233.02 290.542 233.02Z" fill="#2A2A2F"/>
<path d="M161.243 239.488H163.971V234.648V233.988C164.455 234.604 165.533 235.176 166.655 235.176C169.999 235.176 171.715 232.866 171.715 229.456C171.715 226.046 169.999 223.736 166.655 223.736C165.291 223.736 164.279 224.484 163.971 225.056V224.396V223.912H161.243V239.488ZM166.281 232.844C164.851 232.844 163.729 231.656 163.729 229.456C163.729 227.256 164.851 226.068 166.281 226.068C167.711 226.068 168.855 227.256 168.855 229.456C168.855 231.656 167.711 232.844 166.281 232.844ZM174.177 235H176.905V231.062C176.905 227.476 178.291 226.178 179.875 226.178C180.337 226.178 180.689 226.288 181.019 226.486L181.525 223.956C181.085 223.824 180.667 223.736 180.183 223.736C178.929 223.736 177.697 224.418 176.905 225.716V223.912H174.177V235ZM184.715 222.482C185.727 222.482 186.475 221.712 186.475 220.722C186.475 219.732 185.727 218.962 184.715 218.962C183.703 218.962 182.955 219.732 182.955 220.722C182.955 221.712 183.703 222.482 184.715 222.482ZM183.351 235H186.079V223.912H183.351V235ZM193.904 235.176C196.368 235.176 198.106 234.098 198.942 232.008L196.5 231.018C195.928 232.184 195.136 232.844 193.904 232.844C192.188 232.844 191.352 231.414 191.352 229.456C191.352 227.498 192.188 226.068 193.904 226.068C195.136 226.068 195.928 226.728 196.5 227.894L198.942 226.904C198.106 224.814 196.368 223.736 193.904 223.736C190.296 223.736 188.492 226.332 188.492 229.456C188.492 232.58 190.296 235.176 193.904 235.176ZM211.147 229.214C211.147 226.794 209.673 223.736 205.977 223.736C202.171 223.736 200.653 226.838 200.653 229.456C200.653 232.074 202.171 235.176 205.977 235.176C208.661 235.176 210.157 233.9 211.015 231.942L208.815 231.128C208.155 232.272 207.385 232.844 206.131 232.844C204.745 232.844 203.733 232.03 203.491 230.336H211.147V229.214ZM203.557 228.18C203.909 226.794 204.811 226.068 205.977 226.068C207.429 226.068 208.111 227.08 208.353 228.18H203.557ZM218.948 227.388H228.562V225.012H218.948V227.388ZM218.948 231.348H228.562V228.972H218.948V231.348Z" fill="#8F8F91"/>
<path d="M114.183 147H120.085V145.44H115.873V142.931H119.305V141.371H115.873V139.46H119.955V137.9H114.183V147ZM125.469 147H127.315L130.279 137.9H128.485L126.392 144.621L124.299 137.9H122.505L125.469 147ZM132.906 147H138.808V145.44H134.596V142.931H138.028V141.371H134.596V139.46H138.678V137.9H132.906V147ZM142.008 147H143.568V141.176L146.649 147H148.209V137.9H146.649V143.75L143.568 137.9H142.008V147ZM153.631 147H155.321V139.46H157.882V137.9H151.07V139.46H153.631V147ZM170.456 147H172.146V143.438H173.758C175.682 143.438 176.605 142.255 176.605 140.669C176.605 139.083 175.682 137.9 173.758 137.9H170.456V147ZM172.146 141.878V139.46H173.693C174.434 139.46 174.889 139.837 174.889 140.669C174.889 141.501 174.434 141.878 173.693 141.878H172.146ZM179.441 147H181.131V143.074H182.015L184.459 147H186.344L183.822 142.931C184.927 142.593 185.525 141.683 185.525 140.487C185.525 138.979 184.576 137.9 182.756 137.9H179.441V147ZM181.131 141.514V139.46H182.769C183.38 139.46 183.835 139.746 183.835 140.487C183.835 141.228 183.38 141.514 182.769 141.514H181.131ZM191.922 147.104C193.898 147.104 195.458 145.57 195.458 142.45C195.458 139.33 193.898 137.796 191.922 137.796C189.946 137.796 188.386 139.33 188.386 142.45C188.386 145.57 189.946 147.104 191.922 147.104ZM191.922 145.544C190.921 145.544 190.076 144.738 190.076 142.45C190.076 140.162 190.921 139.356 191.922 139.356C192.923 139.356 193.768 140.162 193.768 142.45C193.768 144.738 192.923 145.544 191.922 145.544ZM198.541 147H200.231V143.438H201.843C203.767 143.438 204.69 142.255 204.69 140.669C204.69 139.083 203.767 137.9 201.843 137.9H198.541V147ZM200.231 141.878V139.46H201.778C202.519 139.46 202.974 139.837 202.974 140.669C202.974 141.501 202.519 141.878 201.778 141.878H200.231ZM207.798 147H213.7V145.44H209.488V142.931H212.92V141.371H209.488V139.46H213.57V137.9H207.798V147ZM216.887 147H218.577V143.074H219.461L221.905 147H223.79L221.268 142.931C222.373 142.593 222.971 141.683 222.971 140.487C222.971 138.979 222.022 137.9 220.202 137.9H216.887V147ZM218.577 141.514V139.46H220.215C220.826 139.46 221.281 139.746 221.281 140.487C221.281 141.228 220.826 141.514 220.215 141.514H218.577ZM228.523 147H230.213V139.46H232.774V137.9H225.962V139.46H228.523V147ZM235.961 147H241.499V145.44H239.575V139.46H241.499V137.9H235.961V139.46H237.885V145.44H235.961V147ZM245.244 147H251.146V145.44H246.934V142.931H250.366V141.371H246.934V139.46H251.016V137.9H245.244V147ZM257.531 147.104C259.299 147.104 260.599 146.194 260.599 144.296C260.599 142.658 259.481 142.034 258.09 141.67C256.881 141.358 256.361 141.059 256.361 140.344C256.361 139.681 256.92 139.356 257.544 139.356C258.155 139.356 258.74 139.655 259.026 140.435L260.391 139.746C260.027 138.667 259.13 137.796 257.544 137.796C255.802 137.796 254.671 138.81 254.671 140.305C254.671 141.709 255.464 142.45 256.92 142.918C258.324 143.373 258.909 143.594 258.909 144.361C258.909 145.128 258.389 145.544 257.583 145.544C256.283 145.544 255.763 144.699 255.581 143.867L254.086 144.426C254.437 146.207 255.815 147.104 257.531 147.104Z" fill="#8F8F91"/>
<path d="M154.76 94H157.62V87.972H160.568C163.824 87.972 165.386 85.97 165.386 83.286C165.386 80.602 163.824 78.6 160.568 78.6H154.76V94ZM157.62 85.332V81.24H160.458C161.712 81.24 162.482 81.878 162.482 83.286C162.482 84.694 161.712 85.332 160.458 85.332H157.62ZM170.905 94.176C172.335 94.176 173.523 93.384 174.337 92.218V94H177.065V82.912H174.337V87.334C174.337 90.26 173.127 91.844 171.807 91.844C170.883 91.844 170.223 91.338 170.223 90.018V82.912H167.495V90.832C167.495 93.054 168.925 94.176 170.905 94.176ZM180.149 94H182.877V90.062C182.877 86.476 184.263 85.178 185.847 85.178C186.309 85.178 186.661 85.288 186.991 85.486L187.497 82.956C187.057 82.824 186.639 82.736 186.155 82.736C184.901 82.736 183.669 83.418 182.877 84.716V82.912H180.149V94ZM193.604 94.176C196.068 94.176 197.806 93.098 198.642 91.008L196.2 90.018C195.628 91.184 194.836 91.844 193.604 91.844C191.888 91.844 191.052 90.414 191.052 88.456C191.052 86.498 191.888 85.068 193.604 85.068C194.836 85.068 195.628 85.728 196.2 86.894L198.642 85.904C197.806 83.814 196.068 82.736 193.604 82.736C189.996 82.736 188.192 85.332 188.192 88.456C188.192 91.58 189.996 94.176 193.604 94.176ZM200.839 94H203.567V89.314C203.567 86.322 204.909 85.068 206.163 85.068C207.285 85.068 207.813 85.706 207.813 87.048V94H210.541V86.08C210.541 83.814 209.177 82.736 207.087 82.736C205.481 82.736 204.271 83.572 203.567 84.694V78.424H200.839V94ZM216.072 94.176C217.656 94.176 218.712 93.538 219.482 92.592L219.768 94H222.012V87.378C222.012 84.276 220.274 82.736 217.348 82.736C215.126 82.736 213.476 83.99 213.124 85.816L215.434 86.344C215.786 85.42 216.468 85.068 217.348 85.068C218.36 85.068 219.284 85.53 219.284 86.696V87.18H217.348C214.51 87.18 212.706 88.61 212.706 90.81C212.706 93.01 214.18 94.176 216.072 94.176ZM216.798 91.844C216.072 91.844 215.566 91.404 215.566 90.766C215.566 89.776 216.292 89.336 217.458 89.336H219.284V89.556C219.284 90.986 218.03 91.844 216.798 91.844ZM228.273 94.176C230.473 94.176 232.057 92.768 232.057 90.59C232.057 88.94 230.935 88.038 229.351 87.466C227.481 86.784 227.085 86.388 227.085 85.904C227.085 85.376 227.613 85.068 228.163 85.068C228.845 85.068 229.461 85.332 229.945 86.036L231.573 84.54C230.891 83.396 229.593 82.736 228.097 82.736C226.051 82.736 224.599 84.122 224.599 85.838C224.599 87.554 225.699 88.478 227.239 89.094C228.405 89.556 229.527 90.018 229.527 90.766C229.527 91.514 228.889 91.844 228.251 91.844C227.173 91.844 226.447 91.096 226.051 90.018L223.873 91.184C224.313 92.658 225.809 94.176 228.273 94.176ZM243.953 88.214C243.953 85.794 242.479 82.736 238.783 82.736C234.977 82.736 233.459 85.838 233.459 88.456C233.459 91.074 234.977 94.176 238.783 94.176C241.467 94.176 242.963 92.9 243.821 90.942L241.621 90.128C240.961 91.272 240.191 91.844 238.937 91.844C237.551 91.844 236.539 91.03 236.297 89.336H243.953V88.214ZM236.363 87.18C236.715 85.794 237.617 85.068 238.783 85.068C240.235 85.068 240.917 86.08 241.159 87.18H236.363ZM250.631 94.176C252.215 94.176 253.227 93.428 253.535 92.856V93.516V94H256.263V78.424H253.535V83.264V83.924C253.051 83.308 251.973 82.736 250.631 82.736C247.507 82.736 245.791 85.046 245.791 88.456C245.791 91.866 247.507 94.176 250.631 94.176ZM251.225 91.844C249.795 91.844 248.651 90.656 248.651 88.456C248.651 86.256 249.795 85.068 251.225 85.068C252.655 85.068 253.777 86.256 253.777 88.456C253.777 90.656 252.655 91.844 251.225 91.844ZM266.162 81.482C267.174 81.482 267.922 80.712 267.922 79.722C267.922 78.732 267.174 77.962 266.162 77.962C265.15 77.962 264.402 78.732 264.402 79.722C264.402 80.712 265.15 81.482 266.162 81.482ZM264.798 94H267.526V82.912H264.798V94ZM275.043 94.176C275.637 94.176 276.231 94.066 276.847 93.78L276.209 91.58C275.835 91.778 275.527 91.844 275.153 91.844C274.229 91.844 273.701 91.404 273.701 90.04V85.244H276.627V82.912H273.701V78.424L270.973 80.14V82.912H269.257V85.244H270.973V90.084C270.973 92.834 272.535 94.176 275.043 94.176ZM288.082 88.214C288.082 85.794 286.608 82.736 282.912 82.736C279.106 82.736 277.588 85.838 277.588 88.456C277.588 91.074 279.106 94.176 282.912 94.176C285.596 94.176 287.092 92.9 287.95 90.942L285.75 90.128C285.09 91.272 284.32 91.844 283.066 91.844C281.68 91.844 280.668 91.03 280.426 89.336H288.082V88.214ZM280.492 87.18C280.844 85.794 281.746 85.068 282.912 85.068C284.364 85.068 285.046 86.08 285.288 87.18H280.492ZM290.536 94H293.264V89.93C293.264 86.63 294.32 85.068 295.662 85.068C296.476 85.068 297.026 85.486 297.026 86.608V94H299.754V89.688C299.754 86.564 300.832 85.068 302.152 85.068C302.966 85.068 303.516 85.486 303.516 86.608V94H306.244V86.146C306.244 84.012 305.012 82.736 302.944 82.736C301.58 82.736 300.348 83.594 299.556 85.024C299.072 83.418 297.818 82.736 296.454 82.736C295.024 82.736 294.078 83.462 293.264 84.694V82.912H290.536V94Z" fill="#626266"/>
<path fill-rule="evenodd" clip-rule="evenodd" d="M119.426 75.4256C119.771 75.0803 120.239 74.8864 120.727 74.8864H139.273C139.761 74.8864 140.229 75.0803 140.575 75.4256C140.92 75.7708 141.114 76.239 141.114 76.7273V83.9445C141.114 84.6349 141.673 85.1945 142.364 85.1945C143.054 85.1945 143.614 84.6349 143.614 83.9445V76.7273C143.614 75.576 143.156 74.4719 142.342 73.6578C141.528 72.8437 140.424 72.3864 139.273 72.3864H120.727C119.576 72.3864 118.472 72.8437 117.658 73.6578C116.844 74.4719 116.386 75.576 116.386 76.7273V95.2727C116.386 96.424 116.844 97.5281 117.658 98.3422C118.472 99.1563 119.576 99.6136 120.727 99.6136H127.945C128.635 99.6136 129.195 99.054 129.195 98.3636C129.195 97.6733 128.635 97.1136 127.945 97.1136H120.727C120.239 97.1136 119.771 96.9197 119.426 96.5744C119.08 96.2292 118.886 95.761 118.886 95.2727V76.7273C118.886 76.239 119.08 75.7708 119.426 75.4256ZM127.995 78.8581C129.178 78.5259 130.424 78.4918 131.622 78.7589C132.821 79.026 133.935 79.586 134.864 80.3887C135.793 81.1915 136.509 82.212 136.948 83.3591C137.194 84.0039 136.871 84.7265 136.227 84.973C135.582 85.2195 134.859 84.8966 134.613 84.2518C134.322 83.4906 133.847 82.8133 133.23 82.2806C132.613 81.7479 131.874 81.3763 131.079 81.1991C130.283 81.0218 129.456 81.0444 128.672 81.2649C127.887 81.4854 127.17 81.8968 126.583 82.4624C125.996 83.0281 125.559 83.7303 125.31 84.5062C125.061 85.2822 125.008 86.1078 125.156 86.9091C125.304 87.7105 125.649 88.4627 126.159 89.0984C126.668 89.7341 127.328 90.2336 128.078 90.5522C128.713 90.8221 129.01 91.5559 128.74 92.1914C128.47 92.8268 127.736 93.1231 127.101 92.8532C125.97 92.3732 124.977 91.6205 124.208 90.6625C123.44 89.7045 122.921 88.5711 122.698 87.3635C122.475 86.1559 122.554 84.9119 122.929 83.7425C123.305 82.5732 123.964 81.5151 124.848 80.6627C125.732 79.8104 126.813 79.1904 127.995 78.8581ZM129.116 85.1161C129.451 84.7812 129.946 84.6643 130.396 84.8143L142.759 88.9407C143.27 89.111 143.614 89.5889 143.614 90.1271C143.613 90.6652 143.269 91.1427 142.758 91.3125L137.17 93.1704L135.312 98.758C135.143 99.2687 134.665 99.6133 134.127 99.6136C133.589 99.6139 133.111 99.2698 132.941 98.7594L128.814 86.3957C128.664 85.9465 128.781 85.451 129.116 85.1161ZM131.978 87.9779L134.124 94.4086L134.996 91.7874C135.12 91.4134 135.413 91.12 135.787 90.9957L138.409 90.1241L131.978 87.9779Z" fill="#2A2A2F"/>
<path d="M35 71.0667H69.7999V84.6C69.7999 94.2097 62.0097 102 52.3999 102V102C42.7902 102 35 94.2097 35 84.6V71.0667Z" stroke="#2A2A2F" stroke-width="3.5" stroke-linecap="round" stroke-linejoin="round"/>
<line x1="36.75" y1="78.983" x2="60.3166" y2="78.983" stroke="#2A2A2F" stroke-width="3.5" stroke-linecap="round" stroke-linejoin="round"/>
<path d="M35 102H69.7999" stroke="#2A2A2F" stroke-width="3.5" stroke-linecap="round" stroke-linejoin="round"/>
<path d="M69.7998 71.0667H73.1962C76.6592 71.0667 79.4664 73.874 79.4664 77.337C79.4664 80.8 76.6592 83.6072 73.1962 83.6072H69.7998" stroke="#2A2A2F" stroke-width="3.5" stroke-linecap="round" stroke-linejoin="round"/>
<path d="M48.5333 55.5999C50.786 56.7256 52.4 59.7629 52.4 63.3332" stroke="#2A2A2F" stroke-width="3.5" stroke-linecap="round" stroke-linejoin="round"/>
<path d="M48.5333 55.5999C46.2806 54.4742 44.6667 51.4369 44.6667 47.8666" stroke="#2A2A2F" stroke-width="3.5" stroke-linecap="round" stroke-linejoin="round"/>
<path d="M56.2666 51.7333C54.0139 50.6076 52.3999 47.5703 52.3999 44" stroke="#2A2A2F" stroke-width="3.5" stroke-linecap="round" stroke-linejoin="round"/>
</g>
<rect x="11" y="7" width="338" height="278" rx="20" stroke="white"/>
</g>
<defs>
<filter id="filter0_dd_3311_203727" x="0.5" y="0.5" width="359" height="299" filterUnits="userSpaceOnUse" color-interpolation-filters="sRGB">
<feFlood flood-opacity="0" result="BackgroundImageFix"/>
<feColorMatrix in="SourceAlpha" type="matrix" values="0 0 0 0 0 0 0 0 0 0 0 0 0 0 0 0 0 0 127 0" result="hardAlpha"/>
<feOffset dy="4"/>
<feGaussianBlur stdDeviation="5"/>
<feColorMatrix type="matrix" values="0 0 0 0 0.215686 0 0 0 0 0.219608 0 0 0 0 0.235294 0 0 0 0.16 0"/>
<feBlend mode="normal" in2="BackgroundImageFix" result="effect1_dropShadow_3311_203727"/>
<feColorMatrix in="SourceAlpha" type="matrix" values="0 0 0 0 0 0 0 0 0 0 0 0 0 0 0 0 0 0 127 0" result="hardAlpha"/>
<feOffset/>
<feGaussianBlur stdDeviation="1"/>
<feColorMatrix type="matrix" values="0 0 0 0 0.215686 0 0 0 0 0.219608 0 0 0 0 0.235294 0 0 0 0.48 0"/>
<feBlend mode="normal" in2="effect1_dropShadow_3311_203727" result="effect2_dropShadow_3311_203727"/>
<feBlend mode="normal" in="SourceGraphic" in2="effect2_dropShadow_3311_203727" result="shape"/>
</filter>
<clipPath id="clip0_3311_203727">
<rect x="11" y="7" width="338" height="278" rx="20" fill="white"/>
</clipPath>
</defs>
</svg>
