<svg width="360" height="300" viewBox="0 0 360 300" fill="none" xmlns="http://www.w3.org/2000/svg">
<g filter="url(#filter0_dd_3311_203727)">
<rect x="11" y="7" width="338" height="278" rx="20" fill="white"/>
<path d="M156.52 56H158.99V50.034H164.31V56H166.78V42.7H164.31V47.754H158.99V42.7H156.52V56ZM171.843 56.152C173.211 56.152 174.123 55.601 174.788 54.784L175.035 56H176.973V50.281C176.973 47.602 175.472 46.272 172.945 46.272C171.026 46.272 169.601 47.355 169.297 48.932L171.292 49.388C171.596 48.59 172.185 48.286 172.945 48.286C173.819 48.286 174.617 48.685 174.617 49.692V50.11H172.945C170.494 50.11 168.936 51.345 168.936 53.245C168.936 55.145 170.209 56.152 171.843 56.152ZM172.47 54.138C171.843 54.138 171.406 53.758 171.406 53.207C171.406 52.352 172.033 51.972 173.04 51.972H174.617V52.162C174.617 53.397 173.534 54.138 172.47 54.138ZM179.449 59.876H181.805V55.696V55.126C182.223 55.658 183.154 56.152 184.123 56.152C187.011 56.152 188.493 54.157 188.493 51.212C188.493 48.267 187.011 46.272 184.123 46.272C182.945 46.272 182.071 46.918 181.805 47.412V46.842V46.424H179.449V59.876ZM183.8 54.138C182.565 54.138 181.596 53.112 181.596 51.212C181.596 49.312 182.565 48.286 183.8 48.286C185.035 48.286 186.023 49.312 186.023 51.212C186.023 53.112 185.035 54.138 183.8 54.138ZM190.619 59.876H192.975V55.696V55.126C193.393 55.658 194.324 56.152 195.293 56.152C198.181 56.152 199.663 54.157 199.663 51.212C199.663 48.267 198.181 46.272 195.293 46.272C194.115 46.272 193.241 46.918 192.975 47.412V46.842V46.424H190.619V59.876ZM194.97 54.138C193.735 54.138 192.766 53.112 192.766 51.212C192.766 49.312 193.735 48.286 194.97 48.286C196.205 48.286 197.193 49.312 197.193 51.212C197.193 53.112 196.205 54.138 194.97 54.138ZM207.059 46.424L204.931 52.314L202.746 46.424H200.371L203.829 55.354L202.195 59.876H204.475L209.415 46.424H207.059ZM215.839 56H218.309V49.654L223.135 56H226.27L220.494 48.647L225.89 42.7H222.85L218.309 47.64V42.7H215.839V56ZM229.937 56.152C231.305 56.152 232.217 55.601 232.882 54.784L233.129 56H235.067V50.281C235.067 47.602 233.566 46.272 231.039 46.272C229.12 46.272 227.695 47.355 227.391 48.932L229.386 49.388C229.69 48.59 230.279 48.286 231.039 48.286C231.913 48.286 232.711 48.685 232.711 49.692V50.11H231.039C228.588 50.11 227.03 51.345 227.03 53.245C227.03 55.145 228.303 56.152 229.937 56.152ZM230.564 54.138C229.937 54.138 229.5 53.758 229.5 53.207C229.5 52.352 230.127 51.972 231.134 51.972H232.711V52.162C232.711 53.397 231.628 54.138 230.564 54.138ZM241.382 56.152C241.895 56.152 242.408 56.057 242.94 55.81L242.389 53.91C242.066 54.081 241.8 54.138 241.477 54.138C240.679 54.138 240.223 53.758 240.223 52.58V48.438H242.75V46.424H240.223V42.548L237.867 44.03V46.424H236.385V48.438H237.867V52.618C237.867 54.993 239.216 56.152 241.382 56.152ZM244.372 56H246.728V51.953C246.728 49.369 247.887 48.286 248.97 48.286C249.939 48.286 250.395 48.837 250.395 49.996V56H252.751V49.16C252.751 47.203 251.573 46.272 249.768 46.272C248.381 46.272 247.336 46.994 246.728 47.963V42.548H244.372V56ZM260.515 46.424L258.387 52.314L256.202 46.424H253.827L257.285 55.354L255.651 59.876H257.931L262.871 46.424H260.515Z" fill="#37383C"/>
<path d="M186.044 85H187.088V81.004H191.06V85H192.104V76.6H191.06V80.032H187.088V76.6H186.044V85ZM195.452 85.096C196.376 85.096 196.976 84.688 197.336 84.124L197.516 85H198.296V81.124C198.296 79.648 197.348 78.856 196.028 78.856C194.9 78.856 193.988 79.504 193.82 80.524L194.708 80.728C194.9 80.152 195.308 79.744 196.028 79.744C196.748 79.744 197.312 80.092 197.312 81.016V81.28H196.256C194.612 81.28 193.58 81.964 193.58 83.26C193.58 84.544 194.432 85.096 195.452 85.096ZM195.632 84.208C195.008 84.208 194.612 83.872 194.612 83.248C194.612 82.54 195.152 82.132 196.292 82.132H197.312V82.324C197.312 83.68 196.376 84.208 195.632 84.208ZM199.963 87.448H200.959V84.604V84.244C201.319 84.772 202.039 85.096 202.723 85.096C204.499 85.096 205.435 83.752 205.435 81.976C205.435 80.2 204.499 78.856 202.723 78.856C201.919 78.856 201.223 79.3 200.959 79.732V79.372V78.952H199.963V87.448ZM202.627 84.208C201.511 84.208 200.863 83.272 200.863 81.976C200.863 80.668 201.511 79.744 202.627 79.744C203.743 79.744 204.403 80.668 204.403 81.976C204.403 83.272 203.743 84.208 202.627 84.208ZM206.888 87.448H207.884V84.604V84.244C208.244 84.772 208.964 85.096 209.648 85.096C211.424 85.096 212.36 83.752 212.36 81.976C212.36 80.2 211.424 78.856 209.648 78.856C208.844 78.856 208.148 79.3 207.884 79.732V79.372V78.952H206.888V87.448ZM209.552 84.208C208.436 84.208 207.788 83.272 207.788 81.976C207.788 80.668 208.436 79.744 209.552 79.744C210.668 79.744 211.328 80.668 211.328 81.976C211.328 83.272 210.668 84.208 209.552 84.208ZM217.141 78.952L215.557 83.428L213.913 78.952H212.893L215.065 84.832L214.141 87.448H215.113L218.149 78.952H217.141ZM219.314 85H220.358V80.692L223.778 85H225.086L221.366 80.368L224.798 76.6H223.502L220.358 80.032V76.6H219.314V85ZM227.538 85.096C228.462 85.096 229.062 84.688 229.422 84.124L229.602 85H230.382V81.124C230.382 79.648 229.434 78.856 228.114 78.856C226.986 78.856 226.074 79.504 225.906 80.524L226.794 80.728C226.986 80.152 227.394 79.744 228.114 79.744C228.834 79.744 229.398 80.092 229.398 81.016V81.28H228.342C226.698 81.28 225.666 81.964 225.666 83.26C225.666 84.544 226.518 85.096 227.538 85.096ZM227.718 84.208C227.094 84.208 226.698 83.872 226.698 83.248C226.698 82.54 227.238 82.132 228.378 82.132H229.398V82.324C229.398 83.68 228.462 84.208 227.718 84.208ZM234.052 85.096C234.4 85.096 234.772 85.036 235.084 84.88L234.832 84.04C234.604 84.172 234.364 84.208 234.136 84.208C233.62 84.208 233.296 83.92 233.296 83.224V79.84H234.916V78.952H233.296V76.504L232.3 77.14V78.952H231.28V79.84H232.3V83.152C232.3 84.496 233.008 85.096 234.052 85.096ZM236.138 85H237.134V82.432C237.134 80.716 237.998 79.744 238.97 79.744C239.726 79.744 240.11 80.2 240.11 81.028V85H241.094V80.788C241.094 79.528 240.386 78.856 239.21 78.856C238.37 78.856 237.542 79.3 237.134 80.164V76.504H236.138V85ZM246.087 78.952L244.503 83.428L242.859 78.952H241.839L244.011 84.832L243.087 87.448H244.059L247.095 78.952H246.087ZM252.687 86.128C253.935 86.128 254.751 85.9 255.939 85.288L255.603 84.508C254.427 85.132 253.611 85.276 252.687 85.276C250.695 85.276 248.931 83.92 248.931 81.388C248.931 78.688 250.815 77.236 252.699 77.236C254.871 77.236 256.191 78.484 256.191 80.752C256.191 81.976 255.867 82.852 255.135 82.852C254.763 82.852 254.535 82.672 254.535 82.192C254.535 82.132 254.547 82.036 254.559 81.892L254.835 78.892H254.067L253.911 79.468C253.647 79.048 253.179 78.808 252.603 78.808C251.091 78.808 250.083 79.996 250.083 81.46C250.083 82.768 250.815 83.704 252.147 83.704C252.879 83.704 253.395 83.32 253.767 82.804C253.911 83.26 254.367 83.704 255.063 83.704C256.239 83.704 257.187 82.744 257.187 80.776C257.187 77.992 255.447 76.384 252.759 76.384C250.191 76.384 247.935 78.136 247.935 81.388C247.935 84.292 249.963 86.128 252.687 86.128ZM252.231 82.852C251.511 82.852 251.067 82.396 251.067 81.496C251.067 80.44 251.655 79.66 252.519 79.66C253.299 79.66 253.707 80.188 253.707 81.028C253.707 81.988 253.155 82.852 252.231 82.852ZM263.914 81.712C263.914 80.152 262.918 78.856 261.214 78.856C259.45 78.856 258.454 80.296 258.454 81.976C258.454 83.632 259.462 85.096 261.214 85.096C262.438 85.096 263.23 84.58 263.806 83.392L262.966 83.032C262.558 83.848 262.09 84.208 261.238 84.208C260.146 84.208 259.51 83.332 259.462 82.132H263.914V81.712ZM259.522 81.28C259.738 80.248 260.422 79.744 261.214 79.744C262.21 79.744 262.762 80.38 262.906 81.28H259.522ZM265.377 85H266.373V82.492C266.373 80.74 267.105 79.744 268.005 79.744C268.725 79.744 268.977 80.14 268.977 80.956V85H269.961V82.444C269.961 80.728 270.705 79.744 271.605 79.744C272.313 79.744 272.577 80.14 272.577 80.956V85H273.561V80.8C273.561 79.54 272.997 78.856 271.821 78.856C271.029 78.856 270.297 79.396 269.889 80.164C269.685 79.3 269.097 78.856 268.233 78.856C267.381 78.856 266.769 79.36 266.373 80.116V78.952H265.377V85ZM276.733 85.096C277.657 85.096 278.257 84.688 278.617 84.124L278.797 85H279.577V81.124C279.577 79.648 278.629 78.856 277.309 78.856C276.181 78.856 275.269 79.504 275.101 80.524L275.989 80.728C276.181 80.152 276.589 79.744 277.309 79.744C278.029 79.744 278.593 80.092 278.593 81.016V81.28H277.537C275.893 81.28 274.861 81.964 274.861 83.26C274.861 84.544 275.713 85.096 276.733 85.096ZM276.913 84.208C276.289 84.208 275.893 83.872 275.893 83.248C275.893 82.54 276.433 82.132 277.573 82.132H278.593V82.324C278.593 83.68 277.657 84.208 276.913 84.208ZM281.736 77.932C282.156 77.932 282.468 77.62 282.468 77.212C282.468 76.804 282.156 76.492 281.736 76.492C281.328 76.492 281.016 76.804 281.016 77.212C281.016 77.62 281.328 77.932 281.736 77.932ZM281.244 85H282.24V78.952H281.244V85ZM284.045 85H285.041V76.504H284.045V85ZM287.397 85.036C287.829 85.036 288.141 84.724 288.141 84.304C288.141 83.872 287.829 83.56 287.397 83.56C286.977 83.56 286.665 83.872 286.665 84.304C286.665 84.724 286.977 85.036 287.397 85.036ZM292.187 85.096C293.423 85.096 294.287 84.52 294.719 83.404L293.831 83.056C293.507 83.8 293.003 84.208 292.187 84.208C290.999 84.208 290.447 83.2 290.447 81.976C290.447 80.74 290.999 79.744 292.187 79.744C293.003 79.744 293.531 80.164 293.831 80.896L294.719 80.548C294.287 79.408 293.423 78.856 292.187 78.856C290.339 78.856 289.415 80.356 289.415 81.976C289.415 83.596 290.339 85.096 292.187 85.096ZM298.648 85.096C300.46 85.096 301.552 83.62 301.552 81.976C301.552 80.332 300.46 78.856 298.648 78.856C296.824 78.856 295.732 80.332 295.732 81.976C295.732 83.62 296.824 85.096 298.648 85.096ZM298.648 84.208C297.412 84.208 296.764 83.116 296.764 81.976C296.764 80.836 297.412 79.744 298.648 79.744C299.872 79.744 300.52 80.836 300.52 81.976C300.52 83.116 299.872 84.208 298.648 84.208ZM303.005 85H304.001V82.492C304.001 80.74 304.733 79.744 305.633 79.744C306.353 79.744 306.605 80.14 306.605 80.956V85H307.589V82.444C307.589 80.728 308.333 79.744 309.233 79.744C309.941 79.744 310.205 80.14 310.205 80.956V85H311.189V80.8C311.189 79.54 310.625 78.856 309.449 78.856C308.657 78.856 307.925 79.396 307.517 80.164C307.313 79.3 306.725 78.856 305.861 78.856C305.009 78.856 304.397 79.36 304.001 80.116V78.952H303.005V85Z" fill="#626266"/>
<path fill-rule="evenodd" clip-rule="evenodd" d="M174.75 86.9C174.75 88.1979 173.698 89.25 172.4 89.25H159.6C158.302 89.25 157.25 88.1979 157.25 86.9V77.1C157.25 75.8021 158.302 74.75 159.6 74.75H172.4C173.698 74.75 174.75 75.8021 174.75 77.1V86.9ZM159.329 76.294C159.414 76.2655 159.505 76.25 159.6 76.25H172.4C172.495 76.25 172.586 76.2655 172.671 76.294L166.63 82.86C166.463 83.0273 166.236 83.1214 166 83.1214C165.764 83.1214 165.537 83.0273 165.37 82.86L159.329 76.294ZM173.25 77.9293L169.68 81.8035L173.25 85.3004V77.9293ZM168.664 82.9064L167.73 83.92C167.287 84.4073 166.658 84.6836 166 84.68C165.342 84.6836 164.713 84.4073 164.27 83.92L163.326 82.8959L158.843 87.2874C158.984 87.5621 159.27 87.75 159.6 87.75H172.4C172.725 87.75 173.007 87.5681 173.15 87.3007L168.664 82.9064ZM162.31 81.793L158.75 77.9293V85.2804L162.31 81.793Z" fill="#2A2A2F"/>
<path d="M188.18 111.096C189.584 111.096 190.628 110.136 190.628 108.648C190.628 107.304 189.752 106.668 188.696 106.188C187.796 105.78 186.968 105.396 186.968 104.496C186.968 103.956 187.388 103.476 188.06 103.476C188.564 103.476 189.056 103.68 189.356 104.412L190.208 103.872C189.848 103.056 189.224 102.504 188.06 102.504C186.848 102.504 185.948 103.356 185.948 104.556C185.948 105.756 186.764 106.392 187.712 106.848C188.72 107.328 189.572 107.724 189.572 108.696C189.572 109.668 188.96 110.124 188.192 110.124C187.1 110.124 186.572 109.272 186.332 108.264L185.468 108.804C185.684 110.052 186.74 111.096 188.18 111.096ZM197.176 107.712C197.176 106.152 196.18 104.856 194.476 104.856C192.712 104.856 191.716 106.296 191.716 107.976C191.716 109.632 192.724 111.096 194.476 111.096C195.7 111.096 196.492 110.58 197.068 109.392L196.228 109.032C195.82 109.848 195.352 110.208 194.5 110.208C193.408 110.208 192.772 109.332 192.724 108.132H197.176V107.712ZM192.784 107.28C193 106.248 193.684 105.744 194.476 105.744C195.472 105.744 196.024 106.38 196.168 107.28H192.784ZM200.139 111.096C201.063 111.096 201.663 110.688 202.023 110.124L202.203 111H202.983V107.124C202.983 105.648 202.035 104.856 200.715 104.856C199.587 104.856 198.675 105.504 198.507 106.524L199.395 106.728C199.587 106.152 199.995 105.744 200.715 105.744C201.435 105.744 201.999 106.092 201.999 107.016V107.28H200.943C199.299 107.28 198.267 107.964 198.267 109.26C198.267 110.544 199.119 111.096 200.139 111.096ZM200.319 110.208C199.695 110.208 199.299 109.872 199.299 109.248C199.299 108.54 199.839 108.132 200.979 108.132H201.999V108.324C201.999 109.68 201.063 110.208 200.319 110.208ZM206.654 111.096C207.002 111.096 207.374 111.036 207.686 110.88L207.434 110.04C207.206 110.172 206.966 110.208 206.738 110.208C206.222 110.208 205.898 109.92 205.898 109.224V105.84H207.518V104.952H205.898V102.504L204.902 103.14V104.952H203.882V105.84H204.902V109.152C204.902 110.496 205.61 111.096 206.654 111.096ZM210.873 111.096C211.221 111.096 211.593 111.036 211.905 110.88L211.653 110.04C211.425 110.172 211.185 110.208 210.957 110.208C210.441 110.208 210.117 109.92 210.117 109.224V105.84H211.737V104.952H210.117V102.504L209.121 103.14V104.952H208.101V105.84H209.121V109.152C209.121 110.496 209.829 111.096 210.873 111.096ZM212.959 111H213.955V102.504H212.959V111ZM220.871 107.712C220.871 106.152 219.875 104.856 218.171 104.856C216.407 104.856 215.411 106.296 215.411 107.976C215.411 109.632 216.419 111.096 218.171 111.096C219.395 111.096 220.187 110.58 220.763 109.392L219.923 109.032C219.515 109.848 219.047 110.208 218.195 110.208C217.103 110.208 216.467 109.332 216.419 108.132H220.871V107.712ZM216.479 107.28C216.695 106.248 217.379 105.744 218.171 105.744C219.167 105.744 219.719 106.38 219.863 107.28H216.479ZM221.77 112.152H222.502L223.834 109.752H222.43L221.77 112.152ZM229.728 111H230.796L232.572 105.144L234.36 111H235.416L237.684 102.6H236.592L234.852 109.44L233.04 103.488H232.116L230.292 109.44L228.564 102.6H227.46L229.728 111ZM237.351 111H238.455L239.223 108.744H242.415L243.183 111H244.275L241.311 102.6H240.327L237.351 111ZM239.535 107.772L240.819 104.004L242.103 107.772H239.535ZM244.75 112.152H245.482L246.814 109.752H245.41L244.75 112.152ZM254.185 111.096C255.805 111.096 257.149 110.124 257.149 108.144V102.6H256.105V108.204C256.105 109.308 255.469 110.124 254.185 110.124C252.889 110.124 252.265 109.308 252.265 108.204V102.6H251.221V108.144C251.221 110.124 252.553 111.096 254.185 111.096ZM261.246 111.096C262.65 111.096 263.694 110.136 263.694 108.648C263.694 107.304 262.818 106.668 261.762 106.188C260.862 105.78 260.034 105.396 260.034 104.496C260.034 103.956 260.454 103.476 261.126 103.476C261.63 103.476 262.122 103.68 262.422 104.412L263.274 103.872C262.914 103.056 262.29 102.504 261.126 102.504C259.914 102.504 259.014 103.356 259.014 104.556C259.014 105.756 259.83 106.392 260.778 106.848C261.786 107.328 262.638 107.724 262.638 108.696C262.638 109.668 262.026 110.124 261.258 110.124C260.166 110.124 259.638 109.272 259.398 108.264L258.534 108.804C258.75 110.052 259.806 111.096 261.246 111.096ZM264.316 111H265.42L266.188 108.744H269.38L270.148 111H271.24L268.276 102.6H267.292L264.316 111ZM266.5 107.772L267.784 104.004L269.068 107.772H266.5Z" fill="#626266"/>
<path fill-rule="evenodd" clip-rule="evenodd" d="M170.72 101.17C169.418 99.8994 167.659 99.2073 165.84 99.25C163.583 99.3334 161.512 100.528 160.31 102.44C156.85 107.75 162.87 114.11 164.8 115.93C165.472 116.57 166.528 116.57 167.2 115.93C168.87 114.35 172.75 110.23 172.75 106C172.756 104.181 172.023 102.438 170.72 101.17ZM166.17 114.84C166.074 114.929 165.926 114.929 165.83 114.84C164.12 113.22 158.74 107.6 161.57 103.25C162.515 101.771 164.117 100.839 165.87 100.75C167.286 100.712 168.656 101.249 169.67 102.238C170.683 103.227 171.253 104.584 171.25 106C171.25 109.65 167.7 113.4 166.17 114.84ZM166 103.25C164.481 103.25 163.25 104.481 163.25 106C163.25 107.519 164.481 108.75 166 108.75C167.519 108.75 168.75 107.519 168.75 106C168.75 104.481 167.519 103.25 166 103.25ZM166 107.25C165.31 107.25 164.75 106.69 164.75 106C164.75 105.31 165.31 104.75 166 104.75C166.69 104.75 167.25 105.31 167.25 106C167.25 106.332 167.118 106.649 166.884 106.884C166.649 107.118 166.332 107.25 166 107.25Z" fill="#2A2A2F"/>
<path d="M27 172H332.705" stroke="#F6F6F6"/>
<path d="M85.0696 246H90.7256V244.866H86.2876V236.2H85.0696V246ZM94.0767 246.112C95.1547 246.112 95.8547 245.636 96.2747 244.978L96.4847 246H97.3947V241.478C97.3947 239.756 96.2887 238.832 94.7487 238.832C93.4327 238.832 92.3687 239.588 92.1727 240.778L93.2087 241.016C93.4327 240.344 93.9087 239.868 94.7487 239.868C95.5887 239.868 96.2467 240.274 96.2467 241.352V241.66H95.0147C93.0967 241.66 91.8927 242.458 91.8927 243.97C91.8927 245.468 92.8867 246.112 94.0767 246.112ZM94.2867 245.076C93.5587 245.076 93.0967 244.684 93.0967 243.956C93.0967 243.13 93.7267 242.654 95.0567 242.654H96.2467V242.878C96.2467 244.46 95.1547 245.076 94.2867 245.076ZM101.372 246.112C102.73 246.112 103.626 245.3 103.626 243.97C103.626 242.892 102.828 242.29 101.904 241.954C100.77 241.534 100.336 241.254 100.336 240.722C100.336 240.176 100.756 239.868 101.26 239.868C101.778 239.868 102.212 240.064 102.562 240.61L103.318 239.938C102.87 239.21 102.198 238.832 101.274 238.832C100.098 238.832 99.2163 239.602 99.2163 240.722C99.2163 241.828 99.9583 242.36 100.966 242.724C101.834 243.046 102.492 243.368 102.492 244.012C102.492 244.698 102.044 245.076 101.372 245.076C100.448 245.076 99.9723 244.502 99.7063 243.676L98.7403 244.194C98.9923 245.146 99.8183 246.112 101.372 246.112ZM107.501 246.112C107.907 246.112 108.341 246.042 108.705 245.86L108.411 244.88C108.145 245.034 107.865 245.076 107.599 245.076C106.997 245.076 106.619 244.74 106.619 243.928V239.98H108.509V238.944H106.619V236.088L105.457 236.83V238.944H104.267V239.98H105.457V243.844C105.457 245.412 106.283 246.112 107.501 246.112ZM113.767 246H114.985V241.786H117.211C119.073 241.786 120.123 240.694 120.123 238.986C120.123 237.292 119.073 236.2 117.211 236.2H113.767V246ZM114.985 240.652V237.334H117.197C118.373 237.334 118.863 238.006 118.863 238.986C118.863 239.98 118.373 240.652 117.197 240.652H114.985ZM123.794 246.112C124.788 246.112 125.656 245.51 126.146 244.642V246H127.294V238.944H126.146V241.94C126.146 243.9 125.222 245.076 124.074 245.076C123.234 245.076 122.786 244.572 122.786 243.606V238.944H121.624V243.858C121.624 245.314 122.492 246.112 123.794 246.112ZM129.39 246H130.552V243.34C130.552 240.974 131.42 239.882 132.47 239.882C132.82 239.882 133.1 239.966 133.38 240.12L133.618 239.042C133.296 238.916 133.002 238.832 132.624 238.832C131.714 238.832 131 239.308 130.552 240.162V238.944H129.39V246ZM137.317 246.112C138.759 246.112 139.767 245.44 140.271 244.138L139.235 243.732C138.857 244.6 138.269 245.076 137.317 245.076C135.931 245.076 135.287 243.9 135.287 242.472C135.287 241.03 135.931 239.868 137.317 239.868C138.269 239.868 138.885 240.358 139.235 241.212L140.271 240.806C139.767 239.476 138.759 238.832 137.317 238.832C135.161 238.832 134.083 240.582 134.083 242.472C134.083 244.362 135.161 246.112 137.317 246.112ZM141.859 246H143.021V243.004C143.021 241.002 144.029 239.868 145.163 239.868C146.045 239.868 146.493 240.4 146.493 241.366V246H147.641V241.086C147.641 239.616 146.815 238.832 145.443 238.832C144.463 238.832 143.497 239.35 143.021 240.358V236.088H141.859V246ZM151.348 246.112C152.426 246.112 153.126 245.636 153.546 244.978L153.756 246H154.666V241.478C154.666 239.756 153.56 238.832 152.02 238.832C150.704 238.832 149.64 239.588 149.444 240.778L150.48 241.016C150.704 240.344 151.18 239.868 152.02 239.868C152.86 239.868 153.518 240.274 153.518 241.352V241.66H152.286C150.368 241.66 149.164 242.458 149.164 243.97C149.164 245.468 150.158 246.112 151.348 246.112ZM151.558 245.076C150.83 245.076 150.368 244.684 150.368 243.956C150.368 243.13 150.998 242.654 152.328 242.654H153.518V242.878C153.518 244.46 152.426 245.076 151.558 245.076ZM158.644 246.112C160.002 246.112 160.898 245.3 160.898 243.97C160.898 242.892 160.1 242.29 159.176 241.954C158.042 241.534 157.608 241.254 157.608 240.722C157.608 240.176 158.028 239.868 158.532 239.868C159.05 239.868 159.484 240.064 159.834 240.61L160.59 239.938C160.142 239.21 159.47 238.832 158.546 238.832C157.37 238.832 156.488 239.602 156.488 240.722C156.488 241.828 157.23 242.36 158.238 242.724C159.106 243.046 159.764 243.368 159.764 244.012C159.764 244.698 159.316 245.076 158.644 245.076C157.72 245.076 157.244 244.502 156.978 243.676L156.012 244.194C156.264 245.146 157.09 246.112 158.644 246.112ZM168.344 242.164C168.344 240.344 167.182 238.832 165.194 238.832C163.136 238.832 161.974 240.512 161.974 242.472C161.974 244.404 163.15 246.112 165.194 246.112C166.622 246.112 167.546 245.51 168.218 244.124L167.238 243.704C166.762 244.656 166.216 245.076 165.222 245.076C163.948 245.076 163.206 244.054 163.15 242.654H168.344V242.164ZM163.22 241.66C163.472 240.456 164.27 239.868 165.194 239.868C166.356 239.868 167 240.61 167.168 241.66H163.22Z" fill="#8F8F91"/>
<path d="M184.162 246H190V244.558H185.716V236.2H184.162V246ZM193.251 246.112C194.287 246.112 194.973 245.678 195.435 245.048L195.631 246H196.821V241.646C196.821 239.784 195.715 238.832 194.007 238.832C192.635 238.832 191.585 239.616 191.361 240.778L192.649 241.072C192.859 240.456 193.321 240.12 194.007 240.12C194.735 240.12 195.351 240.456 195.351 241.352V241.66H194.119C192.271 241.66 191.095 242.514 191.095 243.97C191.095 245.412 192.061 246.112 193.251 246.112ZM193.601 244.824C193.027 244.824 192.635 244.488 192.635 243.956C192.635 243.228 193.181 242.864 194.175 242.864H195.351V243.046C195.351 244.25 194.427 244.824 193.601 244.824ZM201.31 246.112C201.702 246.112 202.108 246.042 202.472 245.86L202.122 244.642C201.87 244.782 201.632 244.824 201.38 244.824C200.792 244.824 200.442 244.53 200.442 243.676V240.232H202.318V238.944H200.442V236.088L198.958 237.026V238.944H197.824V240.232H198.958V243.648C198.958 245.328 199.882 246.112 201.31 246.112ZM206.382 246.112C206.774 246.112 207.18 246.042 207.544 245.86L207.194 244.642C206.942 244.782 206.704 244.824 206.452 244.824C205.864 244.824 205.514 244.53 205.514 243.676V240.232H207.39V238.944H205.514V236.088L204.03 237.026V238.944H202.896V240.232H204.03V243.648C204.03 245.328 204.954 246.112 206.382 246.112ZM214.64 242.248C214.64 240.582 213.604 238.832 211.406 238.832C209.152 238.832 208.102 240.68 208.102 242.472C208.102 244.25 209.152 246.112 211.406 246.112C213.002 246.112 213.94 245.398 214.542 244.082L213.324 243.606C212.876 244.432 212.358 244.824 211.476 244.824C210.426 244.824 209.74 244.096 209.614 242.864H214.64V242.248ZM209.684 241.66C209.908 240.638 210.594 240.12 211.406 240.12C212.442 240.12 212.974 240.806 213.128 241.66H209.684Z" fill="#37383C"/>
<path d="M115.827 210H121.483V208.866H117.045V200.2H115.827V210ZM124.835 210.112C125.913 210.112 126.613 209.636 127.033 208.978L127.243 210H128.153V205.478C128.153 203.756 127.047 202.832 125.507 202.832C124.191 202.832 123.127 203.588 122.931 204.778L123.967 205.016C124.191 204.344 124.667 203.868 125.507 203.868C126.347 203.868 127.005 204.274 127.005 205.352V205.66H125.773C123.855 205.66 122.651 206.458 122.651 207.97C122.651 209.468 123.645 210.112 124.835 210.112ZM125.045 209.076C124.317 209.076 123.855 208.684 123.855 207.956C123.855 207.13 124.485 206.654 125.815 206.654H127.005V206.878C127.005 208.46 125.913 209.076 125.045 209.076ZM132.13 210.112C133.488 210.112 134.384 209.3 134.384 207.97C134.384 206.892 133.586 206.29 132.662 205.954C131.528 205.534 131.094 205.254 131.094 204.722C131.094 204.176 131.514 203.868 132.018 203.868C132.536 203.868 132.97 204.064 133.32 204.61L134.076 203.938C133.628 203.21 132.956 202.832 132.032 202.832C130.856 202.832 129.974 203.602 129.974 204.722C129.974 205.828 130.716 206.36 131.724 206.724C132.592 207.046 133.25 207.368 133.25 208.012C133.25 208.698 132.802 209.076 132.13 209.076C131.206 209.076 130.73 208.502 130.464 207.676L129.498 208.194C129.75 209.146 130.576 210.112 132.13 210.112ZM138.259 210.112C138.665 210.112 139.099 210.042 139.463 209.86L139.169 208.88C138.903 209.034 138.623 209.076 138.357 209.076C137.755 209.076 137.377 208.74 137.377 207.928V203.98H139.267V202.944H137.377V200.088L136.215 200.83V202.944H135.025V203.98H136.215V207.844C136.215 209.412 137.041 210.112 138.259 210.112ZM145.897 210H147.059L149.439 202.944H148.249L146.485 208.516L144.707 202.944H143.517L145.897 210ZM151.274 201.754C151.764 201.754 152.128 201.39 152.128 200.914C152.128 200.438 151.764 200.074 151.274 200.074C150.798 200.074 150.434 200.438 150.434 200.914C150.434 201.39 150.798 201.754 151.274 201.754ZM150.7 210H151.862V202.944H150.7V210ZM155.96 210.112C157.318 210.112 158.214 209.3 158.214 207.97C158.214 206.892 157.416 206.29 156.492 205.954C155.358 205.534 154.924 205.254 154.924 204.722C154.924 204.176 155.344 203.868 155.848 203.868C156.366 203.868 156.8 204.064 157.15 204.61L157.906 203.938C157.458 203.21 156.786 202.832 155.862 202.832C154.686 202.832 153.804 203.602 153.804 204.722C153.804 205.828 154.546 206.36 155.554 206.724C156.422 207.046 157.08 207.368 157.08 208.012C157.08 208.698 156.632 209.076 155.96 209.076C155.036 209.076 154.56 208.502 154.294 207.676L153.328 208.194C153.58 209.146 154.406 210.112 155.96 210.112ZM160.435 201.754C160.925 201.754 161.289 201.39 161.289 200.914C161.289 200.438 160.925 200.074 160.435 200.074C159.959 200.074 159.595 200.438 159.595 200.914C159.595 201.39 159.959 201.754 160.435 201.754ZM159.861 210H161.023V202.944H159.861V210ZM165.466 210.112C165.872 210.112 166.306 210.042 166.67 209.86L166.376 208.88C166.11 209.034 165.83 209.076 165.564 209.076C164.962 209.076 164.584 208.74 164.584 207.928V203.98H166.474V202.944H164.584V200.088L163.422 200.83V202.944H162.232V203.98H163.422V207.844C163.422 209.412 164.248 210.112 165.466 210.112Z" fill="#8F8F91"/>
<path d="M185.464 210H186.962V200.2H186.36L183.672 201.81V203.434L185.464 202.342V210ZM192.621 210H194.105V207.256C194.105 205.184 194.861 204.12 195.799 204.12C196.457 204.12 196.793 204.47 196.793 205.282V210H198.263V207.144C198.263 205.156 199.033 204.12 199.957 204.12C200.615 204.12 200.951 204.47 200.951 205.282V210H202.421V205.044C202.421 203.63 201.693 202.832 200.349 202.832C199.453 202.832 198.641 203.42 198.151 204.316C197.871 203.308 197.129 202.832 196.191 202.832C195.253 202.832 194.595 203.35 194.105 204.176V202.944H192.621V210ZM207.542 210.112C209.74 210.112 211.042 208.46 211.042 206.472C211.042 204.484 209.74 202.832 207.542 202.832C205.33 202.832 204.042 204.484 204.042 206.472C204.042 208.46 205.33 210.112 207.542 210.112ZM207.542 208.824C206.282 208.824 205.582 207.704 205.582 206.472C205.582 205.24 206.282 204.12 207.542 204.12C208.802 204.12 209.488 205.24 209.488 206.472C209.488 207.704 208.802 208.824 207.542 208.824ZM212.664 210H214.148V207.102C214.148 205.198 214.988 204.12 215.954 204.12C216.668 204.12 217.102 204.526 217.102 205.408V210H218.572V205.016C218.572 203.588 217.676 202.832 216.402 202.832C215.464 202.832 214.652 203.378 214.148 204.176V202.944H212.664V210ZM223.089 210.112C223.481 210.112 223.887 210.042 224.251 209.86L223.901 208.642C223.649 208.782 223.411 208.824 223.159 208.824C222.571 208.824 222.221 208.53 222.221 207.676V204.232H224.097V202.944H222.221V200.088L220.737 201.026V202.944H219.603V204.232H220.737V207.648C220.737 209.328 221.661 210.112 223.089 210.112ZM225.393 210H226.877V207.004C226.877 205.058 227.801 204.12 228.739 204.12C229.537 204.12 229.915 204.582 229.915 205.478V210H231.399V205.016C231.399 203.56 230.545 202.832 229.201 202.832C228.193 202.832 227.339 203.364 226.877 204.204V200.088H225.393V210ZM238.696 210.112C239.732 210.112 240.418 209.678 240.88 209.048L241.076 210H242.266V205.646C242.266 203.784 241.16 202.832 239.452 202.832C238.08 202.832 237.03 203.616 236.806 204.778L238.094 205.072C238.304 204.456 238.766 204.12 239.452 204.12C240.18 204.12 240.796 204.456 240.796 205.352V205.66H239.564C237.716 205.66 236.54 206.514 236.54 207.97C236.54 209.412 237.506 210.112 238.696 210.112ZM239.046 208.824C238.472 208.824 238.08 208.488 238.08 207.956C238.08 207.228 238.626 206.864 239.62 206.864H240.796V207.046C240.796 208.25 239.872 208.824 239.046 208.824ZM246.672 212.968C248.254 212.968 249.78 212.268 249.78 210.532C249.78 209.188 248.814 208.53 247.414 208.53H245.86C245.426 208.53 245.132 208.348 245.132 207.956C245.132 207.704 245.272 207.494 245.538 207.354C245.874 207.494 246.252 207.564 246.658 207.564C248.058 207.564 249.192 206.682 249.192 205.212C249.192 204.736 249.066 204.33 248.842 203.98L249.836 203.462L249.234 202.44L247.932 203.14C247.554 202.944 247.12 202.832 246.658 202.832C245.258 202.832 244.124 203.756 244.124 205.212C244.124 205.8 244.32 206.304 244.628 206.696C244.11 206.976 243.76 207.466 243.76 208.11C243.76 208.6 243.914 208.964 244.18 209.216C243.802 209.538 243.564 210.042 243.564 210.644C243.564 212.156 244.866 212.968 246.672 212.968ZM246.658 206.36C246.014 206.36 245.524 205.912 245.524 205.212C245.524 204.484 246.014 204.036 246.658 204.036C247.288 204.036 247.792 204.484 247.792 205.212C247.792 205.912 247.288 206.36 246.658 206.36ZM246.672 211.708C245.608 211.708 244.936 211.302 244.936 210.56C244.936 210.224 245.02 209.93 245.23 209.72C245.482 209.762 245.734 209.776 246.014 209.776H247.106C247.82 209.776 248.31 209.972 248.31 210.644C248.31 211.344 247.666 211.708 246.672 211.708ZM254.108 210.112C256.306 210.112 257.608 208.46 257.608 206.472C257.608 204.484 256.306 202.832 254.108 202.832C251.896 202.832 250.608 204.484 250.608 206.472C250.608 208.46 251.896 210.112 254.108 210.112ZM254.108 208.824C252.848 208.824 252.148 207.704 252.148 206.472C252.148 205.24 252.848 204.12 254.108 204.12C255.368 204.12 256.054 205.24 256.054 206.472C256.054 207.704 255.368 208.824 254.108 208.824Z" fill="#37383C"/>
<path d="M183.132 162H184.548L185.232 159.9H188.136L188.808 162H190.236L187.332 153.6H186.024L183.132 162ZM185.616 158.664L186.684 155.364L187.74 158.664H185.616ZM193.662 162.096C194.958 162.096 195.87 161.508 196.314 160.38L195.186 159.924C194.862 160.608 194.406 160.992 193.662 160.992C192.618 160.992 192.114 160.116 192.114 158.976C192.114 157.836 192.618 156.96 193.662 156.96C194.406 156.96 194.874 157.344 195.186 158.028L196.314 157.56C195.87 156.432 194.958 155.856 193.662 155.856C191.754 155.856 190.794 157.308 190.794 158.976C190.794 160.644 191.754 162.096 193.662 162.096ZM199.878 162.096C200.214 162.096 200.562 162.036 200.874 161.88L200.574 160.836C200.358 160.956 200.154 160.992 199.938 160.992C199.434 160.992 199.134 160.74 199.134 160.008V157.056H200.742V155.952H199.134V153.504L197.862 154.308V155.952H196.89V157.056H197.862V159.984C197.862 161.424 198.654 162.096 199.878 162.096ZM202.617 155.064C203.109 155.064 203.481 154.692 203.481 154.212C203.481 153.732 203.109 153.36 202.617 153.36C202.125 153.36 201.765 153.732 201.765 154.212C201.765 154.692 202.125 155.064 202.617 155.064ZM201.981 162H203.253V155.952H201.981V162ZM206.337 162H207.513L209.565 155.952H208.281L206.925 160.416L205.569 155.952H204.285L206.337 162ZM211.23 155.064C211.722 155.064 212.094 154.692 212.094 154.212C212.094 153.732 211.722 153.36 211.23 153.36C210.738 153.36 210.378 153.732 210.378 154.212C210.378 154.692 210.738 155.064 211.23 155.064ZM210.594 162H211.866V155.952H210.594V162ZM215.838 162.096C216.174 162.096 216.522 162.036 216.834 161.88L216.534 160.836C216.318 160.956 216.114 160.992 215.898 160.992C215.394 160.992 215.094 160.74 215.094 160.008V157.056H216.702V155.952H215.094V153.504L213.822 154.308V155.952H212.85V157.056H213.822V159.984C213.822 161.424 214.614 162.096 215.838 162.096ZM221.551 155.952L220.099 160.008L218.599 155.952H217.315L219.499 161.7L218.515 164.448H219.739L222.823 155.952H221.551ZM226.874 162H228.134V157.056H229.466V155.952H228.134V155.508C228.134 154.872 228.446 154.608 228.938 154.608C229.202 154.608 229.406 154.668 229.622 154.764L229.898 153.72C229.67 153.588 229.31 153.504 228.89 153.504C227.666 153.504 226.874 154.164 226.874 155.616V155.952H226.046V157.056H226.874V162ZM235.702 158.784C235.702 157.356 234.814 155.856 232.93 155.856C230.998 155.856 230.098 157.44 230.098 158.976C230.098 160.5 230.998 162.096 232.93 162.096C234.298 162.096 235.102 161.484 235.618 160.356L234.574 159.948C234.19 160.656 233.746 160.992 232.99 160.992C232.09 160.992 231.502 160.368 231.394 159.312H235.702V158.784ZM231.454 158.28C231.646 157.404 232.234 156.96 232.93 156.96C233.818 156.96 234.274 157.548 234.406 158.28H231.454ZM242.359 158.784C242.359 157.356 241.471 155.856 239.587 155.856C237.655 155.856 236.755 157.44 236.755 158.976C236.755 160.5 237.655 162.096 239.587 162.096C240.955 162.096 241.759 161.484 242.275 160.356L241.231 159.948C240.847 160.656 240.403 160.992 239.647 160.992C238.747 160.992 238.159 160.368 238.051 159.312H242.359V158.784ZM238.111 158.28C238.303 157.404 238.891 156.96 239.587 156.96C240.475 156.96 240.931 157.548 241.063 158.28H238.111ZM246.063 162.096C246.915 162.096 247.527 161.664 247.743 161.304V161.664V162H249.015V153.504H247.743V156.228V156.588C247.431 156.18 246.819 155.856 246.063 155.856C244.347 155.856 243.411 157.152 243.411 158.976C243.411 160.8 244.347 162.096 246.063 162.096ZM246.303 160.992C245.379 160.992 244.731 160.224 244.731 158.976C244.731 157.728 245.379 156.96 246.303 156.96C247.239 156.96 247.863 157.728 247.863 158.976C247.863 160.224 247.239 160.992 246.303 160.992Z" fill="#8F8F91"/>
<path d="M110.996 162H112.328V158.568H114.068C115.76 158.568 116.636 157.548 116.636 156.084C116.636 154.62 115.76 153.6 114.068 153.6H110.996V162ZM112.328 157.332V154.836H114.032C114.86 154.836 115.28 155.28 115.28 156.084C115.28 156.888 114.86 157.332 114.032 157.332H112.328ZM117.731 162H119.003V159.792C119.003 157.8 119.759 156.996 120.635 156.996C120.911 156.996 121.127 157.056 121.331 157.176L121.571 156C121.319 155.916 121.079 155.856 120.791 155.856C120.059 155.856 119.411 156.24 119.003 156.96V155.952H117.731V162ZM124.965 162.096C126.85 162.096 127.966 160.68 127.966 158.976C127.966 157.272 126.85 155.856 124.965 155.856C123.07 155.856 121.966 157.272 121.966 158.976C121.966 160.68 123.07 162.096 124.965 162.096ZM124.965 160.992C123.886 160.992 123.286 160.032 123.286 158.976C123.286 157.92 123.886 156.96 124.965 156.96C126.046 156.96 126.634 157.92 126.634 158.976C126.634 160.032 126.046 160.992 124.965 160.992ZM129.356 164.448H130.628V161.712V161.352C130.928 161.772 131.588 162.096 132.224 162.096C134.024 162.096 134.96 160.8 134.96 158.976C134.96 157.152 134.024 155.856 132.224 155.856C131.456 155.856 130.844 156.276 130.628 156.648V156.288V155.952H129.356V164.448ZM132.068 160.992C131.144 160.992 130.508 160.224 130.508 158.976C130.508 157.728 131.144 156.96 132.068 156.96C133.004 156.96 133.64 157.728 133.64 158.976C133.64 160.224 133.004 160.992 132.068 160.992ZM141.62 158.784C141.62 157.356 140.732 155.856 138.848 155.856C136.916 155.856 136.016 157.44 136.016 158.976C136.016 160.5 136.916 162.096 138.848 162.096C140.216 162.096 141.02 161.484 141.536 160.356L140.492 159.948C140.108 160.656 139.664 160.992 138.908 160.992C138.008 160.992 137.42 160.368 137.312 159.312H141.62V158.784ZM137.372 158.28C137.564 157.404 138.152 156.96 138.848 156.96C139.736 156.96 140.192 157.548 140.324 158.28H137.372ZM143.009 162H144.281V159.792C144.281 157.8 145.037 156.996 145.913 156.996C146.189 156.996 146.405 157.056 146.609 157.176L146.849 156C146.597 155.916 146.357 155.856 146.069 155.856C145.337 155.856 144.689 156.24 144.281 156.96V155.952H143.009V162ZM150.491 162.096C150.827 162.096 151.175 162.036 151.487 161.88L151.187 160.836C150.971 160.956 150.767 160.992 150.551 160.992C150.047 160.992 149.747 160.74 149.747 160.008V157.056H151.355V155.952H149.747V153.504L148.475 154.308V155.952H147.503V157.056H148.475V159.984C148.475 161.424 149.267 162.096 150.491 162.096ZM153.23 155.064C153.722 155.064 154.094 154.692 154.094 154.212C154.094 153.732 153.722 153.36 153.23 153.36C152.738 153.36 152.378 153.732 152.378 154.212C152.378 154.692 152.738 155.064 153.23 155.064ZM152.594 162H153.866V155.952H152.594V162ZM160.851 158.784C160.851 157.356 159.963 155.856 158.079 155.856C156.147 155.856 155.247 157.44 155.247 158.976C155.247 160.5 156.147 162.096 158.079 162.096C159.447 162.096 160.251 161.484 160.767 160.356L159.723 159.948C159.339 160.656 158.895 160.992 158.139 160.992C157.239 160.992 156.651 160.368 156.543 159.312H160.851V158.784ZM156.603 158.28C156.795 157.404 157.383 156.96 158.079 156.96C158.967 156.96 159.423 157.548 159.555 158.28H156.603ZM164.018 162.096C165.206 162.096 166.022 161.364 166.022 160.188C166.022 159.288 165.386 158.784 164.546 158.484C163.55 158.112 163.274 157.884 163.274 157.536C163.274 157.164 163.586 156.96 163.946 156.96C164.354 156.96 164.702 157.116 164.978 157.536L165.758 156.828C165.386 156.192 164.738 155.856 163.934 155.856C162.866 155.856 162.086 156.564 162.086 157.512C162.086 158.46 162.698 158.94 163.55 159.264C164.234 159.528 164.822 159.792 164.822 160.26C164.822 160.752 164.462 160.992 164.018 160.992C163.334 160.992 162.938 160.548 162.71 159.912L161.69 160.452C161.918 161.268 162.686 162.096 164.018 162.096Z" fill="#2A2A2F"/>
<rect x="127" y="171" width="24" height="2" rx="1" fill="#626266"/>
<circle cx="75" cy="75" r="47.5" fill="white" stroke="#F3F6FB"/>
<circle cx="75" cy="75" r="36" fill="#F3F6FB"/>
<circle cx="54.875" cy="79.625" r="3.5" fill="#37383C"/>
<circle cx="83.7188" cy="92.1562" r="4.40625" stroke="#37383C" stroke-width="3"/>
<circle cx="90.875" cy="63.3125" r="3.5" fill="#37383C"/>
<path d="M98.625 73.9399H91.2921C85.6114 73.9399 81.0064 69.3348 81.0064 63.6542V56.7331C81.0064 52.5312 77.6001 49.125 73.3983 49.125V49.125C69.1965 49.125 65.7903 52.5312 65.7903 56.733V80.4643C65.7903 86.1449 61.1852 90.75 55.5045 90.75H51.375" stroke="#FF9A9A" stroke-width="3" stroke-linecap="round" stroke-linejoin="round"/>
<path d="M123 76C123 102.51 101.51 124 75 124C48.4903 124 27 102.51 27 76C27 49.4903 48.4903 28 75 28C101.51 28 123 49.4903 123 76Z" fill="#FF9A9A"/>
<path fill-rule="evenodd" clip-rule="evenodd" d="M87.125 101.25C88.7128 101.25 90 99.9628 90 98.375C90 96.7872 88.7128 95.5 87.125 95.5C85.5372 95.5 84.25 96.7872 84.25 98.375C84.25 99.9628 85.5372 101.25 87.125 101.25ZM87.125 106.25C91.4742 106.25 95 102.724 95 98.375C95 94.0258 91.4742 90.5 87.125 90.5C82.7758 90.5 79.25 94.0258 79.25 98.375C79.25 102.724 82.7758 106.25 87.125 106.25Z" fill="#37383C"/>
<path fill-rule="evenodd" clip-rule="evenodd" d="M73.3644 43.5C77.5861 43.5 81.0085 46.9224 81.0085 51.1441V60.0865C81.0085 69.1992 88.3958 76.5865 97.5085 76.5865H107C108.381 76.5865 109.5 75.4673 109.5 74.0865C109.5 72.7058 108.381 71.5865 107 71.5865H97.5085C91.1572 71.5865 86.0085 66.4378 86.0085 60.0865V51.1441C86.0085 44.1609 80.3475 38.5 73.3644 38.5C66.3813 38.5 60.7203 44.1609 60.7203 51.1441V82.5C60.7203 88.8513 55.5716 94 49.2203 94H44C42.6193 94 41.5 95.1193 41.5 96.5C41.5 97.8807 42.6193 99 44 99H49.2203C58.333 99 65.7203 91.6127 65.7203 82.5V51.1441C65.7203 46.9224 69.1427 43.5 73.3644 43.5Z" fill="white"/>
<path d="M102.5 60.5C102.5 63.2614 100.261 65.5 97.5 65.5C94.7386 65.5 92.5 63.2614 92.5 60.5C92.5 57.7386 94.7386 55.5 97.5 55.5C100.261 55.5 102.5 57.7386 102.5 60.5Z" fill="#37383C"/>
<path d="M54.5 82.5C54.5 85.2614 52.2614 87.5 49.5 87.5C46.7386 87.5 44.5 85.2614 44.5 82.5C44.5 79.7386 46.7386 77.5 49.5 77.5C52.2614 77.5 54.5 79.7386 54.5 82.5Z" fill="#37383C"/>
<rect x="11" y="7" width="338" height="278" rx="20" stroke="white"/>
</g>
<defs>
<filter id="filter0_dd_3311_203727" x="0.5" y="0.5" width="359" height="299" filterUnits="userSpaceOnUse" color-interpolation-filters="sRGB">
<feFlood flood-opacity="0" result="BackgroundImageFix"/>
<feColorMatrix in="SourceAlpha" type="matrix" values="0 0 0 0 0 0 0 0 0 0 0 0 0 0 0 0 0 0 127 0" result="hardAlpha"/>
<feOffset dy="4"/>
<feGaussianBlur stdDeviation="5"/>
<feColorMatrix type="matrix" values="0 0 0 0 0.215686 0 0 0 0 0.219608 0 0 0 0 0.235294 0 0 0 0.16 0"/>
<feBlend mode="normal" in2="BackgroundImageFix" result="effect1_dropShadow_3311_203727"/>
<feColorMatrix in="SourceAlpha" type="matrix" values="0 0 0 0 0 0 0 0 0 0 0 0 0 0 0 0 0 0 127 0" result="hardAlpha"/>
<feOffset/>
<feGaussianBlur stdDeviation="1"/>
<feColorMatrix type="matrix" values="0 0 0 0 0.215686 0 0 0 0 0.219608 0 0 0 0 0.235294 0 0 0 0.48 0"/>
<feBlend mode="normal" in2="effect1_dropShadow_3311_203727" result="effect2_dropShadow_3311_203727"/>
<feBlend mode="normal" in="SourceGraphic" in2="effect2_dropShadow_3311_203727" result="shape"/>
</filter>
</defs>
</svg>
